<?xml version="1.0" encoding="utf-8"?>
<!-- Generator: Adobe Illustrator 16.0.0, SVG Export Plug-In . SVG Version: 6.00 Build 0)  -->
<!DOCTYPE svg PUBLIC "-//W3C//DTD SVG 1.1//EN" "http://www.w3.org/Graphics/SVG/1.1/DTD/svg11.dtd">
<svg version="1.1" id="Layer_1" xmlns="http://www.w3.org/2000/svg" xmlns:xlink="http://www.w3.org/1999/xlink" x="0px" y="0px"
	 width="50px" height="50px" viewBox="0 0 50 50" enable-background="new 0 0 50 50" xml:space="preserve">
<path fill="#5AC9E6" d="M22.935,7.837C22.105,7,22.149,5.614,23.068,4.836c0.78-0.659,2.035-0.566,2.754,0.157l10.591,10.676h-5.708
	L22.935,7.837z M31.052,42.517H12.378L3.76,24.751c-0.465-0.958-1.43-1.564-2.487-1.564H0v-4.65h42.786v4.615
	c-1.346-0.449-2.801-0.656-4.313-0.566c-5.961,0.351-10.71,5.299-10.871,11.314C27.513,37.27,28.852,40.333,31.052,42.517z
	 M12.312,15.669H6.603L17.193,4.993c0.719-0.724,1.975-0.816,2.753-0.157C20.866,5.614,20.912,7,20.081,7.837L12.312,15.669z
	 M39.434,25.823c-4.818-0.155-8.755,3.812-8.603,8.669c0.139,4.397,3.692,7.979,8.054,8.119c4.819,0.156,8.756-3.812,8.603-8.667
	C47.349,29.547,43.795,25.963,39.434,25.823z M41.481,38.369l-1.443-1.454c-0.463-0.467-1.213-0.467-1.675,0l-1.443,1.454
	c-0.463,0.466-1.214,0.466-1.676,0l0,0c-0.463-0.466-0.463-1.224,0-1.689l1.443-1.455c0.462-0.466,0.462-1.222,0-1.689l-1.443-1.453
	c-0.463-0.468-0.463-1.224,0.001-1.689l0,0c0.463-0.466,1.212-0.466,1.675,0l1.442,1.455c0.463,0.466,1.213,0.466,1.676-0.003
	l1.442-1.452c0.463-0.466,1.214-0.469,1.677,0l0,0c0.462,0.466,0.463,1.222,0,1.689l-1.442,1.453c-0.463,0.468-0.463,1.224,0,1.689
	l1.443,1.455c0.462,0.466,0.462,1.222,0,1.689l0,0C42.695,38.835,41.945,38.835,41.481,38.369z"/>
</svg>
