<?xml version="1.0" encoding="utf-8"?>
<!-- Generator: Adobe Illustrator 16.0.0, SVG Export Plug-In . SVG Version: 6.00 Build 0)  -->
<!DOCTYPE svg PUBLIC "-//W3C//DTD SVG 1.1//EN" "http://www.w3.org/Graphics/SVG/1.1/DTD/svg11.dtd">
<svg version="1.1" id="Layer_1" xmlns="http://www.w3.org/2000/svg" xmlns:xlink="http://www.w3.org/1999/xlink" x="0px" y="0px"
	 width="50px" height="50px" viewBox="0 0 50 50" enable-background="new 0 0 50 50" xml:space="preserve">
<g>
	<defs>
		<rect id="SVGID_3_" x="5" y="0.859" width="40" height="49.141"/>
	</defs>
	<clipPath id="SVGID_2_">
		<use xlink:href="#SVGID_3_"  overflow="visible"/>
	</clipPath>
	<path clip-path="url(#SVGID_2_)" fill="#010101" d="M33.173,39.064H16.711c-0.988,0-1.789-0.801-1.789-1.789
		c0-0.989,0.801-1.79,1.789-1.79h16.462c0.988,0,1.79,0.801,1.79,1.79C34.963,38.263,34.162,39.064,33.173,39.064 M33.17,32.455
		H16.711c-0.988,0-1.789-0.801-1.789-1.789c0-0.988,0.801-1.79,1.789-1.79H33.17c0.988,0,1.789,0.801,1.789,1.79
		C34.959,31.653,34.158,32.455,33.17,32.455 M33.17,25.854H16.711c-0.988,0-1.789-0.801-1.789-1.789c0-0.989,0.801-1.79,1.789-1.79
		H33.17c0.988,0,1.789,0.801,1.789,1.79C34.959,25.053,34.158,25.854,33.17,25.854 M29.988,5.63v8.438
		c0,0.988,0.801,1.789,1.789,1.789h6.663c0.988,0,1.79,0.801,1.79,1.789V43.44c0,0.988-0.801,1.789-1.79,1.789H11.56
		c-0.988,0-1.79-0.801-1.79-1.789V7.419c0-0.988,0.801-1.789,1.79-1.789H29.988 M32.229,0.859H6.789C5.801,0.859,5,1.66,5,2.648
		v45.562C5,49.199,5.801,50,6.789,50h36.422C44.199,50,45,49.199,45,48.211V13.618c0-0.475-0.189-0.93-0.524-1.266L33.494,1.382
		C33.158,1.047,32.704,0.859,32.229,0.859"/>
</g>
</svg>
