<?xml version="1.0" encoding="utf-8"?>
<!-- Generator: Adobe Illustrator 16.0.0, SVG Export Plug-In . SVG Version: 6.00 Build 0)  -->
<!DOCTYPE svg PUBLIC "-//W3C//DTD SVG 1.1//EN" "http://www.w3.org/Graphics/SVG/1.1/DTD/svg11.dtd">
<svg version="1.1" id="Layer_1" xmlns="http://www.w3.org/2000/svg" xmlns:xlink="http://www.w3.org/1999/xlink" x="0px" y="0px"
	 width="50px" height="50px" viewBox="0 0 50 50" enable-background="new 0 0 50 50" xml:space="preserve">
<path fill="#3951A3" d="M1.496,0.304c6.161,1.854,16.011,2.409,15.588,12.291c-0.011,0.257-0.116,0.501-0.296,0.685l-3.904,3.988
	c-0.198,0.202-0.469,0.314-0.752,0.312C2.439,17.462,1.664,7.871,0.189,1.534C0.008,0.754,0.732,0.073,1.496,0.304z M22.45,31.907
	c5.663,4.288,24.726,17.692,24.726,17.692c1.577,1.073,3.476-0.873,2.374-2.434c0,0-13.814-18.766-18.23-24.324
	c-3.374-4.254-5.115-4.538-10.822-6.203c-0.366-0.107-0.763-0.003-1.029,0.271l-3.216,3.291c-0.267,0.273-0.361,0.672-0.246,1.038
	C17.794,26.898,18.125,28.63,22.45,31.907z M12.984,38.149l4.014-4.027c0.396-0.4,0.404-1.042,0.015-1.449
	c-0.004-0.004-0.01-0.01-0.015-0.016c-0.402-0.419-1.07-0.428-1.479-0.015l-4.015,4.028c-0.403,0.406-0.403,1.06,0.001,1.464
	l0.016,0.015C11.924,38.556,12.58,38.556,12.984,38.149z M30.047,14.957l8.758-8.788c0.404-0.405,1.06-0.406,1.464-0.001
	l3.041,3.047c0.406,0.404,0.406,1.06,0.002,1.464l-8.431,8.457c-0.374,0.374-0.404,0.968-0.073,1.38
	c0.442,0.55,0.866,1.094,1.301,1.662c0.382,0.496,1.111,0.543,1.552,0.101l11.487-11.522c0.402-0.404,0.402-1.06,0-1.464
	l-8.885-8.896c-0.407-0.405-1.062-0.405-1.466,0L26.63,12.601c-0.525,0.527-0.341,1.422,0.35,1.694
	c0.643,0.251,1.254,0.528,1.848,0.845C29.23,15.353,29.725,15.279,30.047,14.957z M38.876,9.201l-6.797,6.821
	c-0.415,0.415-0.402,1.089,0.026,1.49c0.007,0.004,0.013,0.01,0.018,0.015c0.406,0.381,1.042,0.366,1.436-0.028l6.797-6.82
	c0.402-0.404,0.402-1.06,0-1.464L40.337,9.2C39.936,8.795,39.278,8.796,38.876,9.201z M18.667,35.404l-6.681,6.702
	c-0.127,0.128-0.284,0.221-0.456,0.27l-4.204,1.166c-0.775,0.214-1.488-0.499-1.274-1.276l1.164-4.211
	c0.047-0.172,0.139-0.329,0.265-0.457l6.938-6.96c0.323-0.325,0.395-0.824,0.176-1.227c-0.32-0.589-0.603-1.2-0.863-1.841
	c-0.278-0.685-1.167-0.86-1.688-0.337L3.7,35.599c-0.127,0.128-0.219,0.287-0.265,0.461L0.159,48.176
	c-0.209,0.769,0.493,1.475,1.263,1.272l12.163-3.219c0.178-0.046,0.339-0.139,0.468-0.27l7.787-7.811
	c0.448-0.45,0.39-1.194-0.124-1.567c-0.832-0.61-1.189-0.875-1.677-1.259C19.627,34.998,19.038,35.033,18.667,35.404z"/>
</svg>
