<?xml version="1.0" encoding="utf-8"?>
<!-- Generator: Adobe Illustrator 16.0.0, SVG Export Plug-In . SVG Version: 6.00 Build 0)  -->
<!DOCTYPE svg PUBLIC "-//W3C//DTD SVG 1.1//EN" "http://www.w3.org/Graphics/SVG/1.1/DTD/svg11.dtd">
<svg version="1.1" id="Layer_1" xmlns="http://www.w3.org/2000/svg" xmlns:xlink="http://www.w3.org/1999/xlink" x="0px" y="0px"
	 width="50px" height="50px" viewBox="0 0 50 50" enable-background="new 0 0 50 50" xml:space="preserve">
<path fill="#59C9E9" d="M41.512,9.073c0,1.152-0.95,2.086-2.123,2.086c-1.171,0-2.121-0.934-2.121-2.086V3.825
	c0-1.151,0.95-2.083,2.121-2.083c1.173,0,2.123,0.933,2.123,2.083V9.073z M12.843,3.817c0-1.153-0.95-2.087-2.121-2.087
	c-1.173,0-2.123,0.934-2.123,2.087v5.247c0,1.153,0.95,2.086,2.123,2.086c1.171,0,2.121-0.934,2.121-2.086V3.817z M44.076,6.861
	v2.05c0,2.515-2.016,4.632-4.575,4.691c-2.635,0.062-4.798-2.028-4.798-4.605V6.861H15.407v2.041c0,2.515-2.014,4.632-4.573,4.69
	c-2.635,0.062-4.8-2.027-4.8-4.604V6.861H4.192c-1.793,0-3.247,1.428-3.247,3.19v34.82c0,1.762,1.453,3.191,3.247,3.191H45.81
	c1.792,0,3.245-1.429,3.245-3.191v-34.82c0-1.762-1.453-3.19-3.245-3.19H44.076L44.076,6.861z M41.139,43.47H8.861
	c-1.792,0-3.245-1.428-3.245-3.189V21.129c0-1.763,1.454-3.189,3.245-3.189h32.277c1.793,0,3.245,1.427,3.245,3.189V40.28
	C44.384,42.042,42.932,43.47,41.139,43.47z M23.234,39.94c4.939-8.702,8.369-13.175,13.05-17.191l-0.61-1.375
	c-5.677,3.472-8.73,6.087-13.354,11.243c-2.458-1.723-3.846-2.515-6.034-3.555l-1.869,1.699
	C18.156,34.168,20.19,36.417,23.234,39.94z"/>
</svg>
