<?xml version="1.0" encoding="utf-8"?>
<!-- Generator: Adobe Illustrator 16.0.0, SVG Export Plug-In . SVG Version: 6.00 Build 0)  -->
<!DOCTYPE svg PUBLIC "-//W3C//DTD SVG 1.1//EN" "http://www.w3.org/Graphics/SVG/1.1/DTD/svg11.dtd">
<svg version="1.1" id="Layer_1" xmlns="http://www.w3.org/2000/svg" xmlns:xlink="http://www.w3.org/1999/xlink" x="0px" y="0px"
	 width="50px" height="50px" viewBox="0 0 50 50" enable-background="new 0 0 50 50" xml:space="preserve">
<path fill="#00947D" d="M0.616,13.607l-0.027-0.064c-0.722-1.69,0.473-3.589,2.258-3.589h29.074c1.667,0,2.856,1.675,2.357,3.322
	l-0.021,0.065c-0.325,1.065-1.278,1.79-2.356,1.79H2.875C1.897,15.13,1.012,14.533,0.616,13.607z M4.603,23.208L4.603,23.208
	c0.396,0.925,1.281,1.522,2.259,1.522h22.224c1.079,0,2.032-0.724,2.356-1.789l0,0c0.5-1.647-0.689-3.323-2.356-3.323H6.861
	C5.077,19.617,3.881,21.517,4.603,23.208z M40.988,6.759l-6.313,20.776c-0.323,1.064-1.278,1.79-2.355,1.79H10.978
	c-1.784,0-2.979,1.896-2.259,3.587l0.027,0.064c0.395,0.927,1.281,1.525,2.26,1.525h24.971c1.077,0,2.032-0.725,2.354-1.789
	l6.312-20.777c0.325-1.064,1.278-1.789,2.357-1.789h0.131c1.073,0,2.026-0.72,2.353-1.78l0.021-0.065
	c0.506-1.649-0.683-3.332-2.355-3.332h-3.807C42.266,4.97,41.311,5.694,40.988,6.759z M29.035,37.068
	c-1.856,0-3.362,1.559-3.362,3.482c0,1.92,1.506,3.479,3.362,3.479c1.857,0,3.362-1.56,3.362-3.479
	C32.397,38.627,30.891,37.068,29.035,37.068z M17.921,37.068c-1.856,0-3.362,1.559-3.362,3.482c0,1.92,1.506,3.479,3.362,3.479
	c1.857,0,3.363-1.56,3.363-3.479C21.284,38.627,19.778,37.068,17.921,37.068z"/>
</svg>
