<?xml version="1.0" encoding="utf-8"?>
<!-- Generator: Adobe Illustrator 16.0.0, SVG Export Plug-In . SVG Version: 6.00 Build 0)  -->
<!DOCTYPE svg PUBLIC "-//W3C//DTD SVG 1.1//EN" "http://www.w3.org/Graphics/SVG/1.1/DTD/svg11.dtd">
<svg version="1.1" id="Layer_1" xmlns="http://www.w3.org/2000/svg" xmlns:xlink="http://www.w3.org/1999/xlink" x="0px" y="0px"
	 width="50px" height="50px" viewBox="0 0 50 50" enable-background="new 0 0 50 50" xml:space="preserve">
<path fill="#5AC9E6" d="M21.696,27.094v-9.941c0-1.118,0.904-2.022,2.026-2.022l0,0c1.118,0,2.022,0.905,2.022,2.022v7.914h6.661
	c1.118,0,2.022,0.909,2.022,2.027l0,0c0,1.117-0.904,2.022-2.022,2.022h-8.684C22.601,29.116,21.696,28.211,21.696,27.094z
	 M39.948,38.864c3.3-3.607,5.314-8.405,5.322-13.675c0.017-11.177-9.105-20.332-20.295-20.353
	C13.732,4.816,4.606,13.922,4.606,25.157c0,5.281,2.019,10.092,5.322,13.707c-1.052,2.62-2.452,6.092-3.353,8.336
	c0.065,0.827,0.835,1.098,1.335,0.762c2.071-1.384,5.146-3.439,7.365-4.922c2.874,1.552,6.166,2.433,9.662,2.433
	c3.497,0,6.788-0.881,9.662-2.433l7.583,5.069l0,0c0.827,0.102,1.245-0.59,1.02-1.15L39.948,38.864z M24.938,40.416
	c-8.438,0-15.268-6.825-15.268-15.259c0-8.435,6.83-15.26,15.268-15.26c8.442,0,15.271,6.823,15.271,15.26
	C40.21,33.591,33.381,40.416,24.938,40.416z M15.812,3.292c-1.425-0.848-3.095-1.325-4.88-1.29C6.011,2.092,1.99,6.09,1.884,11.007
	c-0.041,1.773,0.418,3.433,1.249,4.852C5.561,10.203,10.126,5.672,15.812,3.292z M46.745,15.859
	c0.826-1.419,1.293-3.079,1.252-4.852c-0.11-4.917-4.131-8.915-9.048-9.005c-1.785-0.035-3.46,0.442-4.885,1.29
	C39.752,5.67,44.321,10.203,46.745,15.859z"/>
</svg>
