<?xml version="1.0" encoding="utf-8"?>
<!-- Generator: Adobe Illustrator 16.0.0, SVG Export Plug-In . SVG Version: 6.00 Build 0)  -->
<!DOCTYPE svg PUBLIC "-//W3C//DTD SVG 1.1//EN" "http://www.w3.org/Graphics/SVG/1.1/DTD/svg11.dtd">
<svg version="1.1" id="Layer_1" xmlns="http://www.w3.org/2000/svg" xmlns:xlink="http://www.w3.org/1999/xlink" x="0px" y="0px"
	 width="50px" height="50px" viewBox="0 0 50 50" enable-background="new 0 0 50 50" xml:space="preserve">
<g>
	<g>
		<path fill="#3C55A5" d="M33.866,14.736c1.336-0.716,2.815-1.203,4.383-1.435l-7.683-7.476c-0.403-0.393-0.934-0.589-1.465-0.589
			c-1.244,0-2.069,0.998-2.069,2.035c0,0.494,0.185,0.997,0.605,1.405L33.866,14.736z M22.362,8.676
			c0.42-0.408,0.606-0.911,0.606-1.405c0-1.037-0.827-2.035-2.071-2.035c-0.531,0-1.062,0.197-1.464,0.589l-9.548,9.293h5.855
			L22.362,8.676z M49.051,23.586c-0.801-2.974-3.267-5.379-6.32-6.17c-6.955-1.796-13.139,4.201-11.313,10.975
			c0.801,2.974,3.267,5.38,6.32,6.168C44.69,36.356,50.876,30.358,49.051,23.586z M45.244,23.948l-5.123,4.987l-0.868,0.844
			c-0.023,0.026-0.033,0.062-0.06,0.087c-0.264,0.256-0.611,0.379-0.958,0.375c-0.163,0.002-0.325-0.033-0.479-0.092
			c-0.034-0.015-0.063-0.041-0.099-0.058c-0.099-0.048-0.2-0.094-0.289-0.168c-0.028-0.023-0.063-0.031-0.091-0.058
			c-0.026-0.025-0.035-0.059-0.06-0.087l-0.953-0.927l-1.041-1.016c-0.52-0.504-0.52-1.33,0-1.833c0.518-0.505,1.366-0.505,1.884,0
			l1.129,1.096l5.124-4.984c0.518-0.504,1.366-0.504,1.884,0C45.764,22.618,45.764,23.443,45.244,23.948z M27.032,25.988
			c0-2.549,0.771-4.92,2.088-6.917H0.626v3.953h1.305c1.087,0,2.076,0.601,2.552,1.549l8.331,20.191h24.373l2.458-5.957
			C32.629,38.504,27.032,32.891,27.032,25.988z"/>
	</g>
</g>
</svg>
