<?xml version="1.0" encoding="utf-8"?>
<!-- Generator: Adobe Illustrator 16.0.0, SVG Export Plug-In . SVG Version: 6.00 Build 0)  -->
<!DOCTYPE svg PUBLIC "-//W3C//DTD SVG 1.1//EN" "http://www.w3.org/Graphics/SVG/1.1/DTD/svg11.dtd">
<svg version="1.1" id="Layer_1" xmlns="http://www.w3.org/2000/svg" xmlns:xlink="http://www.w3.org/1999/xlink" x="0px" y="0px"
	 width="50px" height="50px" viewBox="0 0 50 50" enable-background="new 0 0 50 50" xml:space="preserve">
<path fill="#00A9A7" d="M5.619,44.309h5.811v4.992H0.607V38.473h5.012V44.309z M0.607,18.906h5.012v-5.741h5.811V8.174H0.607V18.906
	z M25.034,8.174H16.44v4.992h3.579L25.034,8.174z M5.619,23.898H0.607v9.582h5.012V23.898z M36.884,29.938v3.543h5.012v-8.533
	L36.884,29.938z M16.44,49.301h9.621v-4.992H16.44V49.301L16.44,49.301z M36.884,44.309h-5.812v4.992h10.823V38.473h-5.012V44.309
	L36.884,44.309z M15.91,33.805l12.536-2.824l-9.473-9.434L15.91,33.805z M37.614,2.711L21.648,18.605l9.763,9.719l15.959-15.89
	c2.697-2.684,2.697-7.039,0-9.723l0,0C44.676,0.029,40.31,0.029,37.614,2.711z"/>
</svg>
