<?xml version="1.0" encoding="utf-8"?>
<!-- Generator: Adobe Illustrator 16.0.0, SVG Export Plug-In . SVG Version: 6.00 Build 0)  -->
<!DOCTYPE svg PUBLIC "-//W3C//DTD SVG 1.1//EN" "http://www.w3.org/Graphics/SVG/1.1/DTD/svg11.dtd">
<svg version="1.1" id="Layer_1" xmlns="http://www.w3.org/2000/svg" xmlns:xlink="http://www.w3.org/1999/xlink" x="0px" y="0px"
	 width="50px" height="50px" viewBox="0 0 50 50" enable-background="new 0 0 50 50" xml:space="preserve">
<path fill="#3E459C" d="M15.367,17.257H9.633c-0.912,0-1.37-1.087-0.725-1.725L24.275,0.347c0.401-0.396,1.05-0.396,1.449,0
	l15.369,15.186c0.643,0.637,0.187,1.725-0.725,1.725h-5.734V35.8c0,1.99-1.635,3.604-3.653,3.604H19.019
	c-2.017,0-3.651-1.613-3.651-3.604V17.257z M39.761,38.937v1.853c0,1.688-1.383,3.054-3.094,3.054H13.333
	c-1.709,0-3.095-1.367-3.095-3.054v-1.853c0-1.687-1.387-3.053-3.096-3.053l0,0c-1.709,0-3.096,1.367-3.096,3.053v7.96
	c0,1.687,1.387,3.053,3.096,3.053h35.715c1.708,0,3.096-1.367,3.096-3.053v-7.96c0-1.687-1.388-3.053-3.096-3.053l0,0
	C41.148,35.884,39.761,37.25,39.761,38.937z"/>
</svg>
