<?xml version="1.0" encoding="utf-8"?>
<!DOCTYPE svg PUBLIC "-//W3C//DTD SVG 1.1//EN" "http://www.w3.org/Graphics/SVG/1.1/DTD/svg11.dtd">
<svg version="1.1" id="Layer_1" xmlns="http://www.w3.org/2000/svg" xmlns:xlink="http://www.w3.org/1999/xlink" x="0px" y="0px"
	 width="50px" height="50px" viewBox="0 0 50 50" enable-background="new 0 0 50 50" xml:space="preserve">
<path fill="#FFFFFF" d="M24.502,4C12.354,4,1.5,12.068,1.5,23.104c0,3.914,1.415,7.756,3.923,10.739
	C5.528,37.338,3.463,42.35,1.603,46c4.987-0.897,12.078-2.879,15.292-4.841c2.718,0.658,5.32,0.961,7.78,0.961
	c13.58,0,22.83-9.235,22.83-19.016C47.504,12.008,36.576,4,24.502,4z M24.502,7.818c10.569,0,19.168,6.857,19.168,15.286
	c0,9.388-9.861,15.199-18.997,15.199c-3.712,0-6.484-0.76-8.421-1.229c-1.917,1.17-3.057,1.98-8.19,3.475
	c1.026-2.622,1.385-5.247,1.153-8.143c-1.606-1.909-3.882-4.583-3.882-9.301C5.334,14.675,13.934,7.818,24.502,7.818z
	 M24.502,13.068c1.323,0,2.396,1.068,2.396,2.386s-1.073,2.386-2.396,2.386c-1.324,0-2.396-1.068-2.396-2.386
	S23.179,13.068,24.502,13.068z M26.42,32.637h-3.834V21.182h3.834V32.637z"/>
</svg>
