<?xml version="1.0" encoding="utf-8"?>
<!-- Generator: Adobe Illustrator 16.0.0, SVG Export Plug-In . SVG Version: 6.00 Build 0)  -->
<!DOCTYPE svg PUBLIC "-//W3C//DTD SVG 1.1//EN" "http://www.w3.org/Graphics/SVG/1.1/DTD/svg11.dtd">
<svg version="1.1" id="Layer_1" xmlns="http://www.w3.org/2000/svg" xmlns:xlink="http://www.w3.org/1999/xlink" x="0px" y="0px"
	 width="50px" height="50px" viewBox="0 0 50 50" enable-background="new 0 0 50 50" xml:space="preserve">
<g>
	<defs>
		<rect id="SVGID_1_" x="1.667" y="1.667" width="46.667" height="46.667"/>
	</defs>
	<clipPath id="SVGID_2_">
		<use xlink:href="#SVGID_1_"  overflow="visible"/>
	</clipPath>
	<path clip-path="url(#SVGID_2_)" fill="#010101" d="M13.699,18.621c0.854-0.854,1.8-1.559,2.808-2.114
		c5.613-3.094,12.812-1.449,16.422,4.022l-4.367,4.368c-1.249-2.858-4.361-4.482-7.454-3.79c-1.165,0.261-2.271,0.84-3.178,1.746
		l-8.369,8.37c-2.542,2.54-2.542,6.678,0,9.218s6.675,2.54,9.216,0l2.581-2.581c2.345,0.93,4.864,1.304,7.346,1.12l-5.695,5.692
		c-4.883,4.883-12.799,4.883-17.682,0c-4.882-4.882-4.882-12.801,0-17.68L13.699,18.621z M26.992,5.328l-5.695,5.696
		c2.482-0.184,5,0.187,7.347,1.115l2.579-2.578c2.54-2.541,6.676-2.541,9.219,0c2.539,2.541,2.539,6.675,0,9.217l-8.371,8.369
		c-2.55,2.549-6.69,2.528-9.217,0c-0.589-0.591-1.098-1.323-1.414-2.044l-4.368,4.367c0.459,0.693,0.936,1.296,1.549,1.909
		c1.58,1.58,3.59,2.757,5.902,3.314c3,0.723,6.213,0.321,8.972-1.199c1.004-0.557,1.952-1.261,2.806-2.115l8.371-8.371
		c4.883-4.883,4.883-12.799,0.002-17.681C39.79,0.445,31.873,0.445,26.992,5.328"/>
</g>
</svg>
