<?xml version="1.0" encoding="utf-8"?>
<!-- Generator: Adobe Illustrator 16.0.0, SVG Export Plug-In . SVG Version: 6.00 Build 0)  -->
<!DOCTYPE svg PUBLIC "-//W3C//DTD SVG 1.1//EN" "http://www.w3.org/Graphics/SVG/1.1/DTD/svg11.dtd">
<svg version="1.1" id="Layer_1" xmlns="http://www.w3.org/2000/svg" xmlns:xlink="http://www.w3.org/1999/xlink" x="0px" y="0px"
	 width="50px" height="50px" viewBox="0 0 50 50" enable-background="new 0 0 50 50" xml:space="preserve">
<g>
	<defs>
		<rect id="SVGID_5_" y="7.238" width="50" height="37.473"/>
	</defs>
	<clipPath id="SVGID_2_">
		<use xlink:href="#SVGID_5_"  overflow="visible"/>
	</clipPath>
	<path clip-path="url(#SVGID_2_)" fill="#010101" d="M50,8.956v33.953c0,1.425-1.637,2.231-2.767,1.362L38.948,37.9
		c-0.424-0.325-0.672-0.829-0.672-1.363V8.956c0-0.949,0.77-1.718,1.718-1.718h8.286C49.23,7.238,50,8.007,50,8.956 M15.34,19.854
		c0.751,0.656,0.788,1.813,0.078,2.515l-4.18,4.14c-0.676,0.668-1.229,1.448-1.639,2.306L7.241,33.77
		c-0.356,0.749-1.11,1.226-1.939,1.227l-3.586,0.003C0.768,35,0,35.769,0,36.718v0.555c0,0.95,0.77,1.719,1.718,1.719l5.342-0.001
		c0.905,0,1.77-0.378,2.384-1.044l2.461-2.669c1.512-1.64,4.998,0.321,5.029,2.624v5.092c0,0.949,0.77,1.718,1.719,1.718h0.671
		c0.95,0,1.719-0.77,1.719-1.718v-5.624c0-1.044-0.056-1.826-0.782-2.971l-1.501-2.138c-0.466-0.662-0.405-1.559,0.144-2.153
		l1.9-2.061c0.731-0.791,2.001-0.724,2.644,0.141l1.366,1.839c0.491,0.68,1.074,1.075,2.208,1.075h4.125
		c0.949,0,1.718-0.77,1.718-1.718c0-0.95-0.769-1.719-1.718-1.719h-2.526c-0.93,0-1.323-0.584-1.603-0.999
		c-1.529-2.26-2.51-3.771-3.466-4.639l-6.03-5.565c-0.878-0.811-1.885-1.192-3.06-0.967l-4.537,0.865
		c-0.947,0.181-1.561,1.105-1.358,2.047l0.003,0.013c0.192,0.904,1.066,1.494,1.977,1.333l2.935-0.514
		c0.609-0.106,1.232,0.068,1.698,0.474L15.34,19.854z M26.65,20.809c-2.136,0.409-4.198-0.992-4.607-3.127
		c-0.408-2.136,0.992-4.199,3.128-4.607c2.136-0.409,4.198,0.992,4.607,3.127C30.187,18.338,28.786,20.4,26.65,20.809"/>
</g>
</svg>
