<?xml version="1.0" encoding="utf-8"?>
<!-- Generator: Adobe Illustrator 16.0.0, SVG Export Plug-In . SVG Version: 6.00 Build 0)  -->
<!DOCTYPE svg PUBLIC "-//W3C//DTD SVG 1.1//EN" "http://www.w3.org/Graphics/SVG/1.1/DTD/svg11.dtd">
<svg version="1.1" id="Layer_1" xmlns="http://www.w3.org/2000/svg" xmlns:xlink="http://www.w3.org/1999/xlink" x="0px" y="0px"
	 width="50px" height="50px" viewBox="0 0 50 50" enable-background="new 0 0 50 50" xml:space="preserve">
<g>
	<g>
		<path fill="#59C9E7" d="M38.65,24.896c-5.138,0-9.302,4.172-9.302,9.32c0,5.146,4.165,9.319,9.302,9.319s9.302-4.172,9.302-9.319
			C47.952,29.068,43.788,24.896,38.65,24.896z M42.728,36.057l-3.446,4.807c0,0-0.001,0.001-0.002,0.002
			c-0.016,0.022-0.033,0.043-0.052,0.064c-0.004,0.005-0.009,0.01-0.015,0.015c-0.019,0.02-0.038,0.039-0.058,0.057
			c-0.001,0.001-0.003,0.002-0.005,0.004c-0.019,0.016-0.04,0.031-0.06,0.045c-0.006,0.004-0.012,0.008-0.019,0.012
			c-0.021,0.015-0.045,0.028-0.069,0.041c-0.002,0-0.003,0.001-0.004,0.002c-0.022,0.011-0.046,0.021-0.069,0.03
			c-0.007,0.003-0.014,0.006-0.021,0.008c-0.007,0.002-0.013,0.004-0.019,0.007c-0.018,0.006-0.036,0.011-0.052,0.015
			c-0.002,0-0.004,0.001-0.006,0.001c-0.026,0.006-0.053,0.011-0.079,0.014c-0.006,0.001-0.013,0.001-0.019,0.002
			c-0.027,0.002-0.054,0.005-0.082,0.005c-0.028,0-0.055-0.003-0.081-0.005c-0.007-0.001-0.013-0.001-0.02-0.002
			c-0.027-0.003-0.054-0.008-0.079-0.014c-0.003,0-0.004-0.001-0.006-0.001c-0.018-0.004-0.034-0.009-0.052-0.015
			c-0.007-0.002-0.013-0.005-0.019-0.007c-0.008-0.002-0.015-0.005-0.022-0.008c-0.023-0.008-0.047-0.019-0.069-0.03
			c-0.001-0.001-0.003-0.002-0.006-0.002c-0.023-0.012-0.046-0.025-0.068-0.041c-0.006-0.004-0.012-0.007-0.018-0.012
			c-0.021-0.014-0.041-0.029-0.061-0.046c-0.001-0.001-0.003-0.002-0.005-0.003c-0.021-0.018-0.04-0.037-0.059-0.057
			c-0.004-0.005-0.009-0.01-0.013-0.015c-0.019-0.021-0.036-0.042-0.052-0.064c0-0.001-0.001-0.002-0.002-0.002l-3.446-4.807
			c-0.251-0.349-0.171-0.835,0.177-1.086c0.349-0.251,0.834-0.171,1.084,0.178l2.039,2.842v-9.97c0-0.43,0.348-0.778,0.777-0.778
			s0.777,0.348,0.777,0.778v9.97l2.038-2.842c0.25-0.349,0.736-0.428,1.084-0.178C42.899,35.221,42.978,35.708,42.728,36.057z
			 M27.701,31.105c0.144,0,0.285-0.002,0.426-0.005c0.329-1.11,0.827-2.147,1.466-3.081c-0.616,0.066-1.25,0.101-1.892,0.101
			c-2.354,0-4.585-0.455-6.284-1.281c-0.566-0.276-1.06-0.585-1.477-0.927c-0.157-0.128-0.392-0.021-0.392,0.183v1.045
			C19.548,29.329,23.198,31.105,27.701,31.105z M27.701,36.468c-2.354,0-4.585-0.455-6.284-1.281
			c-0.566-0.275-1.06-0.585-1.477-0.927c-0.157-0.128-0.392-0.021-0.392,0.183v1.072c0,2.191,3.65,3.965,8.153,3.965
			c0.44,0,0.873-0.016,1.294-0.05c-0.496-0.917-0.866-1.914-1.085-2.965C27.84,36.466,27.771,36.468,27.701,36.468z M17.395,25.912
			c-0.417,0.342-0.911,0.651-1.478,0.927c-1.698,0.826-3.93,1.281-6.284,1.281c-2.354,0-4.585-0.455-6.284-1.281
			c-0.566-0.276-1.061-0.585-1.478-0.928c-0.156-0.127-0.391-0.02-0.391,0.183v1.045c0,2.19,3.65,3.966,8.153,3.966
			s8.153-1.776,8.153-3.966v-1.045C17.787,25.891,17.551,25.784,17.395,25.912z M17.395,30.085
			c-0.417,0.342-0.911,0.652-1.478,0.928c-1.698,0.826-3.93,1.281-6.284,1.281c-2.354,0-4.585-0.455-6.284-1.281
			c-0.566-0.275-1.061-0.586-1.478-0.928c-0.157-0.128-0.391-0.02-0.391,0.183v1.044c0,2.19,3.65,3.966,8.153,3.966
			s8.153-1.776,8.153-3.966v-1.044C17.787,30.065,17.551,29.957,17.395,30.085z M9.633,18.998c-4.503,0-8.153,1.776-8.153,3.966
			c0,2.191,3.65,3.966,8.153,3.966s8.153-1.775,8.153-3.966C17.787,20.774,14.136,18.998,9.633,18.998z M27.701,26.926
			c1.059,0,2.07-0.098,2.998-0.277c1.356-1.43,3.092-2.495,5.044-3.032c0.073-0.214,0.112-0.434,0.112-0.657v-1.045
			c0-0.203-0.234-0.311-0.392-0.182c-0.417,0.341-0.911,0.651-1.478,0.927c-1.699,0.827-3.93,1.282-6.284,1.282
			s-4.585-0.455-6.284-1.282c-0.566-0.275-1.06-0.586-1.477-0.927c-0.157-0.128-0.392-0.021-0.392,0.182v1.045
			C19.548,25.15,23.198,26.926,27.701,26.926z M27.701,18.573c4.504,0,8.153-1.775,8.153-3.967v-1.043
			c0-0.203-0.234-0.312-0.392-0.183c-0.417,0.341-0.911,0.651-1.478,0.926c-1.699,0.827-3.93,1.282-6.284,1.282
			s-4.585-0.455-6.284-1.282c-0.566-0.275-1.06-0.585-1.477-0.926c-0.157-0.129-0.392-0.021-0.392,0.183v1.043
			C19.548,16.798,23.198,18.573,27.701,18.573z M17.395,34.26c-0.417,0.342-0.911,0.652-1.478,0.927
			c-1.698,0.826-3.93,1.281-6.284,1.281c-2.354,0-4.585-0.455-6.284-1.281c-0.566-0.275-1.061-0.585-1.478-0.927
			c-0.157-0.128-0.391-0.021-0.391,0.183v1.072c0,2.191,3.65,3.965,8.153,3.965s8.153-1.774,8.153-3.965v-1.072
			C17.787,34.239,17.551,34.131,17.395,34.26z M27.701,14.399c4.504,0,8.153-1.776,8.153-3.967c0-2.19-3.649-3.967-8.153-3.967
			c-4.503,0-8.153,1.777-8.153,3.967C19.548,12.623,23.198,14.399,27.701,14.399z M27.701,22.748c4.504,0,8.153-1.777,8.153-3.967
			v-1.044c0-0.203-0.234-0.311-0.392-0.183c-0.417,0.342-0.911,0.651-1.478,0.928c-1.699,0.825-3.93,1.28-6.284,1.28
			s-4.585-0.455-6.284-1.28c-0.566-0.276-1.06-0.586-1.477-0.928c-0.157-0.128-0.392-0.021-0.392,0.183v1.044
			C19.548,20.971,23.198,22.748,27.701,22.748z M27.701,35.279h0.029c-0.034-0.35-0.052-0.705-0.052-1.063
			c0-0.656,0.059-1.299,0.169-1.922c-0.048,0-0.098,0.001-0.146,0.001c-2.354,0-4.585-0.455-6.284-1.281
			c-0.566-0.275-1.06-0.586-1.477-0.928c-0.157-0.128-0.392-0.02-0.392,0.183v1.044C19.548,33.502,23.198,35.279,27.701,35.279z"/>
	</g>
</g>
</svg>
