<?xml version="1.0" encoding="utf-8"?>
<!-- Generator: Adobe Illustrator 16.0.0, SVG Export Plug-In . SVG Version: 6.00 Build 0)  -->
<!DOCTYPE svg PUBLIC "-//W3C//DTD SVG 1.1//EN" "http://www.w3.org/Graphics/SVG/1.1/DTD/svg11.dtd">
<svg version="1.1" id="Layer_1" xmlns="http://www.w3.org/2000/svg" xmlns:xlink="http://www.w3.org/1999/xlink" x="0px" y="0px"
	 width="50px" height="50px" viewBox="0 0 50 50" enable-background="new 0 0 50 50" xml:space="preserve">
<path fill="#5AC9E6" d="M14.305,20.987L3.021,12.723c-0.66-0.484-1.616-0.034-1.616,0.759v19.024c0,0.851,1.082,1.279,1.714,0.676
	l11.284-10.758C14.832,22.015,14.786,21.339,14.305,20.987z M45.513,6.839H4.523c-0.959,0-1.373,1.159-0.611,1.716L24.39,23.554
	c0.36,0.264,0.862,0.264,1.223,0L46.125,8.556C46.886,8,46.472,6.839,45.513,6.839z M30.871,24.526l-5.26,3.847
	c-0.361,0.264-0.862,0.264-1.223,0l-5.271-3.862c-0.4-0.293-0.965-0.258-1.321,0.083L3.177,38.532
	c-0.633,0.603-0.184,1.636,0.709,1.636h42.198c0.895,0,1.343-1.033,0.71-1.636L32.191,24.609
	C31.836,24.27,31.271,24.235,30.871,24.526z M35.588,22.441l11.293,10.768c0.632,0.604,1.713,0.176,1.713-0.677V13.506
	c0-0.794-0.954-1.243-1.616-0.759l-11.293,8.257C35.206,21.357,35.158,22.032,35.588,22.441z"/>
</svg>
