<?xml version="1.0" encoding="utf-8"?>
<!-- Generator: Adobe Illustrator 16.0.0, SVG Export Plug-In . SVG Version: 6.00 Build 0)  -->
<!DOCTYPE svg PUBLIC "-//W3C//DTD SVG 1.1//EN" "http://www.w3.org/Graphics/SVG/1.1/DTD/svg11.dtd">
<svg version="1.1" id="Layer_1" xmlns="http://www.w3.org/2000/svg" xmlns:xlink="http://www.w3.org/1999/xlink" x="0px" y="0px"
	 width="50px" height="50px" viewBox="0 0 50 50" enable-background="new 0 0 50 50" xml:space="preserve">
<path fill="#5AC9E6" d="M47.986,35.547c-12.694,6.092-23.296-2.324-36.386,9.509c-0.899,0.814-2.339,0.53-2.844-0.569L1.15,27.845
	c-0.304-0.662-0.167-1.438,0.34-1.961L1.67,25.7c0.878-0.906,2.405-0.647,2.929,0.497l6.656,14.508l-0.004,0.017
	c14.569-10.811,22.187-3.023,35.257-8.448c0.91-0.378,1.961,0.047,2.346,0.946c0.005,0.012,0.009,0.024,0.016,0.035
	C49.24,34.129,48.85,35.132,47.986,35.547z M24.428,15.894c-3.142,0.518-4.649,3.344-3.363,6.314
	c1.354,3.134,5.25,5.139,8.452,4.348c2.842-0.699,4.149-3.397,2.926-6.225C31.158,17.361,27.568,15.375,24.428,15.894z
	 M28.517,23.944l0.297,0.688l-1.042,0.173l-0.268-0.618c-0.519,0.043-1.254-0.019-1.853-0.192l-0.147-1.194
	c0.592,0.105,1.545,0.241,2.101,0.014c0.473-0.192,0.412-0.656-0.308-0.805c-0.613-0.136-2.493-0.07-3.104-1.479
	c-0.252-0.583-0.137-1.462,0.91-1.89l-0.302-0.7l1.043-0.172l0.278,0.642c0.459-0.045,0.95-0.042,1.544,0.028
	c0.041,0.226,0.223,1.208,0.223,1.208c-0.414-0.057-1.099-0.164-1.656-0.039c-0.008,0.002-0.019,0.004-0.027,0.007
	c-0.656,0.161-0.491,0.643,0.072,0.789c1.156,0.255,2.723,0.377,3.261,1.621C29.955,22.987,29.399,23.665,28.517,23.944z
	 M38.709,8.579C25.63,15.694,16.287,7.468,5.462,16.681c-0.688,0.585-0.905,1.546-0.529,2.362c2.229,4.83,5.06,10.961,6.86,14.864
	c0.511,1.106,1.885,1.504,2.93,0.864c10.948-6.712,21.051,0.396,33.172-7.011c0.871-0.531,1.213-1.616,0.795-2.538L41.544,9.513
	C41.057,8.441,39.749,8.013,38.709,8.579z M18.273,29.611c-1.495-1.292-4.412-2.934-6.365-2.705
	c-0.784-1.696-1.519-3.243-2.265-4.86c1.302-1.302,2.31-3.918,2.392-5.974c6.858-2.561,14.764,0.037,23.249-2.602
	c1.525,1.388,3.903,2.402,5.933,2.509l2.521,5.754c-1.324,1.53-2.227,3.513-2.517,5.515C34.053,29.427,25.932,27.019,18.273,29.611z
	"/>
</svg>
