<?xml version="1.0" encoding="utf-8"?>
<!-- Generator: Adobe Illustrator 16.0.0, SVG Export Plug-In . SVG Version: 6.00 Build 0)  -->
<!DOCTYPE svg PUBLIC "-//W3C//DTD SVG 1.1//EN" "http://www.w3.org/Graphics/SVG/1.1/DTD/svg11.dtd">
<svg version="1.1" id="Layer_1" xmlns="http://www.w3.org/2000/svg" xmlns:xlink="http://www.w3.org/1999/xlink" x="0px" y="0px"
	 width="50px" height="50px" viewBox="0 0 50 50" enable-background="new 0 0 50 50" xml:space="preserve">
<path fill="#2F2A7B" d="M4.954,21.776v24.129c0,0.622,0.508,1.124,1.137,1.124h37.803c0.629,0,1.138-0.502,1.138-1.124V21.776
	c0-0.621-0.508-1.125-1.138-1.125H6.091C5.461,20.651,4.954,21.155,4.954,21.776z M39.938,39.115H10.047
	c-0.616,0-1.117-0.494-1.117-1.103v-12.33c0-0.61,0.5-1.104,1.117-1.104h29.892c0.618,0,1.116,0.494,1.116,1.104v12.33
	C41.054,38.622,40.557,39.115,39.938,39.115z M18.756,2.971c1.132,0,1.979,1.03,1.748,2.124l-1.573,7.454h-0.009v1.857
	c0,2.187-1.812,3.948-4.02,3.804c-1.963-0.128-3.517-1.743-3.517-3.713v-0.695c0-0.819,0.226-1.624,0.648-2.328l4.609-7.641
	c0.322-0.534,0.906-0.862,1.535-0.862H18.756z M13.352,5.652l-3.58,5.81c-0.438,0.711-0.669,1.529-0.669,2.362v0.583
	c0,2.185-1.81,3.948-4.018,3.804c-1.965-0.128-3.517-1.741-3.517-3.713v-0.09c0-1.19,0.473-2.333,1.315-3.183l7.667-7.723
	c0.335-0.339,0.796-0.53,1.274-0.53l0,0C13.217,2.971,14.075,4.477,13.352,5.652z M48.379,14.406L48.379,14.406
	c0,2.185-1.812,3.948-4.018,3.804c-1.965-0.128-3.517-1.741-3.517-3.713v-0.673c0-0.833-0.231-1.651-0.672-2.362l-3.577-5.81
	c-0.723-1.175,0.135-2.681,1.527-2.681l0,0c0.479,0,0.939,0.19,1.274,0.53l7.667,7.723C47.906,12.073,48.379,13.216,48.379,14.406z
	 M28.733,12.549h0.008v1.857c0,2.185-1.81,3.948-4.017,3.804c-1.966-0.128-3.517-1.741-3.517-3.713v-1.947h0.008l1.619-8.153
	c0.164-0.828,0.898-1.425,1.753-1.425h0.774c0.855,0,1.589,0.597,1.753,1.425L28.733,12.549z M33.304,3.833l4.606,7.641
	c0.425,0.704,0.648,1.509,0.648,2.328v0.604c0,2.187-1.81,3.948-4.018,3.804c-1.963-0.128-3.517-1.743-3.517-3.713v-1.947h-0.009
	l-1.573-7.454c-0.231-1.094,0.613-2.124,1.748-2.124h0.578C32.398,2.971,32.982,3.299,33.304,3.833z"/>
</svg>
