<?xml version="1.0" encoding="utf-8"?>
<!-- Generator: Adobe Illustrator 16.0.0, SVG Export Plug-In . SVG Version: 6.00 Build 0)  -->
<!DOCTYPE svg PUBLIC "-//W3C//DTD SVG 1.1//EN" "http://www.w3.org/Graphics/SVG/1.1/DTD/svg11.dtd">
<svg version="1.1" id="Layer_1" xmlns="http://www.w3.org/2000/svg" xmlns:xlink="http://www.w3.org/1999/xlink" x="0px" y="0px"
	 width="50px" height="50px" viewBox="0 0 50 50" enable-background="new 0 0 50 50" xml:space="preserve">
<g>
	<g>
		<path fill="#48499E" d="M26.494,27.506c-0.981,1.084-1.914,2.215-2.828,3.275c-1.696-1.683-3.036-3.014-4.696-4.662
			c1.083-0.953,2.2-1.903,3.276-2.896c0.93-0.855,1.258-1.836,0.314-2.9c-0.83-0.935-1.912-0.888-3.012,0.246
			c-1.016,1.047-1.912,2.211-2.674,3.104c-1.701-0.577-2.085-2.857-3.887-1.616c-2.287,1.575-2.873,2.865-2.178,4.629
			c-1.35,1.337-2.672,2.778-4.138,4.054C5.34,31.9,4.776,33.118,5.324,34.894c0.321,1.04,0.354,2.18,0.421,3.284
			c0.025,0.418-0.088,0.977-0.36,1.258C3.963,40.907,2.469,42.311,1,43.734v0.953c1.372,1.375,2.742,2.749,4.114,4.127h0.949
			c0.491-0.538,1.058-1.023,1.46-1.619c2.042-3.028,4.753-3.757,8.133-2.595c0.998,0.343,1.902,0.075,2.675-0.811
			c1.52-1.741,3.146-3.392,4.641-4.984c2.681,1.558,3.358-0.811,4.443-1.831c1.898-1.784-0.947-2.383-1.225-3.827
			c0.962-0.945,1.997-1.918,2.979-2.944c1.074-1.119,1.141-2.212,0.214-3.034C28.315,26.225,27.338,26.574,26.494,27.506z
			 M48.464,6.266V5.314c-1.372-1.376-2.741-2.753-4.112-4.128h-0.95c-0.491,0.536-1.063,1.02-1.465,1.619
			C39.9,5.85,37.177,6.553,33.8,5.394c-1.011-0.347-1.9-0.035-2.673,0.826c-1.514,1.686-3.124,3.282-4.823,5.049
			c-1.291-1.37-2.133-0.542-2.97,0.368c-0.394,0.427-0.802,0.841-1.226,1.238c-0.869,0.808-0.882,1.555-0.013,2.418
			c4.118,4.095,8.201,8.226,12.322,12.316c0.337,0.334,0.901,0.668,1.331,0.642c1.604-0.104,3.54-3.346,2.871-4.999
			c1.418-1.372,2.836-2.87,4.395-4.208c1.235-1.063,1.586-2.205,1.153-3.772c-0.305-1.107-0.369-2.29-0.447-3.446
			c-0.026-0.416,0.096-0.974,0.366-1.254C45.506,9.099,47,7.694,48.464,6.266z"/>
	</g>
</g>
</svg>
