<?xml version="1.0" encoding="utf-8"?>
<!-- Generator: Adobe Illustrator 16.0.0, SVG Export Plug-In . SVG Version: 6.00 Build 0)  -->
<!DOCTYPE svg PUBLIC "-//W3C//DTD SVG 1.1//EN" "http://www.w3.org/Graphics/SVG/1.1/DTD/svg11.dtd">
<svg version="1.1" id="Layer_1" xmlns="http://www.w3.org/2000/svg" xmlns:xlink="http://www.w3.org/1999/xlink" x="0px" y="0px"
	 width="50px" height="50px" viewBox="0 0 50 50" enable-background="new 0 0 50 50" xml:space="preserve">
<path fill="#2C2D82" d="M48.104,21.328h-4.151C42.109,11.137,33.089,3.43,22.288,3.58C10.6,3.742,1.062,13.238,0.897,24.874
	c-0.146,10.58,7.345,19.444,17.334,21.475c2.255,0.458,4.364-1.252,4.364-3.541l0,0c0-1.708-1.199-3.195-2.882-3.536
	c-6.808-1.373-11.879-7.513-11.543-14.77c0.34-7.365,6.346-13.343,13.743-13.682c6.932-0.317,12.846,4.232,14.596,10.508h-3.563
	c-0.804,0-1.278,0.898-0.82,1.558l7.578,10.949c0.396,0.574,1.247,0.574,1.644,0l7.578-10.949
	C49.384,22.226,48.907,21.328,48.104,21.328z"/>
</svg>
