<?xml version="1.0" encoding="utf-8"?>
<!-- Generator: Adobe Illustrator 16.0.0, SVG Export Plug-In . SVG Version: 6.00 Build 0)  -->
<!DOCTYPE svg PUBLIC "-//W3C//DTD SVG 1.1//EN" "http://www.w3.org/Graphics/SVG/1.1/DTD/svg11.dtd">
<svg version="1.1" id="Layer_1" xmlns="http://www.w3.org/2000/svg" xmlns:xlink="http://www.w3.org/1999/xlink" x="0px" y="0px"
	 width="50px" height="50px" viewBox="0 0 50 50" enable-background="new 0 0 50 50" xml:space="preserve">
<path fill="#554FA1" d="M29.349,5.993h2.815c0.675,0,1.224,0.554,1.224,1.236v7.133c0,0.682-0.549,1.236-1.224,1.236h-2.815
	c-0.675,0-1.224-0.554-1.224-1.236V7.229C28.125,6.547,28.674,5.993,29.349,5.993z M39.531-0.48H1.234
	c-0.676,0-1.224,0.554-1.224,1.236v48.487c0,0.683,0.548,1.236,1.224,1.236h46.519c0.675,0,1.224-0.554,1.224-1.236V9.06
	c0-0.328-0.128-0.642-0.36-0.874l-8.219-8.304C40.168-0.35,39.859-0.48,39.531-0.48z M12.803,3.231h22.463
	c0.675,0,1.224,0.554,1.224,1.236v12.615c0,0.685-0.549,1.239-1.224,1.239H12.803c-0.676,0-1.224-0.554-1.224-1.239V4.467
	C11.579,3.785,12.126,3.231,12.803,3.231z M41.916,46.438H8.294c-0.678,0-1.225-0.554-1.225-1.236V27.927
	c0-0.683,0.547-1.236,1.225-1.236h32.397c0.678,0,1.224,0.554,1.224,1.236V46.438L41.916,46.438z M37.041,32.481H11.945
	c-0.676,0-1.224-0.554-1.224-1.236l0,0c0-0.683,0.547-1.236,1.224-1.236h25.096c0.675,0,1.224,0.554,1.224,1.236l0,0
	C38.265,31.928,37.716,32.481,37.041,32.481z M37.041,35.327H11.945c-0.676,0-1.224,0.554-1.224,1.236l0,0
	c0,0.685,0.547,1.235,1.224,1.235h25.096c0.675,0,1.224-0.551,1.224-1.235l0,0C38.265,35.881,37.716,35.327,37.041,35.327z
	 M37.041,40.645H11.945c-0.676,0-1.224,0.554-1.224,1.239l0,0c0,0.682,0.547,1.236,1.224,1.236h25.096
	c0.675,0,1.224-0.555,1.224-1.236l0,0C38.265,41.198,37.716,40.645,37.041,40.645z"/>
</svg>
