<?xml version="1.0" encoding="utf-8"?>
<!-- Generator: Adobe Illustrator 16.0.0, SVG Export Plug-In . SVG Version: 6.00 Build 0)  -->
<!DOCTYPE svg PUBLIC "-//W3C//DTD SVG 1.1//EN" "http://www.w3.org/Graphics/SVG/1.1/DTD/svg11.dtd">
<svg version="1.1" id="Layer_1" xmlns="http://www.w3.org/2000/svg" xmlns:xlink="http://www.w3.org/1999/xlink" x="0px" y="0px"
	 width="50px" height="50px" viewBox="0 0 50 50" enable-background="new 0 0 50 50" xml:space="preserve">
<path fill="#3953A4" d="M8.898,40.749H4.873c-1.113,0-2.013-0.937-2.013-2.098V34.45c0-1.16,0.899-2.098,2.013-2.098h4.025
	c1.113,0,2.013,0.938,2.013,2.098v4.201C10.911,39.812,10.012,40.749,8.898,40.749z M20.975,40.749h-4.025
	c-1.113,0-2.013-0.937-2.013-2.098V26.051c0-1.161,0.899-2.101,2.013-2.101h4.025c1.11,0,2.013,0.94,2.013,2.101v12.601
	C22.987,39.812,22.085,40.749,20.975,40.749z M33.051,40.749h-4.025c-1.113,0-2.013-0.937-2.013-2.098V15.55
	c0-1.161,0.899-2.101,2.013-2.101h4.025c1.113,0,2.013,0.94,2.013,2.101v23.102C35.063,39.812,34.164,40.749,33.051,40.749z
	 M45.127,40.749h-4.025c-1.113,0-2.013-0.937-2.013-2.098V2.948c0-1.16,0.899-2.101,2.013-2.101h4.025
	c1.113,0,2.013,0.94,2.013,2.101v35.703C47.14,39.812,46.24,40.749,45.127,40.749z M47.14,44.951H2.86
	c-1.113,0-2.013,0.943-2.013,2.101l0,0c0,1.16,0.899,2.101,2.013,2.101H47.14c1.113,0,2.013-0.94,2.013-2.101l0,0
	C49.152,45.895,48.253,44.951,47.14,44.951z"/>
</svg>
