<?xml version="1.0" encoding="utf-8"?>
<!-- Generator: Adobe Illustrator 16.0.0, SVG Export Plug-In . SVG Version: 6.00 Build 0)  -->
<!DOCTYPE svg PUBLIC "-//W3C//DTD SVG 1.1//EN" "http://www.w3.org/Graphics/SVG/1.1/DTD/svg11.dtd">
<svg version="1.1" id="Layer_1" xmlns="http://www.w3.org/2000/svg" xmlns:xlink="http://www.w3.org/1999/xlink" x="0px" y="0px"
	 width="50px" height="50px" viewBox="0 0 50 50" enable-background="new 0 0 50 50" xml:space="preserve">
<path fill="#37499E" d="M28.77,14.365V1.163c0-1.034-0.795-1.872-1.777-1.872H6.915c-0.981,0-1.777,0.837-1.777,1.872v47.674
	c0,1.034,0.795,1.872,1.777,1.872h36.171c0.981,0,1.777-0.837,1.777-1.872V18.108c0-1.034-0.795-1.872-1.777-1.872h-12.54
	C29.565,16.236,28.77,15.397,28.77,14.365z M23.223,41.887h-7.995c-0.981,0-1.777-0.839-1.777-1.873l0,0
	c0-1.034,0.795-1.872,1.777-1.872h7.995c0.981,0,1.777,0.837,1.777,1.872l0,0C25,41.048,24.205,41.887,23.223,41.887z M34.772,34.97
	H15.228c-0.981,0-1.777-0.838-1.777-1.872l0,0c0-1.034,0.795-1.873,1.777-1.873h19.544c0.981,0,1.777,0.839,1.777,1.873l0,0
	C36.549,34.132,35.753,34.97,34.772,34.97z M34.772,28.065H15.228c-0.981,0-1.777-0.838-1.777-1.872l0,0
	c0-1.034,0.795-1.873,1.777-1.873h19.544c0.981,0,1.777,0.839,1.777,1.873l0,0C36.549,27.227,35.753,28.065,34.772,28.065z
	 M40.528,11.87H34.69c-0.98,0-1.776-0.839-1.776-1.873v-6.15c0-1.667,1.913-2.502,3.032-1.323l5.838,6.149
	C42.903,9.854,42.111,11.87,40.528,11.87z"/>
</svg>
