<?xml version="1.0" encoding="utf-8"?>
<!-- Generator: Adobe Illustrator 16.0.0, SVG Export Plug-In . SVG Version: 6.00 Build 0)  -->
<!DOCTYPE svg PUBLIC "-//W3C//DTD SVG 1.1//EN" "http://www.w3.org/Graphics/SVG/1.1/DTD/svg11.dtd">
<svg version="1.1" id="Layer_1" xmlns="http://www.w3.org/2000/svg" xmlns:xlink="http://www.w3.org/1999/xlink" x="0px" y="0px"
	 width="50px" height="50px" viewBox="0 0 50 50" enable-background="new 0 0 50 50" xml:space="preserve">
<g>
	<defs>
		<rect id="SVGID_7_" x="1.25" y="1" width="47.5" height="47.5"/>
	</defs>
	<clipPath id="SVGID_2_">
		<use xlink:href="#SVGID_7_"  overflow="visible"/>
	</clipPath>
	<path clip-path="url(#SVGID_2_)" fill="#010101" d="M41.867,35.122l4.73,4.729c0.733,0.734,1.982,0.283,2.093-0.748
		c0.326-3.053-0.681-6.223-3.021-8.563c-2.23-2.231-5.215-3.25-8.134-3.057c-1.658,0.109-3.282-0.503-4.457-1.678l-9.134-9.134
		c-1.174-1.174-1.787-2.8-1.678-4.457c0.193-2.919-0.827-5.903-3.058-8.134c-2.341-2.34-5.509-3.347-8.562-3.021
		C9.615,1.17,9.164,2.419,9.898,3.153l4.729,4.729c0.282,0.282,0.414,0.685,0.343,1.078c-0.427,2.338-3.423,5.334-5.761,5.761
		c-0.393,0.072-0.795-0.06-1.077-0.343l-4.73-4.729C2.669,8.915,1.42,9.365,1.31,10.396C0.983,13.45,1.99,16.619,4.33,18.959
		c2.231,2.231,5.216,3.25,8.135,3.057c1.658-0.109,3.282,0.503,4.457,1.678l8.748,8.748c1.384,1.383,2.1,3.282,2.045,5.237
		c-0.08,2.792,0.945,5.608,3.076,7.739c2.341,2.34,5.509,3.347,8.562,3.021c1.032-0.11,1.483-1.359,0.749-2.093l-4.729-4.729
		c-0.282-0.282-0.414-0.685-0.343-1.077c0.427-2.338,3.423-5.334,5.761-5.761C41.184,34.708,41.585,34.84,41.867,35.122"/>
</g>
</svg>
