<?xml version="1.0" encoding="utf-8"?>
<!-- Generator: Adobe Illustrator 16.0.0, SVG Export Plug-In . SVG Version: 6.00 Build 0)  -->
<!DOCTYPE svg PUBLIC "-//W3C//DTD SVG 1.1//EN" "http://www.w3.org/Graphics/SVG/1.1/DTD/svg11.dtd">
<svg version="1.1" id="Layer_1" xmlns="http://www.w3.org/2000/svg" xmlns:xlink="http://www.w3.org/1999/xlink" x="0px" y="0px"
	 width="995px" height="420px" viewBox="0 0 391.015 165.382" enable-background="new 0 0 391.015 165.382"
	 xml:space="preserve">
<g>
	<defs>
		<rect id="SVGID_1_" width="391.015" height="165.382"/>
	</defs>
	<clipPath id="SVGID_2_">
		<use xlink:href="#SVGID_1_"  overflow="visible"/>
	</clipPath>
	<g clip-path="url(#SVGID_2_)">
		<defs>
			<rect id="SVGID_3_" width="391.015" height="165.382"/>
		</defs>
		<clipPath id="SVGID_4_">
			<use xlink:href="#SVGID_3_"  overflow="visible"/>
		</clipPath>
		<path clip-path="url(#SVGID_4_)" fill="#479ED7" d="M382.596,82.607c0-6.531-5.294-11.825-11.824-11.825H342.54
			c5.836-0.726,10.355-5.692,10.355-11.724c0-6.11-4.635-11.135-10.578-11.758h22.378c6.531,0,11.825-5.295,11.825-11.825
			c0-6.531-5.294-11.825-11.825-11.825H348.91c6.531,0,11.825-5.295,11.825-11.825C360.735,5.294,355.441,0,348.91,0H212.642
			h-27.025H39.346c-6.53,0-11.825,5.294-11.825,11.825c0,6.53,5.295,11.825,11.825,11.825h-20.94
			c-6.531,0-11.826,5.294-11.826,11.825c0,6.53,5.295,11.825,11.826,11.825h5.888c-6.531,0-11.825,5.294-11.825,11.825
			c0,6.53,5.294,11.825,11.825,11.825H11.825C5.295,70.95,0,76.244,0,82.775C0,89.305,5.295,94.6,11.825,94.6h23.231
			c-5.835,0.726-10.355,5.692-10.355,11.725c0,6.108,4.633,11.135,10.578,11.758H22.901c-6.531,0-11.825,5.294-11.825,11.825
			c0,6.53,5.294,11.824,11.825,11.824h15.785c-6.53,0-11.825,5.294-11.825,11.825s5.295,11.825,11.825,11.825h136.269h79.939h93.355
			c6.53,0,11.825-5.294,11.825-11.825s-5.295-11.825-11.825-11.825h30.94c6.53,0,11.825-5.294,11.825-11.824
			c0-6.531-5.295-11.825-11.825-11.825h-15.889c6.531,0,11.825-5.294,11.825-11.825s-5.294-11.825-11.825-11.825h7.47
			C377.302,94.432,382.596,89.138,382.596,82.607"/>
		<g opacity="0.05" clip-path="url(#SVGID_4_)">
			<g>
				<defs>
					<rect id="SVGID_5_" x="76.802" y="26.66" width="46.369" height="74.428"/>
				</defs>
				<clipPath id="SVGID_6_">
					<use xlink:href="#SVGID_5_"  overflow="visible"/>
				</clipPath>
				<path clip-path="url(#SVGID_6_)" d="M98.328,44.445h3.482c0.408-1.533,0.738-2.413,0.738-2.413h0.313v-0.854l-0.235-0.115
					v-1.552l0.25-0.045c-0.121-0.23-0.19-0.492-0.19-0.771c0-0.92,0.747-1.667,1.668-1.667c0.05,0,0.1,0.003,0.15,0.008
					l-0.056-0.045v-2.949l0.206-0.146l-0.121-0.087l0.223-0.159l-0.161-0.115l0.232-0.131l-0.232-0.13l0.161-0.115l-0.223-0.158
					l0.121-0.087l-0.206-0.147v-1.864h0.406c1.464,5.068,1.363,6.952,1.363,6.952h-0.425c0.145,0.247,0.229,0.534,0.229,0.84
					c0,0.921-0.746,1.668-1.667,1.668c-0.078,0-0.153-0.007-0.227-0.017v0.223v0.787l-0.191,0.146v0.53h0.196
					c-0.196,0.831-0.366,1.634-0.519,2.413h1.479c-0.153-0.779-0.324-1.582-0.519-2.413h0.195v-0.53l-0.19-0.146v-0.787v-0.003
					c0.653-0.078,1.202-0.49,1.474-1.059l0.026,0.004v1.552l-0.234,0.115v0.854h0.313c0,0,0.33,0.88,0.738,2.413h6.729l0.019-1.498
					c0-0.36,0.292-0.652,0.652-0.652h0.143v-9.419h-0.219c-0.36,0-0.648-0.292-0.648-0.652v-2.721
					c-0.211-0.308-0.621-0.601-1.507-0.601c-1.936,0-3.21,1.936-3.21,2.548h-0.247h-0.186c0-3.974,4.101-4.764,4.763-4.764h3.618
					c0.331,0,0.509,0.841,2.089,0.841c0.518,0,0.923-0.138,1.211-0.282c0.035-0.326,0.302-0.585,0.638-0.585h1.779
					c0.36,0,0.652,0.292,0.652,0.653v1.125v1.315c0,0.36-0.292,0.652-0.652,0.652h-1.779c-0.36,0-0.652-0.292-0.652-0.652v-0.092
					c-0.281-0.064-0.675-0.122-1.197-0.122c-0.643,0-1.085,0.184-1.35,0.346v2.339c0,0.36-0.292,0.652-0.652,0.652h-0.171v9.419
					h0.143c0.36,0,0.652,0.292,0.652,0.652l0.019,1.498h4.476c0.398,0,0.72,0.323,0.72,0.721v4.029c0,0.398-0.322,0.721-0.72,0.721
					h-4.407l0.129,10.109c0,0.36-0.292,0.652-0.652,0.652h-0.67h-1.66h-0.67c-0.36,0-0.652-0.292-0.652-0.652l0.129-10.109h-5.574
					c0.517,4.224-0.08,8.877-0.514,10.064c-0.031,0.084-0.065,0.158-0.101,0.226c-0.012,0.022-0.024,0.039-0.036,0.059
					c-0.026,0.043-0.052,0.084-0.079,0.12c-0.015,0.018-0.03,0.034-0.045,0.051c-0.026,0.03-0.054,0.059-0.082,0.083
					c-0.015,0.013-0.031,0.025-0.047,0.037c-0.029,0.021-0.058,0.039-0.088,0.054c-0.008,0.004-0.016,0.012-0.025,0.016
					c0,0-0.002-0.002-0.003-0.002c-0.477,0.212-1.017-0.289-1.017-0.919c0-0.631,0.542-4.091-0.034-9.789h-3.115
					c-0.577,5.698-0.034,9.158-0.034,9.789c0,0.103-0.016,0.202-0.042,0.296l-0.003,0.013c-0.026,0.09-0.065,0.174-0.111,0.251
					c-0.004,0.005-0.006,0.011-0.006,0.011c-0.05,0.08-0.106,0.146-0.167,0.202c-0.005,0.004-0.009,0.009-0.014,0.014
					c-0.061,0.054-0.128,0.096-0.198,0.127c0,0-0.008,0.006-0.012,0.008c0,0-0.001-0.001-0.002-0.001
					c-0.331,0.138-0.731,0.001-0.968-0.646c-0.434-1.187-1.031-5.84-0.515-10.064h-2.395c-0.398,0-0.72-0.323-0.72-0.721v-4.029
					C97.608,44.768,97.93,44.445,98.328,44.445"/>
				<path clip-path="url(#SVGID_6_)" d="M102.739,37.847h-0.229c0,0-0.101-1.884,1.363-6.952h0.406v1.864l-0.206,0.147l0.121,0.087
					l-0.223,0.158l0.161,0.114l-0.232,0.131l0.232,0.131l-0.161,0.115l0.223,0.159l-0.121,0.087l0.206,0.146v2.818
					C103.606,36.887,103.031,37.281,102.739,37.847"/>
				<path clip-path="url(#SVGID_6_)" d="M77.523,78.132h2.362c-0.135-0.056-0.23-0.188-0.23-0.344v-0.111
					c0-0.195,0.151-0.351,0.342-0.367c0.106-0.094,0.206-0.185,0.206-0.309v-0.217c0-0.235-0.451-0.36-0.451-0.617v-5.636
					c0-0.787,0.443-0.967,1.426-0.967c0.984,0,1.426,0.18,1.426,0.967v5.636c0,0.257-0.451,0.382-0.451,0.617v0.217
					c0,0.124,0.1,0.215,0.206,0.309c0.191,0.016,0.343,0.172,0.343,0.367v0.111c0,0.156-0.095,0.288-0.23,0.344h1.791
					c-0.195-0.047-0.343-0.214-0.343-0.424v-0.133c0-0.233,0.181-0.418,0.409-0.437c0.126-0.112,0.246-0.221,0.246-0.369V76.51
					c0-0.279-0.538-0.429-0.538-0.736v-6.721c0-0.939,0.528-1.153,1.7-1.153c1.173,0,1.701,0.214,1.701,1.153v6.721
					c0,0.307-0.538,0.457-0.538,0.736v0.259c0,0.148,0.12,0.257,0.246,0.369c0.228,0.019,0.409,0.204,0.409,0.437v0.133
					c0,0.21-0.148,0.377-0.344,0.424h2.401c-0.318,0-0.577-0.258-0.577-0.577v-0.173c0-0.303,0.235-0.543,0.531-0.568
					c0.164-0.146,0.32-0.287,0.32-0.479v-0.337c0-0.363-0.699-0.558-0.699-0.956v-8.733c0-1.219,0.685-1.499,2.209-1.499
					s2.21,0.28,2.21,1.499v8.733c0,0.398-0.699,0.593-0.699,0.956v0.337c0,0.192,0.155,0.333,0.319,0.479
					c0.296,0.025,0.531,0.265,0.531,0.568v0.173c0,0.319-0.258,0.577-0.577,0.577h2.487c-0.351-0.015-0.632-0.299-0.632-0.653
					v-0.198c0-0.345,0.268-0.62,0.606-0.648c0.187-0.167,0.365-0.328,0.365-0.546v-0.385c0-0.414-0.798-0.636-0.798-1.091v-9.966
					c0-1.391,0.782-1.71,2.522-1.71c1.739,0,2.521,0.319,2.521,1.71v9.966c0,0.455-0.798,0.677-0.798,1.091v0.385
					c0,0.218,0.178,0.379,0.365,0.546c0.338,0.028,0.606,0.303,0.606,0.648v0.198c0,0.354-0.281,0.638-0.632,0.653h3.264
					c0.398,0,0.72,0.323,0.72,0.721v4.029c0,0.398-0.322,0.721-0.72,0.721h-4.87v13.606l0.732,0.87l-0.633,3.009H97.73h-0.556
					l-0.633-3.009l0.732-0.87V83.603h-5.477v9.741l0.642,0.763l-0.555,2.637h-0.487h-0.487l-0.554-2.637l0.641-0.763v-9.741h-4.951
					v7.412l0.494,0.587l-0.427,2.029h-0.375h-0.374l-0.427-2.029l0.493-0.587v-7.412h-3.993v5.344l0.414,0.491l-0.358,1.701h-0.314
					h-0.314l-0.358-1.701l0.414-0.491v-5.344h-3.397c-0.398,0-0.721-0.323-0.721-0.721v-4.029
					C76.802,78.455,77.125,78.132,77.523,78.132"/>
			</g>
		</g>
		<g opacity="0.05" clip-path="url(#SVGID_4_)">
			<g>
				<defs>
					<rect id="SVGID_7_" x="107.497" y="144.142" width="89.229" height="1.786"/>
				</defs>
				<clipPath id="SVGID_8_">
					<use xlink:href="#SVGID_7_"  overflow="visible"/>
				</clipPath>
				<path clip-path="url(#SVGID_8_)" d="M196.727,145.034c0-0.492-19.975-0.893-44.615-0.893c-24.64,0-44.615,0.4-44.615,0.893
					c0,0.493,19.975,0.894,44.615,0.894C176.752,145.928,196.727,145.527,196.727,145.034"/>
			</g>
		</g>
		<path clip-path="url(#SVGID_4_)" fill="#707071" d="M175.732,69.583h-61.019c-3.985,0-7.216,3.231-7.216,7.216v61.019
			c0,3.985,3.231,7.217,7.216,7.217h61.019c3.986,0,7.216-3.231,7.216-7.217V76.799C182.948,72.814,179.718,69.583,175.732,69.583"
			/>
		<path clip-path="url(#SVGID_4_)" fill="#848283" d="M189.511,69.583h-61.019c-3.985,0-7.216,3.231-7.216,7.216v61.019
			c0,3.985,3.231,7.217,7.216,7.217h61.019c3.986,0,7.216-3.231,7.216-7.217V76.799C196.727,72.814,193.497,69.583,189.511,69.583"
			/>
		<path clip-path="url(#SVGID_4_)" fill="#AFAEAE" d="M183.324,75.77h-48.645c-3.985,0-7.216,3.231-7.216,7.216v48.645
			c0,3.986,3.231,7.217,7.216,7.217h48.645c3.985,0,7.216-3.23,7.216-7.217V82.986C190.54,79.001,187.309,75.77,183.324,75.77"/>
		<path clip-path="url(#SVGID_4_)" fill="#848283" d="M171.844,107.309c0,7.093-5.75,12.843-12.843,12.843
			c-7.093,0-12.843-5.75-12.843-12.843s5.75-12.843,12.843-12.843C166.094,94.466,171.844,100.216,171.844,107.309"/>

			<circle clip-path="url(#SVGID_4_)" fill="none" stroke="#AFAEAE" stroke-width="0.656" stroke-miterlimit="10" cx="159.001" cy="107.309" r="11.559"/>
		<path clip-path="url(#SVGID_4_)" fill="#AFAEAE" d="M165.937,107.309c0,3.83-3.105,6.936-6.935,6.936
			c-3.831,0-6.936-3.105-6.936-6.936s3.105-6.935,6.936-6.935C162.832,100.374,165.937,103.479,165.937,107.309"/>
		<path clip-path="url(#SVGID_4_)" fill="#AFAEAE" d="M159.965,98.144c0,0.532-0.431,0.964-0.964,0.964
			c-0.532,0-0.963-0.432-0.963-0.964c0-0.531,0.431-0.964,0.963-0.964C159.534,97.18,159.965,97.612,159.965,98.144"/>
		<path clip-path="url(#SVGID_4_)" fill="#AFAEAE" d="M159.965,116.474c0,0.532-0.431,0.964-0.964,0.964
			c-0.532,0-0.963-0.432-0.963-0.964s0.431-0.964,0.963-0.964C159.534,115.51,159.965,115.941,159.965,116.474"/>
		<path clip-path="url(#SVGID_4_)" fill="#AFAEAE" d="M168.166,108.272c-0.532,0-0.964-0.431-0.964-0.964
			c0-0.532,0.432-0.963,0.964-0.963c0.532,0,0.964,0.431,0.964,0.963C169.13,107.842,168.698,108.272,168.166,108.272"/>
		<path clip-path="url(#SVGID_4_)" fill="#AFAEAE" d="M149.836,108.272c-0.532,0-0.964-0.431-0.964-0.964
			c0-0.532,0.432-0.963,0.964-0.963c0.532,0,0.964,0.431,0.964,0.963C150.8,107.842,150.368,108.272,149.836,108.272"/>
		<path clip-path="url(#SVGID_4_)" fill="#AFAEAE" d="M164.8,114.471c-0.376-0.376-0.376-0.986,0-1.363
			c0.376-0.376,0.986-0.376,1.363,0c0.376,0.377,0.376,0.987,0,1.363C165.787,114.847,165.176,114.847,164.8,114.471"/>
		<path clip-path="url(#SVGID_4_)" fill="#AFAEAE" d="M151.839,101.51c-0.376-0.376-0.376-0.986,0-1.363
			c0.376-0.376,0.986-0.376,1.363,0c0.376,0.377,0.376,0.987,0,1.363C152.825,101.886,152.215,101.886,151.839,101.51"/>
		<path clip-path="url(#SVGID_4_)" fill="#AFAEAE" d="M151.839,113.108c0.376-0.376,0.986-0.376,1.363,0
			c0.376,0.376,0.376,0.985,0,1.362c-0.377,0.376-0.987,0.376-1.363,0C151.463,114.094,151.463,113.484,151.839,113.108"/>
		<path clip-path="url(#SVGID_4_)" fill="#AFAEAE" d="M164.8,100.146c0.376-0.376,0.986-0.376,1.363,0
			c0.376,0.376,0.376,0.986,0,1.363c-0.377,0.376-0.987,0.376-1.363,0C164.424,101.133,164.424,100.522,164.8,100.146"/>
		<path clip-path="url(#SVGID_4_)" fill="#848283" d="M160.56,105.996c0-0.859-0.698-1.558-1.558-1.558
			c-0.861,0-1.559,0.698-1.559,1.558c0,0.458,0.202,0.866,0.517,1.151l-0.302,1.927c-0.091,0.58,0.357,1.105,0.945,1.105h0.797
			c0.588,0,1.036-0.525,0.945-1.105l-0.302-1.927C160.357,106.862,160.56,106.454,160.56,105.996"/>
		<path clip-path="url(#SVGID_4_)" fill="#848283" d="M132.511,128.663L132.511,128.663c-0.679,0-1.23-0.551-1.23-1.229v-38.69
			c0-0.68,0.551-1.231,1.23-1.231s1.23,0.552,1.23,1.231v38.69C133.741,128.112,133.19,128.663,132.511,128.663"/>
		<path clip-path="url(#SVGID_4_)" fill="#D2D2D2" d="M192.773,83.116h-4.466c-0.828,0-1.499,0.671-1.499,1.499v6.188
			c0,0.828,0.671,1.498,1.499,1.498h4.466c0.827,0,1.498-0.67,1.498-1.498v-6.188C194.271,83.787,193.6,83.116,192.773,83.116"/>
		<path clip-path="url(#SVGID_4_)" fill="#D2D2D2" d="M192.773,102.716h-4.466c-0.828,0-1.499,0.671-1.499,1.498v6.189
			c0,0.828,0.671,1.498,1.499,1.498h4.466c0.827,0,1.498-0.67,1.498-1.498v-6.189C194.271,103.387,193.6,102.716,192.773,102.716"/>
		<path clip-path="url(#SVGID_4_)" fill="#D2D2D2" d="M192.773,122.316h-4.466c-0.828,0-1.499,0.671-1.499,1.498v6.188
			c0,0.828,0.671,1.498,1.499,1.498h4.466c0.827,0,1.498-0.67,1.498-1.498v-6.188C194.271,122.987,193.6,122.316,192.773,122.316"/>
		<path clip-path="url(#SVGID_4_)" fill="#FFFFFF" d="M219.331,94.004c-0.041,0.004-3.438,1.143-6.058,0.76
			c-1.23-0.127-2.534-0.63-3.904-1.099c-1.365-0.474-2.853-0.915-4.104-0.627c-0.356,0.022-0.533,0.196-0.81,0.255
			c-0.146,0.049-0.383,0.251-0.57,0.371l-0.304,0.21l-0.066,0.046l-0.02,0.023l-0.054,0.05c-0.591,0.551-1.058,1.173-1.314,1.861
			c-0.47,1.371,0.033,3.202,1.166,4.884c0.28,0.411,0.597,0.838,0.919,1.199l0.109,0.117c0,0,0.01,0.009,0.001,0l0.079,0.067
			l0.307,0.262l0.619,0.54c0.854,0.676,1.757,1.313,2.726,1.821c1.924,1.053,4.077,1.674,6.261,1.771
			c0.585,0.024,3.038,0.001,5.801-0.837C220.757,103.48,219.433,97.637,219.331,94.004"/>
		<g opacity="0.03" clip-path="url(#SVGID_4_)">
			<g>
				<defs>
					<rect id="SVGID_9_" x="203.352" y="92.946" width="16.932" height="13.575"/>
				</defs>
				<clipPath id="SVGID_10_">
					<use xlink:href="#SVGID_9_"  overflow="visible"/>
				</clipPath>
				<path clip-path="url(#SVGID_10_)" d="M220.282,104.294c-10.939,1.505-11.171-10.701-11.171-10.716
					c-1.293-0.438-2.672-0.811-3.847-0.54c-0.356,0.022-0.533,0.196-0.81,0.255c-0.145,0.049-0.384,0.251-0.57,0.371l-0.304,0.21
					l-0.065,0.046l-0.021,0.023l-0.053,0.051c-0.591,0.55,1.939,1.32,1.682,2.009c-0.471,1.372,1.032,3.252,2.164,4.934
					c0.281,0.411-3.396,0.641-3.074,1l0.107,0.118c0,0,0.011,0.008,0.001,0l0.079,0.067l0.308,0.262l0.618,0.54
					c0.855,0.676,1.758,1.313,2.727,1.821c1.924,1.053,4.077,1.674,6.261,1.771c0.585,0.024,3.038,0.001,5.801-0.837
					C220.222,105.312,220.271,104.837,220.282,104.294"/>
			</g>
		</g>
		<path clip-path="url(#SVGID_4_)" fill="#FED523" d="M201.793,68.395c-1.386,0.246-2.593,1.016-3.4,2.17
			c-0.807,1.154-1.115,2.553-0.869,3.939c0.125,0.703,0.393,1.365,0.797,1.969c-0.896,0.392-1.657,1.016-2.217,1.816
			c-0.8,1.144-1.106,2.531-0.862,3.907c0.506,2.86,3.243,4.774,6.103,4.271l1.879-0.29c0.005-0.001,0.012,0.005,0.012,0.005
			l5.412,30.563c0.093,0.526,0.599,0.881,1.127,0.787l3.754-0.665c0.255-0.045,0.478-0.188,0.627-0.399
			c0.148-0.213,0.206-0.471,0.16-0.728l-0.248-1.397c-0.094-0.528-0.599-0.881-1.126-0.788l-1.398,0.247l-0.248-1.397l1.398-0.249
			c0.256-0.045,0.479-0.186,0.628-0.399c0.148-0.212,0.205-0.471,0.16-0.727l-0.247-1.397c-0.095-0.528-0.6-0.881-1.127-0.788
			l-1.398,0.248l-0.23-1.296l1.312-0.232c0.255-0.045,0.478-0.187,0.627-0.399c0.149-0.214,0.205-0.472,0.16-0.727l-0.247-1.398
			c-0.094-0.528-0.599-0.882-1.126-0.788l-1.312,0.232l-3.344-18.885l0.008-0.013l1.865-0.372c1.384-0.246,2.589-1.017,3.396-2.169
			c0.807-1.154,1.115-2.553,0.869-3.938c-0.421-2.377-2.448-4.169-4.856-4.318c0.173-0.71,0.197-1.422,0.073-2.124
			C207.395,69.805,204.655,67.889,201.793,68.395 M202.308,80.944c0.087,0.5-0.024,1.005-0.316,1.423
			c-0.292,0.419-0.729,0.698-1.229,0.787c-1.036,0.183-2.026-0.51-2.209-1.545c-0.089-0.5,0.023-1.004,0.316-1.423
			c0.293-0.418,0.728-0.698,1.228-0.786C201.133,79.217,202.124,79.909,202.308,80.944 M203.803,72.023
			c0.418,0.293,0.698,0.729,0.786,1.228c0.089,0.501-0.023,1.006-0.315,1.424s-0.729,0.697-1.229,0.786
			c-0.499,0.088-1.004-0.024-1.423-0.317c-0.418-0.292-0.697-0.728-0.785-1.227c-0.089-0.501,0.023-1.006,0.316-1.424
			c0.292-0.418,0.728-0.697,1.228-0.786C202.88,71.619,203.385,71.731,203.803,72.023 M208.588,78.465
			c0.418,0.292,0.697,0.729,0.786,1.228c0.088,0.5-0.024,1.005-0.317,1.423c-0.292,0.419-0.729,0.698-1.228,0.786
			c-0.5,0.089-1.005-0.023-1.423-0.315c-0.419-0.293-0.698-0.729-0.787-1.229c-0.088-0.5,0.023-1.005,0.315-1.423
			c0.293-0.419,0.729-0.698,1.229-0.786C207.664,78.061,208.17,78.173,208.588,78.465"/>
		<g opacity="0.1" clip-path="url(#SVGID_4_)">
			<g>
				<defs>
					<rect id="SVGID_11_" x="204.541" y="93.351" width="3.59" height="11.249"/>
				</defs>
				<clipPath id="SVGID_12_">
					<use xlink:href="#SVGID_11_"  overflow="visible"/>
				</clipPath>
				<path clip-path="url(#SVGID_12_)" fill="#7F7F80" d="M204.541,93.351l1.113,6.376l0.035,0.201l0.815,4.672h0.001
					C210.804,97.953,205.299,93.869,204.541,93.351"/>
			</g>
		</g>
		<path clip-path="url(#SVGID_4_)" fill="#FFFFFF" d="M204.518,93.273c-0.021,0.006-0.04,0.015-0.062,0.02
			c-0.145,0.049-0.384,0.25-0.57,0.371l-0.304,0.209l-0.065,0.046l-0.021,0.024l-0.053,0.05c-0.28,0.262-0.53,0.54-0.745,0.833
			l0.876,6.302c0.206,0.283,0.419,0.562,0.641,0.81l0.107,0.117c0,0,0.011,0.009,0.001,0l0.079,0.067l0.308,0.262l0.618,0.54
			c0.317,0.25,0.648,0.486,0.979,0.723c0.994-1.146,1.781-3.047,1.129-5.954C206.849,95.079,205.615,93.851,204.518,93.273"/>
		<g opacity="0.03" clip-path="url(#SVGID_4_)">
			<g>
				<defs>
					<rect id="SVGID_13_" x="207.887" y="104.236" width="6.442" height="13.311"/>
				</defs>
				<clipPath id="SVGID_14_">
					<use xlink:href="#SVGID_13_"  overflow="visible"/>
				</clipPath>
				<path clip-path="url(#SVGID_14_)" d="M209.772,117.532l3.754-0.665c0.257-0.045,0.479-0.188,0.627-0.4
					c0.149-0.212,0.206-0.471,0.161-0.727l-0.249-1.397c-0.093-0.528-0.598-0.881-1.126-0.789l-1.397,0.248l-0.248-1.397
					l1.398-0.248c0.256-0.045,0.479-0.187,0.627-0.4c0.149-0.213,0.205-0.471,0.16-0.726l-0.247-1.398
					c-0.094-0.529-0.599-0.882-1.127-0.788l-1.396,0.247l-0.23-1.295l1.311-0.232c0.255-0.045,0.478-0.187,0.627-0.399
					c0.148-0.214,0.206-0.471,0.16-0.728l-0.247-1.398c-0.095-0.527-0.599-0.881-1.126-0.787l-0.985,0.175
					c-0.4,2.708-1.431,5.737-2.331,8.03l0.759,4.288C208.74,117.271,209.245,117.626,209.772,117.532"/>
			</g>
		</g>
		<path clip-path="url(#SVGID_4_)" fill="#FFFFFF" d="M293.543,97.293c-4.106,0-7.956,1.093-11.284,2.992l-0.048-0.006
			c-1.745,1.026-3.771,1.625-5.941,1.625c-6.49,0-11.75-5.261-11.75-11.75c0-0.396,0.021-0.789,0.06-1.175l6.831-3.388l3.417-11.779
			l0.377-12.941l-3.125-7.25c0,0,1.019-6.61,0.458-7.248c-0.562-0.638-4.271-4.277-4.271-4.277l-18.174-2.457L234.08,38.7
			l-12.459,0.422l-3.587,12.013L216,60.655l-1.422,11.225l-0.123,10.324l2.725,0.505c-1.082,3.544-1.665,7.306-1.665,11.204
			c0,21.169,17.161,38.329,38.329,38.329c6.588,0,12.785-1.663,18.199-4.591l0.001-0.001c0.83-0.449,1.637-0.931,2.427-1.437
			c0.247-0.158,0.482-0.331,0.725-0.494c0.533-0.36,1.064-0.724,1.578-1.108c0.285-0.213,0.559-0.438,0.836-0.659
			c0.455-0.359,0.906-0.725,1.344-1.104c0.284-0.248,0.561-0.503,0.839-0.759c0.412-0.38,0.815-0.766,1.212-1.163
			c0.269-0.272,0.535-0.547,0.797-0.827c0.383-0.408,0.753-0.825,1.118-1.25c0.247-0.288,0.493-0.575,0.73-0.87
			c0.362-0.447,0.708-0.907,1.05-1.37c0.214-0.291,0.433-0.578,0.639-0.875c0.36-0.518,0.697-1.051,1.031-1.587
			c0.162-0.26,0.334-0.512,0.489-0.776c0.478-0.807,0.93-1.63,1.348-2.474c2.429-4.761,7.368-8.029,13.08-8.029
			c5.979,0,11.107,3.58,13.399,8.706C311.312,103.203,303.121,97.293,293.543,97.293"/>

			<rect x="227.511" y="106.882" transform="matrix(0.7071 -0.7071 0.7071 0.7071 -12.9944 194.9139)" clip-path="url(#SVGID_4_)" fill="#FFE6AE" width="2.548" height="12.521"/>
		<rect x="227.811" y="43.124" clip-path="url(#SVGID_4_)" fill="#EFCF8F" width="3.115" height="8.625"/>
		<rect x="227.811" y="79.061" clip-path="url(#SVGID_4_)" fill="#EFCF8F" width="3.115" height="8.625"/>
		<g opacity="0.05" clip-path="url(#SVGID_4_)">
			<g>
				<defs>
					<rect id="SVGID_15_" x="224.551" y="148.185" width="54.83" height="1.984"/>
				</defs>
				<clipPath id="SVGID_16_">
					<use xlink:href="#SVGID_15_"  overflow="visible"/>
				</clipPath>
				<path clip-path="url(#SVGID_16_)" d="M279.382,149.177c0-0.548-12.274-0.992-27.415-0.992c-15.142,0-27.416,0.444-27.416,0.992
					s12.274,0.992,27.416,0.992C267.107,150.169,279.382,149.725,279.382,149.177"/>
			</g>
		</g>
		<path clip-path="url(#SVGID_4_)" fill="#FFFFFF" d="M266.273,94.371c0,0-1.528-1.445-1.116-4.05
			c0.413-2.605-2.29,1.379-2.29,1.379s0.609,2.53,0.641,2.578c0.031,0.047,0.828,0.905,0.828,0.905"/>
		<path clip-path="url(#SVGID_4_)" fill="#FFFFFF" d="M264.617,89.458l6.832-3.388l3.416-11.78l0.377-12.941l-3.125-7.25
			c0,0,1.021-6.61,0.458-7.248c-0.561-0.638-4.27-4.277-4.27-4.277l-18.173-2.457l-16.016-0.938l-12.458,0.422l-3.587,12.012
			l-2.033,9.52l-1.422,11.226l-0.124,10.323l2.726,0.505c-1.081,3.544-1.664,7.307-1.664,11.205
			c0,21.168,17.16,38.328,38.329,38.328c1.953,0,3.868-0.163,5.743-0.445l0.015,0.016c0,0,0.206-0.038,0.542-0.104"/>
		<path clip-path="url(#SVGID_4_)" d="M275.243,61.35l-2.222-5.154c-0.092,0.647-0.164,1.089-0.164,1.089l2.353,5.205L275.243,61.35
			z"/>
		<path clip-path="url(#SVGID_4_)" fill="#89C540" d="M219.493,76.225c0,0,19.5,6.875,38.25,6.75l3.75-14.375l1.25-6.625
			l0.25-14.875l-18.875-2.625l-12-0.25l-7,0.25l-3.875,10.875l-1,6.125l-0.875,6.375L219.493,76.225z"/>
		<g opacity="0.2" clip-path="url(#SVGID_4_)">
			<g>
				<defs>
					<rect id="SVGID_17_" x="219.039" y="44.267" width="28.12" height="28.556"/>
				</defs>
				<clipPath id="SVGID_18_">
					<use xlink:href="#SVGID_17_"  overflow="visible"/>
				</clipPath>
				<path clip-path="url(#SVGID_18_)" fill="#FFFFFF" d="M247.159,45.017c0,0-24.749-3.25-27.083,18.25c-2.333,21.5,0,0,0,0
					l2.5-11.833l2.566-6.96l9.601-0.207l6,0.167"/>
			</g>
		</g>
		<path clip-path="url(#SVGID_4_)" fill="none" stroke="#89C540" stroke-miterlimit="10" d="M263.178,47.152
			c0,0-21.266-4.221-38.035-2.678c0,0-6.587,15.489-5.649,32.126c0,0,18.862,6.567,38.5,6.5
			C257.993,83.1,264.493,63.85,263.178,47.152z"/>
		<g opacity="0.05" clip-path="url(#SVGID_4_)">
			<g>
				<defs>
					<rect id="SVGID_19_" x="245.209" y="89.239" width="20.063" height="5.132"/>
				</defs>
				<clipPath id="SVGID_20_">
					<use xlink:href="#SVGID_19_"  overflow="visible"/>
				</clipPath>
				<path clip-path="url(#SVGID_20_)" d="M263.073,93.988c0.641-0.31,1.423-0.684,2.191-1.044c-0.082-0.567-0.289-2.249,0.007-3.189
					l-0.676,0.228c0.009-0.149,0.007-0.303,0.021-0.452l0.362-0.179l-0.176-0.112l-4.5,1.666l-15.095-1.447
					c5.664,1.428,12.046,3.655,14.895,4.685C261.075,94.493,262.143,94.438,263.073,93.988"/>
			</g>
		</g>
		<path clip-path="url(#SVGID_4_)" fill="#FFFFFF" d="M245.046,89.354c2.749,0.153,5.495,0.406,8.234,0.587
			c2.733,0.175,5.492,0.337,8.146,0.191l-0.433,0.104c0.172-0.15,0.386-0.22,0.579-0.327l0.595-0.301l1.19-0.597l2.378-1.196
			l4.757-2.391h0.001l-0.432,0.437c0.202-0.427,0.409-0.922,0.598-1.396c0.192-0.479,0.37-0.967,0.545-1.457
			c0.345-0.98,0.654-1.976,0.937-2.981c0.284-1.003,0.529-2.018,0.754-3.038c0.106-0.51,0.217-1.021,0.308-1.535
			c0.1-0.511,0.182-1.012,0.267-1.548c0.166-1.041,0.295-2.058,0.409-3.108c0.109-1.043,0.197-2.088,0.265-3.135
			c0.063-1.048,0.11-2.097,0.135-3.146c0.022-1.045,0.027-2.109-0.001-3.13l0.078,0.346l-3.125-7.25l-0.093-0.212l0.016-0.232
			l0.458-7.247l0.239,0.699l-3.666-4.167l0.547,0.312c-3.855-0.697-7.771-1.27-11.676-1.766c-1.955-0.243-3.911-0.476-5.872-0.668
			c-1.959-0.212-3.924-0.367-5.886-0.529c-1.964-0.137-3.928-0.276-5.894-0.354c-0.983-0.052-1.966-0.094-2.949-0.11l-2.948-0.066
			l-2.946,0.006c-0.983-0.012-1.962,0.046-2.943,0.072c-0.98,0.037-1.962,0.051-2.937,0.136l-2.932,0.208l0.819-0.626
			c-0.604,1.683-1.17,3.424-1.691,5.161c-0.528,1.738-1.014,3.491-1.479,5.249l-0.663,2.645c-0.227,0.881-0.405,1.772-0.61,2.657
			c-0.208,0.886-0.386,1.777-0.56,2.668c-0.174,0.892-0.368,1.781-0.51,2.678l-0.46,2.685l-0.377,2.696
			c-0.139,0.898-0.222,1.801-0.317,2.702c-0.083,0.902-0.216,1.802-0.258,2.707l-0.18,2.711c-0.06,0.904-0.05,1.809-0.079,2.712
			c-0.024,0.905-0.046,1.81-0.002,2.711l0.078,2.707l-0.664-0.864c0.76,0.26,1.502,0.57,2.255,0.849l2.256,0.848
			c1.506,0.558,3.015,1.101,4.534,1.618c3.038,1.035,6.12,1.967,9.212,2.868c-3.167-0.583-6.332-1.196-9.48-1.924
			c-1.574-0.361-3.145-0.752-4.707-1.156l-2.342-0.618c-0.778-0.215-1.563-0.406-2.331-0.646l-0.646-0.203l-0.019-0.662l-0.08-2.781
			c-0.044-0.928-0.023-1.854,0.002-2.779c0.029-0.926,0.021-1.853,0.081-2.776l0.183-2.768c0.043-0.924,0.179-1.839,0.264-2.758
			c0.097-0.918,0.182-1.839,0.322-2.751l0.385-2.742l0.467-2.727c0.144-0.911,0.34-1.812,0.516-2.717
			c0.177-0.904,0.358-1.808,0.568-2.705c0.208-0.898,0.39-1.801,0.62-2.693l0.671-2.682c0.471-1.781,0.963-3.556,1.499-5.32
			c0.532-1.769,1.097-3.511,1.729-5.274l0.209-0.583l0.609-0.044l2.989-0.212c0.996-0.087,1.992-0.101,2.988-0.138
			c0.997-0.028,1.994-0.086,2.989-0.074l2.987-0.006l2.984,0.067c0.995,0.016,1.988,0.059,2.981,0.111
			c1.987,0.079,3.97,0.219,5.952,0.358c1.979,0.163,3.961,0.319,5.936,0.532c1.977,0.194,3.948,0.43,5.918,0.674
			c3.943,0.502,7.861,1.073,11.792,1.784l0.324,0.059l0.223,0.253l3.666,4.167l0.266,0.301l-0.026,0.4l-0.458,7.247l-0.077-0.444
			l3.125,7.25l0.073,0.17l0.006,0.177c0.031,1.104,0.025,2.166,0.002,3.246c-0.024,1.076-0.072,2.15-0.139,3.224
			c-0.069,1.074-0.158,2.147-0.272,3.218c-0.113,1.064-0.253,2.156-0.422,3.213c-0.081,0.514-0.171,1.062-0.274,1.595
			c-0.095,0.532-0.208,1.061-0.319,1.59c-0.232,1.056-0.486,2.108-0.781,3.15c-0.293,1.042-0.613,2.077-0.975,3.101
			c-0.182,0.513-0.369,1.022-0.572,1.529c-0.204,0.513-0.406,1-0.658,1.533L271.663,87l-0.296,0.15l-4.742,2.421l-2.371,1.211
			l-1.186,0.605l-0.593,0.302c-0.202,0.094-0.385,0.225-0.608,0.273l-0.434,0.104c-2.846-0.18-5.557-0.671-8.274-1.167
			C250.446,90.398,247.757,89.829,245.046,89.354"/>
		<g opacity="0.5" clip-path="url(#SVGID_4_)">
			<g>
				<defs>
					<rect id="SVGID_21_" x="261.73" y="41.949" width="14.501" height="50.047"/>
				</defs>
				<clipPath id="SVGID_22_">
					<use xlink:href="#SVGID_21_"  overflow="visible"/>
				</clipPath>
				<g opacity="0.05" clip-path="url(#SVGID_22_)">
					<g>
						<defs>
							<rect id="SVGID_23_" x="261.73" y="41.949" width="14.501" height="50.047"/>
						</defs>
						<clipPath id="SVGID_24_">
							<use xlink:href="#SVGID_23_"  overflow="visible"/>
						</clipPath>
						<path clip-path="url(#SVGID_24_)" d="M262.476,91.69l0.593-0.304l1.185-0.604l2.371-1.21l4.743-2.421V87.15l0.296-0.151
							l0.137-0.286c0.252-0.533,0.453-1.02,0.657-1.533c0.203-0.507,0.39-1.018,0.572-1.528c0.36-1.025,0.682-2.06,0.974-3.103
							c0.297-1.041,0.551-2.093,0.781-3.149c0.112-0.53,0.227-1.058,0.32-1.591c0.104-0.532,0.194-1.08,0.274-1.594
							c0.17-1.057,0.308-2.149,0.424-3.213c0.111-1.071,0.203-2.144,0.271-3.218c0.065-1.074,0.114-2.149,0.138-3.224
							c0.024-1.08,0.03-2.143-0.002-3.246l-0.005-0.177l-0.072-0.17l-3.034-7.037l0.443-7.017l0.025-0.399l-0.264-0.301
							l-3.666-4.167l-0.086-0.098c0.688,26.309-6.184,45.802-7.82,50.048l0.137-0.033C262.092,91.913,262.273,91.782,262.476,91.69"
							/>
					</g>
				</g>
			</g>
		</g>
		<g opacity="0.9" clip-path="url(#SVGID_4_)">
			<g>
				<defs>
					<rect id="SVGID_25_" x="266.847" y="46.42" width="9.385" height="43.038"/>
				</defs>
				<clipPath id="SVGID_26_">
					<use xlink:href="#SVGID_25_"  overflow="visible"/>
				</clipPath>
				<g opacity="0.05" clip-path="url(#SVGID_26_)">
					<g>
						<defs>
							<rect id="SVGID_27_" x="273.482" y="46.42" width="0.085" height="1.439"/>
						</defs>
						<clipPath id="SVGID_28_">
							<use xlink:href="#SVGID_27_"  overflow="visible"/>
						</clipPath>
						<path clip-path="url(#SVGID_28_)" d="M273.541,46.913l0.025-0.4l-0.082-0.093c0,0.481,0.001,0.963-0.003,1.439L273.541,46.913
							z"/>
					</g>
				</g>
				<g opacity="0.05" clip-path="url(#SVGID_26_)">
					<g>
						<defs>
							<rect id="SVGID_29_" x="266.847" y="54.336" width="9.385" height="35.122"/>
						</defs>
						<clipPath id="SVGID_30_">
							<use xlink:href="#SVGID_29_"  overflow="visible"/>
						</clipPath>
						<path clip-path="url(#SVGID_30_)" d="M271.367,87.15L271.367,87.15l0.296-0.15l0.136-0.286
							c0.252-0.534,0.454-1.021,0.658-1.534c0.203-0.507,0.39-1.017,0.572-1.529c0.36-1.023,0.682-2.059,0.975-3.101
							c0.296-1.042,0.549-2.094,0.781-3.15c0.111-0.529,0.225-1.058,0.318-1.591c0.104-0.532,0.194-1.08,0.275-1.594
							c0.17-1.057,0.308-2.149,0.423-3.212c0.113-1.072,0.203-2.145,0.271-3.219c0.065-1.074,0.113-2.148,0.139-3.224
							c0.023-1.08,0.029-2.143-0.002-3.246l-0.006-0.177l-0.073-0.17l-2.857-6.63c-0.891,16.306-4.358,28.887-6.427,35.121
							L271.367,87.15z"/>
					</g>
				</g>
			</g>
		</g>
		<path clip-path="url(#SVGID_4_)" fill="#72A145" d="M248.52,74.552c0.186,0.011,0.358-0.027,0.515-0.127
			c0.208-0.132,0.366-0.305,0.42-0.555c0.033-0.153,0.067-0.306,0.098-0.459c0.131-0.651,0.264-1.301,0.392-1.952
			c0.07-0.359,0.137-0.718,0.204-1.077c0.01-0.058,0.022-0.12,0.014-0.177c-0.04-0.28-0.041-0.315-0.241-0.509
			c-0.016-0.016-0.032-0.031-0.048-0.047c-0.082-0.083-0.182-0.129-0.296-0.146c-0.118-0.017-0.236-0.034-0.354-0.048
			c-0.185-0.02-0.371-0.034-0.556-0.057c-0.259-0.033-0.517-0.068-0.777-0.087c-0.029-0.002-0.059-0.009-0.089-0.013
			c-0.191-0.024-0.384-0.048-0.576-0.071c-0.296-0.035-0.592-0.069-0.888-0.104c-0.06-0.007-0.118-0.019-0.177-0.026
			c-0.186-0.02-0.371-0.038-0.557-0.059c-0.229-0.026-0.459-0.054-0.688-0.082c-0.163-0.02-0.325-0.041-0.488-0.062
			c-0.17-0.022-0.339-0.045-0.51-0.066c-0.17-0.021-0.34-0.038-0.51-0.059c-0.133-0.016-0.267-0.034-0.399-0.051
			c-0.178-0.024-0.354-0.048-0.532-0.07c-0.17-0.021-0.341-0.039-0.511-0.06c-0.199-0.025-0.398-0.053-0.598-0.079
			c-0.155-0.021-0.311-0.04-0.466-0.061c-0.169-0.022-0.34-0.046-0.51-0.068s-0.34-0.042-0.51-0.065
			c-0.281-0.037-0.561-0.077-0.842-0.114c-0.162-0.022-0.325-0.04-0.488-0.062c-0.288-0.039-0.575-0.08-0.862-0.12
			c-0.186-0.025-0.369-0.05-0.555-0.076c-0.221-0.032-0.441-0.066-0.663-0.097c-0.303-0.043-0.604-0.084-0.907-0.126
			c-0.236-0.033-0.473-0.067-0.708-0.1c-0.26-0.036-0.518-0.07-0.775-0.108c-0.347-0.052-0.693-0.106-1.039-0.159
			c-0.273-0.041-0.546-0.081-0.818-0.122c-0.221-0.033-0.441-0.067-0.663-0.101c-0.272-0.041-0.546-0.082-0.817-0.122
			c-0.192-0.028-0.384-0.055-0.576-0.078c-0.136-0.017-0.273-0.002-0.39,0.068c-0.188,0.112-0.316,0.273-0.353,0.494
			c-0.023,0.147-0.052,0.294-0.05,0.444c0.001,0.052-0.003,0.105-0.013,0.156c-0.021,0.11-0.027,0.222-0.031,0.334
			c-0.002,0.059-0.01,0.118-0.015,0.178c-0.024,0.252-0.052,0.504-0.069,0.756c-0.01,0.141-0.023,0.282-0.034,0.423
			c-0.019,0.238-0.035,0.476-0.054,0.713c-0.013,0.156-0.008,0.313-0.01,0.47c0,0.052,0.001,0.105,0.006,0.156
			c0.019,0.16,0.073,0.304,0.189,0.42c0.037,0.037,0.074,0.074,0.11,0.111c0.086,0.089,0.188,0.145,0.31,0.168
			c0.104,0.019,0.205,0.039,0.308,0.058c0.271,0.05,0.543,0.102,0.813,0.15c0.39,0.068,0.779,0.133,1.168,0.199
			c0.419,0.071,0.838,0.142,1.257,0.212c0.31,0.052,0.618,0.104,0.927,0.155c0.302,0.05,0.603,0.102,0.904,0.15
			c0.36,0.058,0.722,0.112,1.082,0.168c0.311,0.048,0.619,0.099,0.929,0.145c0.354,0.053,0.708,0.102,1.062,0.155
			c0.45,0.066,0.899,0.137,1.349,0.203c0.412,0.061,0.826,0.118,1.239,0.176c0.125,0.018,0.251,0.035,0.377,0.051
			c0.162,0.022,0.325,0.041,0.487,0.062c0.296,0.04,0.591,0.081,0.886,0.121c0.126,0.017,0.252,0.032,0.377,0.048
			c0.17,0.023,0.34,0.047,0.511,0.07c0.258,0.034,0.517,0.068,0.774,0.102c0.126,0.016,0.252,0.032,0.377,0.046
			c0.171,0.02,0.341,0.038,0.511,0.058c0.223,0.027,0.444,0.054,0.666,0.081c0.17,0.021,0.341,0.042,0.511,0.064
			c0.162,0.021,0.324,0.044,0.486,0.063c0.186,0.022,0.371,0.036,0.557,0.06c0.251,0.033,0.503,0.062,0.755,0.084
			c0.037,0.003,0.074,0.009,0.11,0.014C248.298,74.528,248.409,74.54,248.52,74.552 M246.448,52.081v-0.003
			c-0.119,0.004-0.238,0.007-0.357,0.012c-0.037,0.002-0.074,0.011-0.11,0.017c-0.321,0.05-0.615,0.175-0.894,0.339
			c-0.213,0.125-0.406,0.279-0.571,0.463c-0.104,0.116-0.196,0.243-0.29,0.368c-0.053,0.072-0.099,0.149-0.142,0.227
			c-0.094,0.171-0.156,0.354-0.208,0.542c-0.059,0.216-0.095,0.436-0.13,0.657c-0.038,0.235-0.072,0.471-0.11,0.706
			c-0.064,0.412-0.133,0.824-0.198,1.236c-0.054,0.346-0.104,0.692-0.158,1.038c-0.054,0.338-0.108,0.676-0.161,1.015
			c-0.066,0.419-0.126,0.84-0.196,1.258c-0.027,0.156-0.03,0.311-0.03,0.468c0,0.169,0.051,0.324,0.138,0.466
			c0.072,0.121,0.165,0.229,0.272,0.323c0.209,0.183,0.456,0.276,0.73,0.306c0.162,0.018,0.325,0.035,0.487,0.056
			c0.243,0.033,0.487,0.063,0.732,0.082c0.037,0.003,0.074,0.01,0.111,0.014c0.199,0.024,0.398,0.048,0.599,0.07
			c0.192,0.021,0.386,0.032,0.577,0.062c0.143,0.022,0.28,0.016,0.422-0.003c0.234-0.032,0.446-0.112,0.635-0.255
			c0.247-0.187,0.414-0.426,0.477-0.732c0.021-0.11,0.037-0.221,0.053-0.331c0.024-0.169,0.048-0.339,0.071-0.509
			c0.036-0.258,0.071-0.516,0.106-0.774c0.034-0.251,0.066-0.502,0.101-0.753c0.009-0.067,0.021-0.132,0.029-0.199
			c0.021-0.17,0.037-0.34,0.061-0.51c0.035-0.251,0.075-0.501,0.109-0.752c0.021-0.147,0.042-0.295,0.053-0.443
			c0.013-0.186,0.047-0.369,0.069-0.554c0.021-0.17,0.044-0.34,0.065-0.51c0.026-0.199,0.048-0.399,0.075-0.598
			c0.026-0.208,0.033-0.418,0.006-0.624c-0.05-0.373-0.162-0.725-0.362-1.048c-0.234-0.378-0.561-0.653-0.938-0.875
			c-0.328-0.149-0.664-0.269-1.032-0.252C246.508,52.082,246.478,52.081,246.448,52.081 M237.806,51.277c-0.046,0-0.075,0-0.105,0
			c-0.357-0.005-0.692,0.087-1.014,0.238c-0.061,0.029-0.119,0.061-0.18,0.09c-0.182,0.091-0.341,0.212-0.492,0.346
			c-0.134,0.119-0.26,0.246-0.379,0.38c-0.225,0.254-0.395,0.542-0.503,0.863c-0.05,0.148-0.085,0.301-0.12,0.454
			c-0.06,0.261-0.115,0.524-0.173,0.786c-0.09,0.415-0.185,0.829-0.269,1.245c-0.146,0.716-0.284,1.433-0.424,2.15
			c-0.066,0.336-0.132,0.673-0.191,1.01c-0.033,0.183-0.069,0.366-0.062,0.555c0.01,0.215,0.072,0.411,0.198,0.584
			c0.179,0.246,0.419,0.403,0.717,0.458c0.235,0.042,0.473,0.066,0.709,0.096c0.186,0.023,0.37,0.04,0.556,0.061
			c0.2,0.024,0.398,0.049,0.598,0.074c0.2,0.024,0.4,0.049,0.6,0.074c0.23,0.028,0.461,0.033,0.687-0.033
			c0.449-0.129,0.753-0.409,0.898-0.855c0.02-0.064,0.035-0.13,0.047-0.195c0.073-0.426,0.146-0.852,0.219-1.278
			c0.068-0.397,0.136-0.794,0.206-1.19c0.062-0.352,0.127-0.704,0.19-1.056c0.102-0.549,0.2-1.099,0.305-1.648
			c0.052-0.279,0.101-0.558,0.139-0.838c0.017-0.126,0.017-0.253-0.002-0.379c-0.008-0.052-0.019-0.103-0.024-0.155
			c-0.026-0.295-0.131-0.565-0.28-0.818c-0.104-0.174-0.23-0.331-0.375-0.471c-0.2-0.195-0.441-0.329-0.699-0.432
			c-0.069-0.028-0.142-0.045-0.214-0.063C238.177,51.281,237.984,51.27,237.806,51.277 M254.537,69.982c0.03,0,0.075,0,0.12,0
			c0.239-0.001,0.448-0.072,0.632-0.236c0.182-0.16,0.292-0.354,0.341-0.587c0.013-0.058,0.019-0.118,0.029-0.176
			c0.079-0.432,0.163-0.864,0.237-1.297c0.094-0.543,0.179-1.087,0.268-1.631c0.019-0.118,0.021-0.237,0.008-0.356
			c-0.017-0.152-0.071-0.289-0.18-0.4c-0.047-0.048-0.094-0.096-0.145-0.141c-0.032-0.029-0.068-0.057-0.108-0.076
			c-0.101-0.05-0.207-0.09-0.318-0.099c-0.148-0.011-0.296-0.036-0.444-0.048c-0.268-0.02-0.533-0.05-0.799-0.086
			c-0.044-0.006-0.089-0.006-0.134-0.009c-0.052-0.003-0.104-0.004-0.156-0.011c-0.251-0.035-0.502-0.061-0.754-0.083
			c-0.045-0.004-0.089-0.013-0.133-0.019c-0.059-0.007-0.118-0.014-0.177-0.02c-0.208-0.02-0.417-0.031-0.622-0.064
			c-0.151-0.024-0.296-0.016-0.442,0.019c-0.202,0.048-0.373,0.146-0.506,0.307c-0.111,0.135-0.188,0.286-0.215,0.461
			c-0.022,0.147-0.047,0.294-0.071,0.441c-0.036,0.22-0.07,0.441-0.107,0.661c-0.068,0.404-0.136,0.808-0.204,1.211
			c-0.045,0.265-0.092,0.529-0.14,0.793c-0.022,0.133-0.023,0.267-0.012,0.401c0.012,0.128,0.055,0.247,0.135,0.35
			c0.157,0.203,0.36,0.332,0.618,0.366c0.155,0.02,0.311,0.037,0.466,0.053c0.207,0.021,0.415,0.037,0.622,0.059
			c0.214,0.023,0.429,0.052,0.644,0.074c0.207,0.021,0.415,0.038,0.622,0.057c0.029,0.003,0.059,0.009,0.089,0.012
			c0.081,0.009,0.163,0.018,0.244,0.026c0.059,0.005,0.12,0.005,0.178,0.016C254.255,69.976,254.388,69.979,254.537,69.982
			 M226.25,61.485c-0.148-0.014-0.279,0.036-0.405,0.105c-0.216,0.119-0.338,0.31-0.396,0.543c-0.027,0.107-0.037,0.22-0.052,0.33
			c-0.023,0.155-0.044,0.31-0.064,0.465c-0.024,0.184-0.049,0.369-0.072,0.553c-0.021,0.17-0.04,0.34-0.061,0.51
			c-0.023,0.192-0.049,0.384-0.07,0.576c-0.022,0.207-0.034,0.416-0.064,0.622c-0.019,0.122,0,0.236,0.019,0.354
			c0.043,0.258,0.327,0.539,0.523,0.599c0.05,0.016,0.101,0.029,0.151,0.038c0.337,0.058,0.675,0.116,1.014,0.172
			c0.329,0.055,0.66,0.107,0.991,0.161c0.279,0.045,0.559,0.095,0.838,0.136c0.266,0.038,0.503-0.022,0.689-0.23
			c0.01-0.011,0.021-0.021,0.032-0.031c0.139-0.128,0.204-0.29,0.223-0.474c0.009-0.081,0.021-0.162,0.031-0.244
			c0.019-0.162,0.039-0.325,0.058-0.487c0.021-0.185,0.039-0.37,0.062-0.555c0.023-0.192,0.051-0.384,0.077-0.576
			c0.023-0.177,0.047-0.354,0.071-0.53c0.032-0.229,0.074-0.456,0.096-0.686c0.034-0.373-0.102-0.67-0.428-0.87
			c-0.063-0.039-0.132-0.067-0.208-0.077c-0.125-0.016-0.251-0.034-0.376-0.05c-0.147-0.019-0.295-0.037-0.442-0.057
			c-0.295-0.039-0.591-0.08-0.886-0.12c-0.162-0.022-0.324-0.042-0.486-0.064c-0.258-0.035-0.517-0.072-0.774-0.107
			C226.31,61.487,226.28,61.487,226.25,61.485"/>
		<path clip-path="url(#SVGID_4_)" fill="#72A145" d="M248.52,74.552c-0.11-0.012-0.222-0.024-0.333-0.036
			c-0.037-0.005-0.073-0.011-0.11-0.014c-0.252-0.022-0.504-0.051-0.755-0.084c-0.186-0.024-0.371-0.039-0.557-0.06
			c-0.162-0.019-0.325-0.042-0.486-0.063c-0.171-0.022-0.341-0.043-0.511-0.064c-0.222-0.028-0.443-0.054-0.666-0.081
			c-0.17-0.02-0.34-0.038-0.511-0.058c-0.125-0.015-0.251-0.03-0.377-0.046c-0.258-0.034-0.517-0.068-0.775-0.102
			c-0.17-0.023-0.34-0.047-0.51-0.07c-0.125-0.016-0.251-0.031-0.377-0.048c-0.295-0.04-0.59-0.081-0.885-0.121
			c-0.163-0.022-0.326-0.041-0.488-0.062c-0.126-0.016-0.252-0.033-0.377-0.051c-0.413-0.058-0.826-0.116-1.239-0.176
			c-0.449-0.067-0.898-0.137-1.349-0.204c-0.354-0.052-0.708-0.101-1.062-0.154c-0.31-0.046-0.618-0.097-0.929-0.145
			c-0.359-0.056-0.722-0.11-1.082-0.168c-0.302-0.048-0.603-0.1-0.904-0.15c-0.309-0.052-0.617-0.103-0.927-0.155
			c-0.419-0.071-0.838-0.141-1.257-0.212c-0.389-0.066-0.779-0.131-1.168-0.199c-0.271-0.048-0.542-0.1-0.812-0.15
			c-0.104-0.019-0.205-0.039-0.309-0.058c-0.121-0.023-0.224-0.079-0.31-0.168c-0.036-0.038-0.073-0.074-0.11-0.111
			c-0.116-0.116-0.171-0.26-0.189-0.42c-0.006-0.051-0.007-0.104-0.007-0.156c0.003-0.157-0.003-0.314,0.011-0.47
			c0.019-0.237,0.035-0.475,0.054-0.713c0.011-0.141,0.024-0.282,0.034-0.423c0.018-0.252,0.045-0.504,0.068-0.756
			c0.006-0.06,0.014-0.119,0.016-0.179c0.004-0.111,0.01-0.223,0.031-0.333c0.01-0.051,0.014-0.104,0.013-0.156
			c-0.001-0.15,0.026-0.297,0.05-0.444c0.036-0.221,0.165-0.382,0.353-0.494c0.116-0.07,0.254-0.085,0.39-0.068
			c0.192,0.023,0.384,0.05,0.576,0.078c0.272,0.04,0.545,0.081,0.817,0.122c0.222,0.033,0.442,0.068,0.663,0.101
			c0.273,0.041,0.545,0.081,0.818,0.122c0.346,0.052,0.692,0.107,1.039,0.159c0.258,0.038,0.516,0.071,0.774,0.108
			c0.236,0.033,0.473,0.067,0.708,0.1c0.304,0.042,0.605,0.083,0.908,0.126c0.222,0.031,0.442,0.065,0.663,0.097
			c0.186,0.026,0.369,0.051,0.554,0.076c0.288,0.04,0.576,0.081,0.864,0.119c0.162,0.022,0.325,0.041,0.487,0.062
			c0.281,0.038,0.561,0.078,0.842,0.115c0.17,0.023,0.34,0.043,0.51,0.065s0.34,0.046,0.511,0.068
			c0.154,0.021,0.31,0.04,0.465,0.061c0.198,0.026,0.398,0.054,0.598,0.079c0.17,0.021,0.341,0.039,0.511,0.06
			c0.178,0.022,0.355,0.046,0.532,0.069c0.133,0.018,0.266,0.036,0.399,0.052c0.17,0.021,0.34,0.038,0.511,0.059
			c0.17,0.021,0.339,0.044,0.509,0.066c0.163,0.021,0.326,0.042,0.488,0.062c0.229,0.028,0.459,0.056,0.688,0.082
			c0.186,0.021,0.371,0.038,0.557,0.059c0.059,0.006,0.117,0.019,0.177,0.026c0.296,0.035,0.592,0.068,0.888,0.104
			c0.192,0.022,0.384,0.047,0.576,0.071c0.03,0.004,0.06,0.01,0.089,0.013c0.26,0.019,0.519,0.054,0.777,0.086
			c0.185,0.024,0.371,0.038,0.556,0.058c0.118,0.014,0.237,0.03,0.354,0.048c0.113,0.017,0.214,0.063,0.296,0.146
			c0.016,0.016,0.032,0.031,0.048,0.047c0.2,0.194,0.201,0.229,0.242,0.509c0.008,0.057-0.004,0.119-0.016,0.177
			c-0.066,0.359-0.133,0.718-0.203,1.077c-0.129,0.651-0.261,1.301-0.392,1.952c-0.031,0.153-0.064,0.306-0.098,0.459
			c-0.055,0.25-0.211,0.423-0.42,0.555C248.878,74.525,248.706,74.563,248.52,74.552"/>
		<path clip-path="url(#SVGID_4_)" fill="#72A145" d="M246.448,52.081c0.03,0,0.06,0.001,0.089,0
			c0.369-0.017,0.704,0.103,1.033,0.252c0.377,0.222,0.704,0.497,0.938,0.875c0.201,0.323,0.313,0.675,0.362,1.048
			c0.028,0.206,0.022,0.416-0.006,0.624c-0.026,0.199-0.049,0.399-0.074,0.598c-0.021,0.17-0.045,0.34-0.065,0.51
			c-0.022,0.185-0.057,0.368-0.069,0.554c-0.01,0.148-0.032,0.296-0.053,0.443c-0.035,0.251-0.075,0.501-0.109,0.752
			c-0.022,0.17-0.04,0.34-0.06,0.51c-0.01,0.067-0.022,0.132-0.031,0.199c-0.033,0.251-0.066,0.502-0.099,0.753
			c-0.035,0.258-0.071,0.516-0.107,0.774c-0.024,0.17-0.047,0.339-0.072,0.509c-0.016,0.11-0.029,0.221-0.052,0.331
			c-0.062,0.306-0.229,0.545-0.476,0.732c-0.189,0.143-0.401,0.223-0.637,0.255c-0.141,0.019-0.278,0.025-0.421,0.003
			c-0.19-0.03-0.385-0.041-0.578-0.062c-0.198-0.022-0.398-0.046-0.598-0.07c-0.037-0.004-0.074-0.011-0.111-0.014
			c-0.245-0.019-0.488-0.049-0.732-0.082c-0.162-0.021-0.325-0.038-0.488-0.056c-0.273-0.03-0.52-0.123-0.729-0.306
			c-0.107-0.094-0.199-0.202-0.273-0.323c-0.086-0.142-0.136-0.297-0.136-0.466c-0.001-0.157,0.003-0.312,0.028-0.468
			c0.071-0.418,0.132-0.839,0.196-1.258c0.053-0.339,0.109-0.677,0.162-1.015c0.054-0.346,0.104-0.692,0.159-1.038
			c0.064-0.412,0.132-0.824,0.198-1.236c0.036-0.235,0.071-0.471,0.109-0.706c0.035-0.221,0.07-0.441,0.13-0.657
			c0.052-0.188,0.114-0.371,0.208-0.542c0.043-0.078,0.088-0.155,0.142-0.227c0.093-0.125,0.187-0.252,0.291-0.368
			c0.165-0.184,0.357-0.338,0.57-0.463c0.277-0.164,0.571-0.29,0.894-0.339c0.037-0.006,0.074-0.015,0.11-0.017
			c0.119-0.005,0.238-0.008,0.357-0.012V52.081z"/>
		<path clip-path="url(#SVGID_4_)" fill="#72A145" d="M237.806,51.277c0.179-0.008,0.371,0.004,0.562,0.053
			c0.072,0.018,0.145,0.035,0.214,0.063c0.258,0.103,0.499,0.237,0.699,0.432c0.145,0.14,0.271,0.297,0.375,0.471
			c0.149,0.253,0.254,0.522,0.281,0.818c0.005,0.052,0.016,0.103,0.023,0.155c0.02,0.126,0.02,0.253,0.002,0.379
			c-0.038,0.28-0.087,0.559-0.139,0.837c-0.104,0.55-0.203,1.1-0.304,1.649c-0.064,0.352-0.13,0.704-0.191,1.056
			c-0.07,0.396-0.138,0.793-0.206,1.189c-0.073,0.426-0.145,0.853-0.219,1.278c-0.011,0.066-0.027,0.132-0.048,0.196
			c-0.145,0.446-0.448,0.726-0.897,0.855c-0.226,0.066-0.456,0.061-0.687,0.033c-0.199-0.025-0.399-0.05-0.6-0.074
			c-0.199-0.025-0.398-0.051-0.598-0.074c-0.186-0.022-0.371-0.039-0.555-0.061c-0.237-0.03-0.476-0.054-0.709-0.097
			c-0.299-0.054-0.539-0.211-0.718-0.457c-0.126-0.173-0.188-0.369-0.197-0.584c-0.009-0.189,0.027-0.372,0.061-0.555
			c0.06-0.337,0.125-0.674,0.191-1.01c0.14-0.717,0.278-1.434,0.424-2.15c0.084-0.416,0.179-0.83,0.269-1.245
			c0.058-0.262,0.113-0.525,0.173-0.786c0.035-0.153,0.07-0.306,0.12-0.454c0.108-0.321,0.278-0.609,0.503-0.863
			c0.119-0.134,0.245-0.261,0.379-0.38c0.151-0.134,0.311-0.255,0.492-0.346c0.061-0.03,0.119-0.061,0.181-0.09
			c0.32-0.152,0.655-0.243,1.013-0.238C237.73,51.277,237.76,51.277,237.806,51.277"/>
		<path clip-path="url(#SVGID_4_)" fill="#72A145" d="M254.537,69.981c-0.149-0.003-0.283-0.006-0.415-0.031
			c-0.058-0.012-0.119-0.011-0.178-0.017c-0.081-0.008-0.163-0.016-0.244-0.025c-0.03-0.004-0.06-0.01-0.089-0.013
			c-0.207-0.019-0.415-0.035-0.622-0.057c-0.215-0.022-0.429-0.051-0.644-0.074c-0.208-0.021-0.415-0.038-0.623-0.059
			c-0.154-0.016-0.31-0.033-0.465-0.053c-0.258-0.034-0.461-0.163-0.619-0.366c-0.078-0.103-0.121-0.222-0.134-0.35
			c-0.012-0.134-0.011-0.268,0.013-0.401c0.047-0.264,0.094-0.528,0.139-0.792c0.068-0.404,0.136-0.808,0.204-1.212
			c0.037-0.22,0.071-0.441,0.107-0.661c0.024-0.147,0.05-0.294,0.071-0.441c0.027-0.175,0.104-0.326,0.215-0.46
			c0.132-0.161,0.304-0.26,0.506-0.308c0.146-0.035,0.291-0.043,0.442-0.018c0.205,0.032,0.414,0.043,0.622,0.063
			c0.059,0.006,0.118,0.013,0.177,0.021c0.044,0.005,0.088,0.015,0.133,0.018c0.252,0.022,0.503,0.049,0.754,0.084
			c0.052,0.007,0.104,0.007,0.156,0.01c0.045,0.003,0.089,0.004,0.134,0.01c0.266,0.035,0.531,0.065,0.8,0.086
			c0.147,0.011,0.295,0.037,0.442,0.048c0.112,0.008,0.219,0.048,0.319,0.098c0.04,0.019,0.076,0.047,0.108,0.076
			c0.051,0.045,0.098,0.094,0.145,0.141c0.109,0.111,0.163,0.249,0.18,0.4c0.014,0.119,0.011,0.238-0.009,0.357
			c-0.088,0.543-0.173,1.088-0.267,1.631c-0.074,0.433-0.158,0.864-0.237,1.296c-0.011,0.059-0.016,0.118-0.029,0.177
			c-0.05,0.232-0.159,0.426-0.341,0.587c-0.184,0.163-0.393,0.234-0.633,0.235C254.612,69.981,254.567,69.981,254.537,69.981"/>
		<path clip-path="url(#SVGID_4_)" fill="#72A145" d="M226.25,61.485c0.03,0.002,0.06,0.002,0.089,0.006
			c0.258,0.035,0.517,0.072,0.774,0.107c0.162,0.022,0.324,0.042,0.486,0.064c0.295,0.04,0.591,0.081,0.886,0.12
			c0.147,0.02,0.295,0.038,0.442,0.057c0.125,0.016,0.251,0.034,0.376,0.05c0.076,0.01,0.145,0.038,0.208,0.077
			c0.326,0.2,0.462,0.497,0.428,0.87c-0.021,0.23-0.063,0.457-0.096,0.686c-0.024,0.176-0.048,0.353-0.071,0.53
			c-0.026,0.192-0.054,0.384-0.077,0.576c-0.022,0.185-0.04,0.37-0.062,0.555c-0.019,0.162-0.039,0.325-0.058,0.487
			c-0.01,0.082-0.022,0.163-0.031,0.244c-0.019,0.184-0.084,0.346-0.223,0.474c-0.012,0.01-0.022,0.02-0.032,0.031
			c-0.187,0.208-0.424,0.268-0.689,0.23c-0.279-0.041-0.559-0.091-0.838-0.136c-0.331-0.054-0.662-0.106-0.991-0.161
			c-0.339-0.056-0.677-0.114-1.014-0.172c-0.051-0.009-0.102-0.022-0.151-0.038c-0.196-0.06-0.48-0.341-0.523-0.599
			c-0.019-0.118-0.037-0.232-0.019-0.354c0.03-0.206,0.042-0.415,0.064-0.622c0.021-0.192,0.047-0.384,0.07-0.576
			c0.021-0.17,0.04-0.34,0.061-0.51c0.023-0.184,0.048-0.369,0.072-0.553c0.021-0.155,0.041-0.31,0.064-0.465
			c0.015-0.11,0.024-0.223,0.052-0.33c0.059-0.233,0.181-0.424,0.396-0.543C225.971,61.521,226.102,61.471,226.25,61.485"/>
		<g opacity="0.05" clip-path="url(#SVGID_4_)">
			<g>
				<defs>
					<rect id="SVGID_31_" x="215.563" y="84.351" width="99.121" height="48.36"/>
				</defs>
				<clipPath id="SVGID_32_">
					<use xlink:href="#SVGID_31_"  overflow="visible"/>
				</clipPath>
				<path clip-path="url(#SVGID_32_)" d="M304.458,100.091c-1.212-0.325-2.482-0.507-3.797-0.507c-5.712,0-10.651,3.268-13.08,8.029
					c-0.418,0.844-0.871,1.667-1.348,2.474c-0.155,0.264-0.327,0.517-0.489,0.776c-0.334,0.536-0.671,1.068-1.031,1.587
					c-0.206,0.297-0.425,0.584-0.639,0.874c-0.343,0.464-0.688,0.924-1.05,1.371c-0.237,0.295-0.483,0.583-0.731,0.871
					c-0.364,0.423-0.734,0.841-1.117,1.249c-0.262,0.279-0.528,0.555-0.798,0.826c-0.396,0.398-0.799,0.784-1.212,1.163
					c-0.21,0.194-0.422,0.387-0.637,0.576c-2.619,0.835-2.239-2.592-2.239-2.592l-0.004,0.002c0.182-1.142,0.274-2.454,0.247-3.975
					c-0.039-2.166-0.406-4.192-0.967-6.059c-0.005-0.023-0.009-0.041-0.015-0.064c-0.556-2.206,1.383-3.97,3.102-5.062
					c-0.772,0.162-1.563,0.272-2.384,0.272c-4.269,0-7.995-2.283-10.052-5.688l-2.017,4.125c0,0,0.206,0.525,0.451,1.404h-1.12
					c0.395,3.138,0.416,7.914-2.016,12.073c-4.023,6.88,1.01,10.477,3.615,10.856c0.84,0.123,2.128,0.244,3.511-0.062l0.79,0.747
					c-3.886,1.812-8.126,2.99-12.588,3.411l-1.186-0.728c-19.947,0-36.12-15.414-36.152-34.438c0.157-5.743,7.359-5.846,7.359-5.846
					l-0.017-0.021c2.058,0.016,4.196,0.069,6.226,0.19c-6.925-1.189-12.721-2.639-16.16-3.579c-0.372,1.364-0.69,2.75-0.908,4.171
					c-0.021,0.141-0.038,0.282-0.058,0.425c-0.109,0.758-0.195,1.522-0.259,2.295c-0.01,0.119-0.023,0.236-0.032,0.355
					c-0.061,0.837-0.089,1.684-0.095,2.534c-0.002,0.234-0.001,0.47,0.001,0.706c0.004,0.362,0.015,0.724,0.028,1.085
					c0.011,0.271,0.023,0.539,0.039,0.811c0.022,0.387,0.053,0.771,0.088,1.154c0.021,0.229,0.041,0.456,0.065,0.685
					c0.045,0.413,0.099,0.823,0.156,1.232c0.03,0.21,0.058,0.42,0.091,0.629c0.062,0.393,0.135,0.78,0.209,1.168
					c0.044,0.232,0.084,0.466,0.133,0.695c0.021,0.101,0.046,0.199,0.068,0.299c0.049,0.219,0.1,0.436,0.15,0.651
					c0.072,0.3,0.138,0.602,0.217,0.898c0.023,0.087,0.048,0.172,0.072,0.257c0.012,0.041,0.024,0.081,0.035,0.122
					c3.675,13.339,14.466,23.824,27.917,27.114c0.117,0.028,0.233,0.054,0.35,0.08c0.438,0.104,0.877,0.2,1.319,0.287
					c0.079,0.015,0.158,0.028,0.238,0.042c0.162,0.031,0.326,0.06,0.489,0.088c0.336,0.06,0.671,0.12,1.011,0.17
					c0.112,0.018,0.229,0.029,0.343,0.044c0.269,0.037,0.539,0.071,0.81,0.104c0.218,0.025,0.436,0.057,0.653,0.078
					c0.576,0.058,1.155,0.101,1.738,0.132c0.045,0.003,0.089,0.008,0.133,0.01c0.02,0.001,0.04,0.002,0.061,0.002
					c0.025,0.001,0.051,0.001,0.077,0.002c0.754,0.035,1.5,0.041,2.243,0.033c0.163-0.002,0.325-0.01,0.486-0.015
					c0.204-0.005,0.406-0.013,0.609-0.02c0.495-0.02,0.989-0.043,1.48-0.082c0.102-0.007,0.202-0.019,0.304-0.027
					c0.265-0.023,0.529-0.048,0.793-0.076c0.482-0.05,0.961-0.109,1.438-0.179c0.214-0.03,0.425-0.066,0.637-0.101
					c0.146-0.024,0.294-0.044,0.439-0.07c0.474-0.082,0.944-0.175,1.411-0.274l-0.583-0.357c3.81-0.753,7.417-2.063,10.729-3.855
					v0.001l0.001-0.001c0.83-0.449,1.637-0.932,2.427-1.438c0.247-0.158,0.482-0.331,0.725-0.495
					c0.533-0.358,1.064-0.723,1.578-1.106c0.285-0.213,0.559-0.439,0.836-0.66c0.455-0.36,0.906-0.724,1.344-1.105
					c0.285-0.247,0.561-0.503,0.838-0.758c0.413-0.38,0.816-0.766,1.212-1.163c0.27-0.271,0.536-0.547,0.798-0.828
					c0.383-0.406,0.753-0.824,1.117-1.249c0.248-0.287,0.494-0.574,0.731-0.869c0.362-0.448,0.707-0.908,1.05-1.371
					c0.214-0.291,0.433-0.577,0.639-0.874c0.36-0.519,0.697-1.053,1.031-1.588c0.162-0.26,0.334-0.513,0.489-0.775
					c0.477-0.808,0.93-1.631,1.348-2.474c2.429-4.763,7.368-8.03,13.08-8.03c5.979,0,11.107,3.58,13.399,8.707
					C312.707,106.663,309.061,102.612,304.458,100.091"/>
			</g>
		</g>
		<path clip-path="url(#SVGID_4_)" fill="#464749" d="M273.814,119.342l-11.237,0.589c-1.12,0.06-1.984,1.02-1.926,2.142
			l0.243,4.645c0.043,0.811,0.563,1.518,1.324,1.802l0.714,0.267l-0.344-6.564c-0.012-0.21,0.15-0.389,0.358-0.399l10.697-0.561
			c0.208-0.011,0.388,0.15,0.399,0.359l0.344,6.563l0.682-0.338c0.728-0.362,1.171-1.121,1.128-1.931l-0.242-4.646
			C275.896,120.147,274.937,119.283,273.814,119.342"/>
		<path clip-path="url(#SVGID_4_)" fill="#848283" d="M272.067,119.434l-11.237,0.589c-1.121,0.059-1.985,1.02-1.926,2.141
			l0.242,4.646c0.044,0.81,0.563,1.517,1.324,1.802l0.714,0.267l-0.344-6.564c-0.011-0.21,0.151-0.389,0.359-0.4l10.696-0.56
			c0.209-0.011,0.389,0.15,0.399,0.359l0.344,6.563l0.683-0.338c0.727-0.363,1.171-1.121,1.128-1.931l-0.243-4.646
			C274.148,120.239,273.188,119.375,272.067,119.434"/>
		<path clip-path="url(#SVGID_4_)" fill="#A91F23" d="M288.492,123.009l-35.791,1.876c-1.491,0.078-2.638,1.352-2.56,2.844
			l0.245,4.662l0.025,0.499l0.48,9.158c0.078,1.491,1.351,2.639,2.843,2.561l35.791-1.876c1.491-0.078,2.638-1.352,2.56-2.844
			l-0.479-9.156l-0.027-0.5l-0.243-4.663C291.258,124.077,289.984,122.931,288.492,123.009"/>
		<path clip-path="url(#SVGID_4_)" fill="#C02726" d="M285.609,142.938l-35.791,1.876c-1.492,0.078-2.764-1.068-2.843-2.561
			l-0.75-14.319c-0.078-1.492,1.068-2.766,2.56-2.844l35.79-1.876c1.492-0.078,2.766,1.068,2.844,2.561l0.751,14.319
			C288.248,141.586,287.102,142.859,285.609,142.938"/>
		<path clip-path="url(#SVGID_4_)" fill="#C1C1C1" d="M283.806,135.646l-32.144,1.685c-0.345,0.019-0.639-0.246-0.656-0.592
			c-0.019-0.345,0.247-0.639,0.591-0.656l32.144-1.685c0.345-0.018,0.639,0.246,0.656,0.591
			C284.415,135.335,284.15,135.629,283.806,135.646"/>
		<path clip-path="url(#SVGID_4_)" fill="#C1C1C1" d="M283.963,138.643l-32.144,1.685c-0.345,0.019-0.639-0.247-0.657-0.592
			c-0.018-0.345,0.247-0.639,0.592-0.657l32.144-1.684c0.344-0.019,0.638,0.246,0.656,0.591
			C284.571,138.33,284.308,138.624,283.963,138.643"/>
		<g opacity="0.05" clip-path="url(#SVGID_4_)">
			<g>
				<defs>
					<rect id="SVGID_33_" x="246.47" y="130.438" width="41.22" height="2.658"/>
				</defs>
				<clipPath id="SVGID_34_">
					<use xlink:href="#SVGID_33_"  overflow="visible"/>
				</clipPath>

					<rect x="246.455" y="131.517" transform="matrix(0.9986 -0.0523 0.0523 0.9986 -6.531 14.1606)" clip-path="url(#SVGID_34_)" width="41.25" height="0.5"/>
			</g>
		</g>
		<path clip-path="url(#SVGID_4_)" fill="#C1C1C1" d="M267.613,134.195L267.613,134.195c-1.06,0.056-1.964-0.759-2.02-1.819
			l-0.12-2.289c-0.02-0.382,0.273-0.707,0.654-0.727l2.458-0.129c0.381-0.021,0.707,0.272,0.727,0.653l0.12,2.29
			C269.487,133.235,268.674,134.139,267.613,134.195"/>
		<path clip-path="url(#SVGID_4_)" fill="#F1EDEF" d="M267.208,134.217L267.208,134.217c-1.06,0.056-1.964-0.76-2.021-1.819
			l-0.119-2.289c-0.021-0.382,0.272-0.707,0.654-0.728l2.457-0.129c0.381-0.02,0.707,0.273,0.728,0.654l0.12,2.29
			C269.082,133.256,268.268,134.16,267.208,134.217"/>
		<path clip-path="url(#SVGID_4_)" fill="#848283" d="M267.906,130.993c-0.025-0.477-0.433-0.844-0.91-0.819
			c-0.478,0.025-0.844,0.433-0.819,0.91c0.014,0.253,0.139,0.471,0.32,0.619l-0.113,1.094c-0.033,0.318,0.227,0.592,0.546,0.574
			l0.468-0.023c0.318-0.018,0.548-0.315,0.481-0.628l-0.227-1.077C267.817,131.476,267.919,131.247,267.906,130.993"/>
		<path clip-path="url(#SVGID_4_)" fill="#F1EDEF" d="M283.4,135.668l-32.144,1.685c-0.345,0.019-0.639-0.247-0.657-0.592
			c-0.018-0.345,0.247-0.639,0.591-0.657l32.145-1.684c0.344-0.019,0.638,0.246,0.656,0.591
			C284.009,135.355,283.745,135.649,283.4,135.668"/>
		<path clip-path="url(#SVGID_4_)" fill="#F1EDEF" d="M283.557,138.664l-32.143,1.685c-0.345,0.018-0.64-0.247-0.657-0.592
			s0.247-0.64,0.591-0.657l32.145-1.684c0.344-0.019,0.638,0.246,0.655,0.591C284.166,138.352,283.902,138.646,283.557,138.664"/>
		<path clip-path="url(#SVGID_4_)" fill="#FFFFFF" d="M262.3,100.007c0,0,3.019,7.616-0.157,14.128
			c-3.176,6.514,1.632,9.43,4.02,9.597s8.676,0.042,8.47-11.25c-0.207-11.292-9.195-18.893-9.195-18.893"/>
		<g opacity="0.05" clip-path="url(#SVGID_4_)">
			<g>
				<defs>
					<rect id="SVGID_35_" x="129.463" y="26.683" width="90.333" height="34.524"/>
				</defs>
				<clipPath id="SVGID_36_">
					<use xlink:href="#SVGID_35_"  overflow="visible"/>
				</clipPath>
				<path clip-path="url(#SVGID_36_)" d="M151.495,30.238c0.174,0,0.315-0.141,0.315-0.315c0-0.174-0.141-0.315-0.315-0.315
					c-0.174,0-0.315,0.141-0.315,0.315C151.18,30.097,151.321,30.238,151.495,30.238"/>
				<path clip-path="url(#SVGID_36_)" d="M162.658,30.162c-0.174,0-0.315-0.141-0.315-0.315c0-0.174,0.141-0.315,0.315-0.315
					c0.174,0,0.315,0.141,0.315,0.315C162.973,30.021,162.833,30.162,162.658,30.162"/>
				<path clip-path="url(#SVGID_36_)" d="M143.518,30.583c0.174,0,0.315-0.141,0.315-0.315s-0.141-0.315-0.315-0.315
					c-0.174,0-0.315,0.141-0.315,0.315S143.343,30.583,143.518,30.583"/>
				<path clip-path="url(#SVGID_36_)" d="M151.483,54.441l-1.017-2.58l0.877-0.687l0.859,0.042l1.191,2.506
					c1.382-1.327,1.062-3.159,0.82-3.983l0.891-0.358l-0.595-1.364l-0.397,0.124c0,0-0.819-1.364-0.992-1.86
					c-0.174-0.496-0.125-2.615-0.125-3.788V30.489h-0.004c-0.045-0.789-0.698-1.416-1.499-1.416c-0.83,0-1.503,0.673-1.503,1.503
					l0.668,13.792c0,1.194-0.092,2.235-1.059,3.723c-0.605,0.931-1.035,1.493-1.273,2.105c-0.042,0.109-0.077,0.222-0.107,0.337
					c-0.009,0.034-0.016,0.07-0.024,0.105c-0.019,0.087-0.035,0.178-0.048,0.272c-0.005,0.038-0.011,0.076-0.014,0.115
					c-0.014,0.131-0.022,0.267-0.022,0.415C148.11,52.754,149.747,54.069,151.483,54.441 M150.614,30.985
					c-0.012-0.025-0.022-0.052-0.031-0.078c-0.012-0.031-0.022-0.063-0.03-0.095c-0.007-0.028-0.012-0.057-0.017-0.085
					c-0.008-0.049-0.015-0.099-0.015-0.151c0-0.536,0.435-0.971,0.971-0.971c0.537,0,0.971,0.435,0.971,0.971
					s-0.434,0.971-0.971,0.971c-0.065,0-0.128-0.007-0.19-0.019c-0.021-0.004-0.04-0.012-0.06-0.017
					c-0.04-0.011-0.079-0.021-0.117-0.036c-0.023-0.01-0.044-0.023-0.066-0.034c-0.032-0.016-0.064-0.032-0.095-0.051
					c-0.021-0.015-0.041-0.031-0.062-0.047c-0.027-0.021-0.054-0.042-0.079-0.066c-0.019-0.018-0.036-0.038-0.054-0.058
					c-0.022-0.025-0.044-0.05-0.064-0.078c-0.016-0.022-0.03-0.045-0.044-0.069C150.645,31.044,150.628,31.015,150.614,30.985"/>
				<path clip-path="url(#SVGID_36_)" d="M141.147,58.731c0.207,0.961,0.87,1.683,1.883,2.476l-0.599-2.587
					c0,0,0.13-0.429,1.321-0.596c1.192-0.168,1.433,0.261,1.433,0.261l0.615,2.345c0,0,0.781-1.471,0.465-2.811
					c-0.02-0.082-0.05-0.151-0.075-0.228l0.012,0.002c0,0-0.027-0.087-0.082-0.219c-0.02-0.048-0.042-0.092-0.064-0.138
					c-0.141-0.293-0.394-0.714-0.818-1.077c-0.673-0.576-0.635-1.038-0.635-1.95V34.875c0-0.768,0.182-1.761,0.52-2.298h-0.011
					c0.323-0.373,0.525-0.852,0.525-1.384c0-1.171-0.949-2.12-2.12-2.12s-2.12,0.949-2.12,2.12c0,0.532,0.202,1.011,0.525,1.384
					h-0.012c0.339,0.537,0.521,1.53,0.521,2.298v19.334c0,0.912-0.073,1.251-0.54,2.084c-0.283,0.506-0.461,0.894-0.573,1.183
					c-0.077,0.17-0.132,0.342-0.165,0.514c-0.023,0.1-0.028,0.154-0.028,0.154l0.011-0.004
					C141.112,58.348,141.108,58.55,141.147,58.731 M142.078,31.193l0.72-1.247h1.44l0.72,1.247l-0.72,1.247h-1.44L142.078,31.193z"
					/>
				<path clip-path="url(#SVGID_36_)" d="M193.38,58.712c0.314,0,0.569,0.255,0.569,0.569c0,0.315-0.255,0.57-0.569,0.57
					c-0.315,0-0.569-0.255-0.569-0.57C192.812,58.968,193.065,58.712,193.38,58.712"/>
				<path clip-path="url(#SVGID_36_)" d="M165.754,51.798l0.047,0.085v-6.88c0-0.661-0.117-1.277-0.265-1.794h0.001l-0.139-0.922
					l-0.041-0.273l-0.019-0.131c-0.045-0.301-0.21-1.409-0.285-1.679c-0.087-0.313-0.191-0.47-0.557-0.574
					c-0.365-0.105-0.956-0.94-0.713-1.897c0.244-0.957,0.543-2.262,0.543-3.288v-4.266c0-0.921-0.747-1.668-1.668-1.668
					s-1.668,0.747-1.668,1.668v4.266c0,1.026,0.3,2.331,0.543,3.288c0.244,0.957-0.348,1.792-0.713,1.897
					c-0.366,0.104-0.47,0.261-0.557,0.574c-0.074,0.268-0.238,1.363-0.283,1.673l-0.021,0.137l-0.031,0.205l-0.148,0.99
					c-0.148,0.517-0.265,1.133-0.265,1.794v6.88l0.078-0.121l0.063,0.121l0.058-0.148l0.086,0.148h0.022h0.03h0.013l0.062-0.096
					l0.105,0.096l0.079-0.099l0.141,0.099h0.023h0.03h0.005l0.117-0.121l0.067,0.121h0.017h0.03h0.015l0.089-0.118l0.073,0.118
					h0.018h0.03h0.031l0.111-0.81l0.072,0.81h0.026h0.03h0.017l0.101-0.173l0.081,0.173h0.03h0.03h0.021l0.103-0.088l0.078,0.088
					h0.032h0.03h0.003l0.144-0.134l0.093,0.134h0.022h0.03h0.022l0.038-0.102l0.042,0.102h0.027h0.03h0.015l0.064-0.602l0.079,0.602
					h0.054h0.03h0.005l0.099-0.11l0.11,0.11l0.112-0.145l0.08,0.145l0.115-0.123l0.081,0.123h0.033h0.03h0.004l0.061-0.099
					l0.106,0.099l0.085-0.074l0.074,0.074h0.018h0.029h0.014l0.096-0.126l0.112,0.126h0.025h0.03h0.003l0.109-0.126l0.127,0.126
					l0.073-0.153l0.096,0.153l0.105-0.102l0.052,0.102h0.019h0.03h0.009l0.063-0.058l0.073,0.058h0.059h0.029l0.069-0.093
					l0.096,0.093h0.064h0.029h0.011l0.08-0.126l0.101,0.126h0.08l0.051-0.129l0.168,0.129h0.018h0.03h0.094h0.025h0.005v-0.01
					l0.067-0.149l0.096,0.159l0.121-0.08l0.062,0.08L165.754,51.798z M163.308,30.179c0,0.359-0.291,0.65-0.65,0.65
					s-0.65-0.291-0.65-0.65c0-0.359,0.291-0.65,0.65-0.65S163.308,29.82,163.308,30.179"/>
				<path clip-path="url(#SVGID_36_)" d="M175.633,56.555l0.06,0.11v-6.967c0-0.848-0.151-1.64-0.34-2.304l-0.163-1.091
					l-0.067-0.444l-0.025-0.168c-0.017-0.113-0.047-0.313-0.083-0.55l-0.001-0.005c-0.088-0.576-0.214-1.358-0.282-1.603
					c-0.112-0.402-0.246-0.604-0.715-0.738c-0.469-0.134-1.229-1.207-0.917-2.436c0.313-1.229,0.698-2.906,0.698-4.225v-5.48
					c0-1.184-0.959-2.143-2.143-2.143c-1.183,0-2.143,0.959-2.143,2.143v5.48c0,1.319,0.385,2.996,0.698,4.225
					s-0.447,2.302-0.916,2.436c-0.47,0.134-0.604,0.336-0.716,0.738c-0.068,0.245-0.193,1.027-0.282,1.603v0.004
					c-0.036,0.234-0.065,0.431-0.082,0.545l-0.257,1.709h0.001c-0.19,0.664-0.34,1.456-0.34,2.304v6.967l0.099-0.156l0.082,0.156
					l0.074-0.191l0.11,0.191h0.029h0.038h0.017l0.08-0.124l0.135,0.124l0.101-0.127l0.181,0.127h0.03h0.038h0.007l0.15-0.156
					l0.086,0.156h0.022h0.038h0.02l0.114-0.152l0.094,0.152h0.024h0.038h0.039l0.143-1.041l0.092,1.041h0.034h0.038h0.022
					l0.13-0.223l0.104,0.223h0.038h0.039h0.027l0.132-0.114l0.101,0.114h0.041h0.038h0.004l0.185-0.173l0.119,0.173h0.029h0.038
					h0.029l0.049-0.131l0.053,0.131h0.035h0.038h0.02l0.082-0.775l0.102,0.775h0.069h0.038h0.007l0.127-0.142l0.141,0.142
					l0.144-0.187l0.103,0.187l0.148-0.159l0.104,0.159h0.042h0.038h0.006l0.078-0.127l0.137,0.127l0.109-0.096l0.095,0.096h0.023
					h0.038h0.017l0.124-0.163l0.144,0.163h0.032h0.038h0.004l0.141-0.163l0.162,0.163l0.095-0.198l0.122,0.198l0.135-0.131
					l0.067,0.131h0.024h0.038h0.012l0.081-0.075l0.093,0.075h0.077h0.038l0.088-0.121l0.124,0.121h0.081h0.038h0.014l0.102-0.163
					l0.131,0.163h0.102l0.066-0.166l0.215,0.166h0.024h0.038h0.121h0.033h0.006v-0.014l0.086-0.191l0.123,0.205l0.155-0.103
					l0.08,0.103L175.633,56.555z M172.49,30.654c0,0.461-0.374,0.835-0.835,0.835s-0.834-0.374-0.834-0.835
					c0-0.443,0.345-0.802,0.781-0.83c-0.154,0.021-0.275,0.148-0.275,0.308c0,0.173,0.141,0.314,0.315,0.314
					c0.174,0,0.315-0.141,0.315-0.314c0-0.17-0.134-0.305-0.301-0.313C172.117,29.819,172.49,30.193,172.49,30.654"/>
				<path clip-path="url(#SVGID_36_)" d="M129.482,48.49c0.136,0.629,0.57,1.101,1.233,1.62l-0.392-1.694
					c0,0,0.085-0.28,0.865-0.389c0.78-0.11,0.938,0.17,0.938,0.17l0.402,1.535c0,0,0.512-0.962,0.305-1.839
					c-0.013-0.055-0.033-0.1-0.049-0.15l0.008,0.001c0,0-0.018-0.057-0.054-0.143c-0.013-0.031-0.028-0.06-0.042-0.09
					c-0.092-0.192-0.258-0.468-0.535-0.705c-0.441-0.378-0.416-0.68-0.416-1.277V32.872c0-0.503,0.119-1.154,0.34-1.505h-0.007
					c0.211-0.244,0.344-0.558,0.344-0.906c0-0.767-0.622-1.388-1.388-1.388c-0.767,0-1.388,0.621-1.388,1.388
					c0,0.348,0.132,0.662,0.344,0.906h-0.008c0.221,0.351,0.341,1.002,0.341,1.505v12.657c0,0.597-0.048,0.819-0.354,1.365
					c-0.185,0.33-0.301,0.584-0.375,0.773c-0.05,0.112-0.086,0.225-0.108,0.337c-0.015,0.066-0.018,0.101-0.018,0.101l0.007-0.002
					C129.458,48.239,129.456,48.371,129.482,48.49 M130.091,30.461l0.471-0.817h0.437c-0.157,0.019-0.28,0.147-0.28,0.309
					c0,0.174,0.141,0.315,0.315,0.315c0.174,0,0.315-0.141,0.315-0.315c0-0.162-0.124-0.29-0.28-0.309h0.436l0.471,0.817
					l-0.471,0.816h-0.943L130.091,30.461z"/>
				<path clip-path="url(#SVGID_36_)" d="M219.546,30.926h-5.749c-0.027,0.396-0.079,0.688-0.079,0.688l-1.174,0.952
					c-0.05,0.138-0.104,0.276-0.167,0.414l-2.511,0.108c-0.007,0.018-0.011,0.035-0.019,0.053l-1.866,0.047
					c-0.041,0.114-0.077,0.228-0.125,0.342l-4.03,0.89c-0.018,0.09-0.029,0.146-0.029,0.146l-2.146,0.459l-0.002-0.006
					c-0.241,0.05-0.613,0.136-0.888,0.249c0.066-0.028,0.14-0.044,0.217-0.044c0.315,0,0.569,0.255,0.569,0.569
					c0,0.315-0.254,0.57-0.569,0.57c-0.314,0-0.569-0.255-0.569-0.57c0-0.234,0.143-0.435,0.346-0.522
					c-0.2,0.083-0.348,0.18-0.352,0.287c-0.014,0.342-0.014,1.957-0.014,2.409c0,0.451-0.015,0.944-0.589,0.944h-1.157v0.231
					c-0.012,0.175-0.559,0.498-0.659,0.61c-0.099,0.112-0.037,0.683-0.05,1.131c-0.012,0.447-0.708,0.957-0.82,1.206
					c-0.111,0.248,0,1.218-0.012,1.541c-0.013,0.323-0.236,0.46-0.547,0.932c-0.312,0.473-0.634,2.138-0.46,3.033
					s0.763,1.421,1.139,1.609c0.14,0.07,0.225,0.162,0.274,0.25c0.009,0.002,0.017,0,0.024,0.002c0,0,4.138,0.891,4.712,1.035
					c0.574,0.143,0.518,0.603,0.488,1.206s-0.431,5.774-0.488,6.722c-0.058,0.948-0.517,1.12-1.062,1.12s-13.846-1.493-14.565-1.637
					c-0.718-0.144-1.694-0.632-1.608-1.609c0.086-0.976,0.546-3.734,0.546-3.734s0.015,0.002,0.039,0.006
					c-0.151-1.328,0.726-3.228,1.292-4.076c0.612-0.919,0.919-2.47,0.919-2.47s0.057,0,0.199,0.007
					c0.842-5.169,3.997-8.548,4.047-9.295c0.051-0.767-0.485-1.507-2.707-1.609c-2.223-0.103-3.857-0.843-4.062-2.12
					c-0.201-1.257,0.382-2.209,0.401-2.24c1.153-3.142,3.424-3.565,4.669-3.645c10.418-0.671,13.08-0.364,13.08-0.364
					c0.051,0.142,0.093,0.287,0.137,0.431l4.038,0.352c0,0,0.075,0.15,0.176,0.405l2.122,0.048c0,0,0.009,0.024,0.021,0.059
					l2.373,0.144c0,0,0.05,0.101,0.118,0.276l1.3,1.097c0.051,0.2,0.076,0.42,0.087,0.639h5.741c0.199,0,0.25,0.161,0.25,0.361
					C219.796,30.764,219.745,30.926,219.546,30.926"/>
				<path clip-path="url(#SVGID_36_)" d="M190.646,35.793c0,0.315-0.255,0.569-0.569,0.569s-0.569-0.254-0.569-0.569
					c0-0.314,0.255-0.569,0.569-0.569S190.646,35.479,190.646,35.793"/>
				<path clip-path="url(#SVGID_36_)" d="M134.763,53.245c0.169,0.783,0.709,1.372,1.535,2.018l-0.488-2.109
					c0,0,0.106-0.349,1.077-0.485c0.97-0.137,1.168,0.212,1.168,0.212l0.5,1.911c0,0,0.637-1.198,0.379-2.29
					c-0.016-0.068-0.04-0.124-0.06-0.186l0.009,0.001c0,0-0.022-0.071-0.067-0.178c-0.016-0.039-0.034-0.075-0.052-0.113
					c-0.115-0.238-0.321-0.582-0.667-0.877c-0.548-0.47-0.517-0.847-0.517-1.59V33.802c0-0.626,0.148-1.435,0.424-1.873h-0.009
					c0.263-0.304,0.428-0.695,0.428-1.128c0-0.954-0.774-1.728-1.728-1.728c-0.955,0-1.728,0.774-1.728,1.728
					c0,0.433,0.164,0.824,0.428,1.128h-0.01c0.276,0.438,0.425,1.247,0.425,1.873v15.757c0,0.743-0.059,1.02-0.44,1.699
					c-0.231,0.412-0.376,0.728-0.468,0.964c-0.062,0.139-0.107,0.279-0.134,0.419c-0.019,0.082-0.023,0.125-0.023,0.125l0.009-0.003
					C134.734,52.933,134.731,53.098,134.763,53.245 M135.521,30.801l0.587-1.016h0.463c-0.112,0.048-0.191,0.159-0.191,0.289
					c0,0.174,0.141,0.315,0.315,0.315s0.315-0.141,0.315-0.315c0-0.13-0.079-0.241-0.192-0.289h0.464l0.586,1.016l-0.586,1.016
					h-1.174L135.521,30.801z"/>
			</g>
		</g>
	</g>
</g>
</svg>
