<?xml version="1.0" encoding="UTF-8"?>
<!DOCTYPE svg PUBLIC "-//W3C//DTD SVG 1.1//EN" "http://www.w3.org/Graphics/SVG/1.1/DTD/svg11.dtd">
<!-- Creator: CorelDRAW X7 -->
<svg xmlns="http://www.w3.org/2000/svg" xml:space="preserve" width="1600px" height="768px" version="1.1" style="shape-rendering:geometricPrecision; text-rendering:geometricPrecision; image-rendering:optimizeQuality; fill-rule:evenodd; clip-rule:evenodd"
viewBox="0 0 1362 654"
 xmlns:xlink="http://www.w3.org/1999/xlink">
 <defs>
  <style type="text/css">
   <![CDATA[
    .fil0 {fill:#336699;fill-rule:nonzero}
   ]]>
  </style>
 </defs>
 <g id="Layer_x0020_1">
  <metadata id="CorelCorpID_0Corel-Layer"/>
  <path class="fil0" d="M761 80c-1,-9 -2,-13 -2,-22 8,-1 13,-1 21,0 1,8 2,13 3,22 1,8 1,13 2,21 -9,1 -13,1 -22,2 -1,-9 -2,-14 -2,-23zm559 524c26,-2 38,-19 37,-39 0,-21 -13,-39 -41,-39 -19,0 -37,0 -56,0l0 124 13 0 0 -45 32 0 41 45 16 0 -42 -46zm-47 -11l0 0 0 -55 43 0c19,0 29,12 29,27 0,16 -10,28 -30,28l-42 0zm-93 -69c-41,0 -63,29 -63,64 0,33 20,65 63,65 42,0 63,-32 63,-64 0,-34 -21,-65 -63,-65zm0 117l0 0c-34,0 -51,-25 -51,-52 0,-30 17,-53 51,-53 34,0 50,25 50,53 0,26 -16,52 -50,52zm-61 -115c-35,0 -65,0 -101,0l0 12 44 0 0 112 13 0 0 -112 44 0 0 -12zm-124 124l12 0 0 -124 -12 0 0 124zm-38 -64l0 41 -80 -101 -8 0 0 124 12 0 0 -63 0 -37 81 100 7 0 0 -124 -12 0 0 60zm-169 -62c-40,0 -63,29 -63,64 0,33 21,65 63,65 43,0 63,-32 63,-64 1,-34 -20,-65 -63,-65zm0 117l0 0c-34,0 -50,-25 -50,-52 -1,-30 17,-53 50,-53 34,0 51,25 51,53 0,26 -17,52 -51,52zm-141 -46l-45 -69c-6,0 -10,0 -16,0l0 124 13 0 0 -107 46 70 4 0 46 -69 0 106 13 0 0 -124 -16 0 -45 69zm-434 -69l-1 0 0 38c0,5 -4,9 -9,9l-26 0c-5,0 -9,-4 -9,-9l0 -38 -35 0 0 113c0,6 5,12 11,12l12 0c6,0 12,-6 12,-12l0 -26c0,-5 4,-9 9,-10l26 0c5,1 9,5 9,10l0 8 0 18c0,6 6,12 12,12l11 0c7,0 12,-6 12,-12l0 -7c-8,-11 -13,-26 -13,-44 0,-18 5,-32 13,-44l0 -18 -26 0 -8 0zm95 27c-20,0 -34,15 -34,35 0,21 14,35 34,35 21,0 34,-14 34,-35 0,-21 -13,-35 -34,-35zm159 2l27 0c5,0 10,4 10,10l0 0 0 73c0,0 0,0 0,1 0,6 5,12 12,12l11 0c7,0 12,-6 12,-12 0,-1 0,-1 0,-1l0 -73 0 0c0,-6 4,-10 10,-10l26 0 0 -29 -108 0 0 29zm-47 17c-12,-1 -20,-2 -20,-11 0,-6 8,-9 17,-9 10,0 20,2 29,8l17 -22c-13,-10 -28,-15 -46,-15 -20,0 -39,7 -48,21 9,11 14,26 14,44 0,2 0,4 0,6 9,4 20,6 32,7 14,2 21,6 21,12 0,7 -8,11 -20,11 -10,0 -24,-2 -36,-14 -3,11 -8,19 -15,27 16,14 31,17 51,17 28,0 55,-12 55,-41 0,-28 -26,-38 -51,-41zm-308 2l-30 0 -2 0 -6 0c-7,0 -13,6 -13,14 0,7 6,14 13,14l6 0 2 0c6,0 10,4 10,10l0 -1 0 7c-7,5 -17,6 -24,6 -25,0 -33,-20 -33,-36 0,-24 13,-36 33,-36 8,0 20,2 29,11l20 -21c-16,-16 -32,-20 -49,-20 -47,0 -68,34 -68,66 0,33 19,66 68,66 24,0 46,-9 53,-25l0 -45c0,-5 -4,-10 -9,-10zm414 -268c27,-11 43,-11 54,-8 -1,3 -1,6 -1,8 -1,9 1,18 5,26 4,8 9,15 17,21 3,2 7,4 11,6 4,2 9,3 13,4 4,1 8,1 13,1l3 0 1 0 1 0 0 0 0 0 1 0c3,0 5,-1 7,-1 4,-2 8,-4 11,-6 4,-3 7,-7 8,-11 2,-4 2,-9 1,-13l0 0 0 0 0 0 0 -1 0 0 0 -1c-1,-1 -1,-2 -1,-3 -1,-2 -2,-4 -4,-5 -2,-4 -5,-5 -8,-7 -2,-1 -4,-1 -6,-2 -1,0 -1,0 -2,-1 0,0 0,0 0,0 -1,-1 -1,-2 -2,-3 -1,0 -2,-1 -2,-2 -1,-2 -2,-3 -2,-4 -1,-1 -1,-2 -1,-3 -1,-1 0,-2 0,-2 -1,-1 0,-2 0,-2 0,-2 0,-3 0,-4 0,-1 0,-1 0,-1 0,0 0,0 -1,0 0,1 -1,1 -1,1 -1,0 -1,1 -2,2 -1,0 -1,1 -2,2 0,0 -1,1 -1,2 -1,2 -1,5 -1,7 0,2 1,4 2,6 -3,-1 -4,-3 -5,-4 -1,-2 -1,-3 -1,-3 0,0 0,1 -1,3 0,1 0,3 1,4 1,1 1,2 2,2 1,1 1,2 2,2 4,2 8,4 12,6 5,1 9,3 12,7 1,1 1,1 1,2 1,1 1,2 1,2l0 1 0 1 0 0 0 0c1,3 1,5 0,7 -2,5 -7,8 -13,10 -2,1 -4,1 -5,1l-1 0c0,0 0,0 0,0l0 0 -2 0 -2 0c-4,0 -7,0 -11,-1 -7,-1 -14,-4 -19,-9 -6,-4 -11,-10 -14,-16 -3,-6 -4,-13 -4,-20 1,-6 3,-12 7,-15 3,-3 11,-5 17,-9 1,-1 3,-2 4,-3 4,-2 7,-5 9,-8 2,-3 4,-7 4,-10 1,-1 1,-3 1,-4 0,-1 0,-1 0,-2 1,-2 1,-3 1,-5l-7 -2c0,0 0,0 0,-1 0,0 0,0 0,0l-1 -1c0,0 -2,-6 -5,-16 -2,-5 -4,-10 -6,-16 -2,-7 -4,-13 -6,-20 -1,-3 -1,-6 -2,-10 -1,-3 -2,-6 -3,-9 -1,-6 -3,-12 -4,-17 -2,-10 -4,-17 -4,-17 0,0 1,7 2,17 0,5 1,11 2,18 0,3 1,6 1,10 0,3 1,6 1,10 2,7 3,13 4,20 1,6 2,12 3,17 1,3 1,5 2,7l-12 -6 -2 -1 -1 -1 0 0c-1,-2 -2,-5 -3,-7 -1,-3 -1,-5 -2,-8 -2,-5 -4,-10 -5,-15 -1,-2 -1,-5 -2,-7 -1,-3 -1,-5 -2,-8l-1 -7c-1,-2 -1,-3 -1,-4l-1 -4c0,-5 -1,-10 -2,-15 0,-6 -1,-11 -1,-16 -1,-10 -1,-20 -1,-31l0 -1 1 -1 14 -33 -2 -34 0 -2 1 -2 14 -15c0,5 0,11 1,17 0,5 1,9 1,14 1,4 1,9 2,14 1,5 1,11 2,16 1,5 1,11 2,16 1,5 2,11 3,16 1,5 2,10 3,15 1,5 2,10 3,15 1,4 2,9 3,13 3,15 6,26 6,26 0,0 -2,-11 -4,-27 -1,-4 -2,-8 -2,-13 -1,-4 -1,-9 -2,-14 0,-5 -1,-11 -1,-16 -1,-5 -1,-11 -2,-16 0,-5 0,-11 -1,-16 0,-5 0,-10 0,-16 -1,-5 -1,-9 -1,-14 0,-5 0,-9 0,-13 0,-8 0,-15 0,-19 0,-2 0,-4 0,-5 17,-3 34,-6 50,-8 10,-1 19,-2 29,-3 9,-1 19,-2 28,-2 10,-1 19,-2 29,-2 5,0 9,-1 14,-1l14 0 15 0c5,0 9,0 14,0 5,1 10,1 15,1l14 1 3 0 1 3c3,9 6,17 8,25 3,9 5,17 7,26l4 13c1,4 2,9 3,13 1,4 1,8 2,13 1,4 2,8 3,13l2 13 2 13c1,5 1,9 1,13 1,5 1,9 2,14l1 13c0,4 0,9 0,13 0,5 0,9 0,14l0 6c-8,4 -16,8 -24,11 -21,9 -43,17 -66,23 4,-1 7,-1 11,-2 -8,3 -16,5 -24,7 0,0 30,0 80,-11 5,22 17,92 -14,146 -2,3 -4,7 -6,10 -20,24 -43,47 -79,56 -26,8 -49,11 -68,11 -50,0 -82,-27 -106,-46l-6 -6c-18,-14 -36,-29 -79,-28 0,0 0,0 -1,0 -47,0 -60,-59 -60,-60l-3 -14 11 9c0,1 23,20 84,-7zm326 -125l0 0c4,-80 -27,-154 -27,-154 -81,-8 -183,13 -183,13 -6,80 25,172 25,172 94,1 185,-31 185,-31zm-139 61l0 0c6,0 11,-5 11,-11 0,-5 -5,-10 -11,-10 -5,0 -10,5 -10,10 0,6 5,11 10,11zm-28 3l0 0c5,0 10,-5 10,-11 0,-5 -5,-10 -10,-10 -6,0 -10,5 -10,10 0,6 4,11 10,11zm187 44c0,0 0,0 0,0 2,0 3,0 5,-1 6,0 12,-3 18,-6 7,-2 14,-5 20,-4 1,1 2,1 4,2 0,0 2,1 3,1l1 1 0 0 0 0 1 1c3,2 5,5 6,8 3,7 1,16 -4,24 -2,2 -3,4 -4,6l-1 1c0,0 0,0 0,0l0 0 -2 1 -3 3c-4,3 -8,7 -12,9 -9,6 -20,9 -30,10 -3,0 -6,0 -8,0 5,-19 6,-39 6,-56zm-159 -61c2,0 3,2 3,3 0,2 -1,3 -3,3 -1,0 -3,-1 -3,-3 0,-1 2,-3 3,-3zm-28 3c2,0 3,2 3,3 0,2 -1,3 -3,3 -2,0 -3,-1 -3,-3 0,-1 1,-3 3,-3zm31 -148c-1,-9 -1,-14 -1,-23 9,-1 13,-1 22,-2 0,10 1,14 1,23 1,10 1,14 2,24 -9,0 -13,1 -22,2 -1,-10 -2,-14 -2,-24zm83 39c9,-1 13,-1 22,-2 1,8 2,11 2,19 -9,1 -13,2 -22,3 -1,-8 -1,-12 -2,-20zm-88 33c-9,1 -13,2 -22,2 -1,-9 -2,-14 -3,-23 9,-1 13,-2 22,-3 1,10 2,15 3,24zm45 -6c9,-1 13,-2 22,-3 9,-1 14,-2 23,-3 0,8 0,12 1,20 -9,2 -13,3 -22,4 -9,2 -13,3 -22,4 -9,2 -13,3 -22,4 -8,2 -13,2 -21,4 -2,-10 -2,-14 -4,-24 9,-1 14,-2 22,-3 9,-1 14,-2 23,-3z"/>
 </g>
</svg>
