<?xml version="1.0" encoding="UTF-8"?>
<!DOCTYPE svg PUBLIC "-//W3C//DTD SVG 1.1//EN" "http://www.w3.org/Graphics/SVG/1.1/DTD/svg11.dtd">
<!-- Creator: CorelDRAW X7 -->
<svg xmlns="http://www.w3.org/2000/svg" xml:space="preserve" width="800px" height="75px" version="1.1" style="shape-rendering:geometricPrecision; text-rendering:geometricPrecision; image-rendering:optimizeQuality; fill-rule:evenodd; clip-rule:evenodd"
viewBox="0 0 546 53"
 xmlns:xlink="http://www.w3.org/1999/xlink">
 <defs>
  <style type="text/css">
   <![CDATA[
    .fil0 {fill:#8D99A6;fill-rule:nonzero}
   ]]>
  </style>
 </defs>
 <g id="Layer_x0020_1">
  <metadata id="CorelCorpID_0Corel-Layer"/>
  <path class="fil0" d="M529 33c11,-1 15,-8 15,-16 0,-8 -5,-16 -16,-16 -8,0 -15,0 -23,0l0 50 5 0 0 -18 13 0 17 18 6 0 -17 -18zm-19 -5l0 0 0 -22 18 0c7,0 11,5 11,11 0,7 -4,11 -12,11l-17 0zm-37 -27c-16,0 -25,11 -25,25 0,14 8,26 25,26 17,0 25,-12 25,-25 0,-14 -8,-26 -25,-26zm0 47l0 0c-14,0 -20,-11 -20,-21 -1,-12 6,-22 20,-22 13,0 20,10 20,22 0,10 -7,21 -20,21zm-25 -47c-14,0 -26,0 -40,0l0 5 18 0 0 45 5 0 0 -45 17 0 0 -5zm-49 50l5 0 0 -50 -5 0 0 50zm-16 -26l1 17 -33 -41 -3 0 0 50 5 0 0 -25 0 -15 32 40 3 0 0 -50 -5 0 0 24zm-67 -24c-16,0 -25,11 -25,25 0,14 8,26 25,26 17,0 25,-12 25,-25 0,-14 -8,-26 -25,-26zm0 47l0 0c-14,0 -20,-11 -20,-21 0,-12 7,-22 20,-22 14,0 20,10 20,22 0,10 -6,21 -20,21zm-57 -19l-18 -28c-2,0 -4,0 -6,0l0 50 5 0 0 -43 19 28 1 0 19 -27 0 42 5 0 0 -50 -7 0 -18 28zm-174 -28l0 0 0 15c0,3 -2,4 -4,4l-10 0c-2,0 -4,-1 -4,-4l0 -15 -14 0 0 46c0,2 2,4 5,4l4 0c3,0 5,-2 5,-4l0 -11c0,-2 2,-3 4,-3l10 0c2,0 4,1 4,3l0 4 0 7c0,2 2,4 5,4l4 0c3,0 5,-2 5,-4l0 -3c-3,-5 -5,-10 -5,-18 0,-7 2,-13 5,-17l0 -8 -11 0 -3 0zm39 11c-9,0 -14,6 -14,14 0,9 6,14 14,14 8,0 13,-5 13,-14 0,-8 -5,-14 -13,-14zm63 1l11 0c2,0 4,2 4,4l0 0 0 29c0,0 0,0 0,1 0,2 2,4 5,4l4 0c3,0 5,-2 5,-4 0,-1 0,-1 0,-1l0 -29 0 0c0,-2 2,-4 4,-4l11 0 0 -12 -44 0 0 12zm-19 7c-4,-1 -8,-1 -8,-4 0,-3 4,-4 7,-4 4,0 8,1 12,3l7 -9c-6,-4 -12,-6 -19,-6 -8,0 -16,3 -19,9 3,4 5,10 5,17 0,1 0,2 0,3 4,1 8,2 13,3 6,0 9,2 9,4 0,3 -3,5 -8,5 -4,0 -10,-1 -15,-6 -1,4 -3,8 -6,11 7,6 13,7 21,7 11,0 22,-5 22,-17 0,-11 -11,-15 -21,-16zm-123 1l-12 0 -1 0 -2 0c-3,0 -6,2 -6,5 0,3 3,6 6,6l2 0 1 0c2,0 4,2 4,4l0 0 0 2c-3,2 -7,3 -10,3 -10,0 -13,-8 -13,-15 0,-9 5,-14 13,-14 4,0 8,1 12,4l8 -8c-7,-7 -13,-8 -20,-8 -18,0 -27,13 -27,26 0,13 7,27 27,27 10,0 19,-4 22,-10l0 -18c0,-2 -2,-4 -4,-4z"/>
 </g>
</svg>
