<?xml version="1.0" encoding="UTF-8"?>
<!DOCTYPE svg PUBLIC "-//W3C//DTD SVG 1.1//EN" "http://www.w3.org/Graphics/SVG/1.1/DTD/svg11.dtd">
<!-- Creator: CorelDRAW X7 -->
<svg xmlns="http://www.w3.org/2000/svg" xml:space="preserve" width="1600px" height="573px" version="1.1" style="shape-rendering:geometricPrecision; text-rendering:geometricPrecision; image-rendering:optimizeQuality; fill-rule:evenodd; clip-rule:evenodd"
viewBox="0 0 1600 573"
 xmlns:xlink="http://www.w3.org/1999/xlink">
 <defs>
  <style type="text/css">
   <![CDATA[
    .str2 {stroke:#19324C;stroke-width:1.68454}
    .str0 {stroke:#8D99A6;stroke-width:1.68454}
    .str1 {stroke:#8D99A6;stroke-width:1.68454;stroke-dasharray:1.684537 8.422687}
    .fil2 {fill:none}
    .fil3 {fill:#19324C}
    .fil4 {fill:#38BB22}
    .fil1 {fill:#E3E6E9}
    .fil0 {fill:#F8F9FA}
   ]]>
  </style>
 </defs>
 <g id="Layer_x0020_1">
  <metadata id="CorelCorpID_0Corel-Layer"/>
  <path class="fil0 str0" d="M68 142l1497 84c18,0 33,38 33,84 0,47 -15,84 -33,84l-1497 84 0 -336z"/>
  <path class="fil1 str0" d="M68 142c37,0 67,75 67,168 0,93 -30,168 -67,168 -37,0 -67,-75 -67,-168 0,-93 30,-168 67,-168z"/>
  <path class="fil2 str0" d="M496 166c31,0 57,65 57,144 0,80 -26,144 -57,144m641 -252c24,0 43,48 43,108 0,60 -19,109 -43,109m214 -205c21,0 38,43 38,96 0,53 -17,96 -38,96m-428 -216c27,0 48,54 48,120 0,67 -21,120 -48,120m-641 -276c34,0 62,70 62,156 0,87 -28,157 -62,157m428 -289c29,0 52,59 52,132 0,73 -23,132 -52,132"/>
  <path class="fil2 str1" d="M1351 214c-21,0 -38,43 -38,96 0,53 17,96 38,96m-855 -240c-32,0 -57,65 -57,144 0,80 25,144 57,144m214 -276c-29,0 -53,59 -53,132 0,73 24,132 53,132m-428 -288c-34,0 -62,70 -62,156 0,87 28,157 62,157m641 -277c-26,0 -47,54 -47,120 0,67 21,120 47,120m214 -228c-24,0 -43,48 -43,108 0,60 19,109 43,109"/>
  <g>
   <path class="fil3" d="M175 308c3,0 5,-2 5,-5 0,-2 -2,-5 -5,-5 -3,0 -5,3 -5,5 0,3 2,5 5,5zm364 91c2,0 5,3 5,5 0,3 -3,5 -5,5 -3,0 -5,-2 -5,-5 0,-2 2,-5 5,-5zm207 0c3,0 5,3 5,5 0,3 -2,5 -5,5 -2,0 -5,-2 -5,-5 0,-2 3,-5 5,-5zm712 -91c3,0 5,-2 5,-5 0,-2 -2,-5 -5,-5 -3,0 -5,3 -5,5 0,3 2,5 5,5zm-214 0c3,0 5,-2 5,-5 0,-2 -2,-5 -5,-5 -2,0 -5,3 -5,5 0,3 3,5 5,5zm-214 0c3,0 6,-2 6,-5 0,-2 -3,-5 -6,-5 -2,0 -5,3 -5,5 0,3 3,5 5,5zm-213 0c2,0 5,-2 5,-5 0,-2 -3,-5 -5,-5 -3,0 -5,3 -5,5 0,3 2,5 5,5zm-214 0c3,0 5,-2 5,-5 0,-2 -2,-5 -5,-5 -3,0 -5,3 -5,5 0,3 2,5 5,5zm-214 0c3,0 5,-2 5,-5 0,-2 -2,-5 -5,-5 -3,0 -5,3 -5,5 0,3 2,5 5,5z"/>
   <path id="1" class="fil4" d="M175 308c3,0 5,-2 5,-5 0,-2 -2,-5 -5,-5 -3,0 -5,3 -5,5 0,3 2,5 5,5zm364 91c2,0 5,3 5,5 0,3 -3,5 -5,5 -3,0 -5,-2 -5,-5 0,-2 2,-5 5,-5zm207 0c3,0 5,3 5,5 0,3 -2,5 -5,5 -2,0 -5,-2 -5,-5 0,-2 3,-5 5,-5zm712 -91c3,0 5,-2 5,-5 0,-2 -2,-5 -5,-5 -3,0 -5,3 -5,5 0,3 2,5 5,5zm-214 0c3,0 5,-2 5,-5 0,-2 -2,-5 -5,-5 -2,0 -5,3 -5,5 0,3 3,5 5,5zm-214 0c3,0 6,-2 6,-5 0,-2 -3,-5 -6,-5 -2,0 -5,3 -5,5 0,3 3,5 5,5zm-213 0c2,0 5,-2 5,-5 0,-2 -3,-5 -5,-5 -3,0 -5,3 -5,5 0,3 2,5 5,5zm-214 0c3,0 5,-2 5,-5 0,-2 -2,-5 -5,-5 -3,0 -5,3 -5,5 0,3 2,5 5,5zm-214 0c3,0 5,-2 5,-5 0,-2 -2,-5 -5,-5 -3,0 -5,3 -5,5 0,3 2,5 5,5zm-205 5c-2,2 -5,4 -9,4 -4,0 -7,-2 -10,-4 -2,-3 -4,-6 -4,-10 0,-3 2,-7 4,-9 3,-3 6,-4 10,-4 4,0 7,1 9,4 3,2 4,6 4,9 0,4 -1,7 -4,10zm355 78c3,0 7,1 9,4 3,2 4,6 4,9 0,4 -1,7 -4,10 -2,2 -6,4 -9,4 -4,0 -7,-2 -10,-4 -2,-3 -4,-6 -4,-10 0,-3 2,-7 4,-9 3,-3 6,-4 10,-4zm207 0c4,0 8,1 10,4 2,2 4,6 4,9 0,4 -2,7 -4,10 -2,2 -6,4 -10,4 -3,0 -7,-2 -9,-4 -3,-3 -4,-6 -4,-10 0,-3 1,-7 4,-9 2,-3 6,-4 9,-4zm722 -78c-3,2 -6,4 -10,4 -3,0 -7,-2 -9,-4 -3,-3 -4,-6 -4,-10 0,-3 1,-7 4,-9 2,-3 6,-4 9,-4 4,0 7,1 10,4 2,2 4,6 4,9 0,4 -2,7 -4,10zm-214 0c-3,2 -6,4 -10,4 -3,0 -7,-2 -9,-4 -3,-3 -4,-6 -4,-10 0,-3 1,-7 4,-9 2,-3 6,-4 9,-4 4,0 7,1 10,4 2,2 4,6 4,9 0,4 -2,7 -4,10zm-214 0c-2,2 -6,4 -10,4 -3,0 -7,-2 -9,-4 -2,-3 -4,-6 -4,-10 0,-3 2,-7 4,-9 2,-3 6,-4 9,-4 4,0 8,1 10,4 2,2 4,6 4,9 0,4 -2,7 -4,10zm-214 0c-2,2 -6,4 -9,4 -4,0 -7,-2 -10,-4 -2,-3 -4,-6 -4,-10 0,-3 2,-7 4,-9 3,-3 6,-4 10,-4 3,0 7,1 9,4 3,2 4,6 4,9 0,4 -1,7 -4,10zm-214 0c-2,2 -6,4 -9,4 -4,0 -7,-2 -10,-4 -2,-3 -4,-6 -4,-10 0,-3 2,-7 4,-9 3,-3 6,-4 10,-4 3,0 7,1 9,4 3,2 4,6 4,9 0,4 -1,7 -4,10zm-214 0c-2,2 -5,4 -9,4 -4,0 -7,-2 -10,-4 -2,-3 -4,-6 -4,-10 0,-3 2,-7 4,-9 3,-3 6,-4 10,-4 4,0 7,1 9,4 3,2 4,6 4,9 0,4 -1,7 -4,10z"/>
  </g>
  <path class="fil2 str2" d="M175 303l0 -303m571 404l0 169m-207 -169l0 169m919 -270l0 -303m-214 303l0 -303m-214 303l0 -303m-213 303l0 -303m-214 303l0 -303m-214 303l0 -303"/>
 </g>
</svg>
