<?xml version="1.0" encoding="utf-8"?>
<!-- Generator: Adobe Illustrator 19.0.0, SVG Export Plug-In . SVG Version: 6.00 Build 0)  -->
<svg version="1.1" id="Layer_1" xmlns="http://www.w3.org/2000/svg" xmlns:xlink="http://www.w3.org/1999/xlink" x="0px" y="0px"
	 viewBox="0 0 110.4 111.1" style="enable-background:new 0 0 110.4 111.1;" xml:space="preserve">
<style type="text/css">
	.st0{clip-path:url(#SVGID_2_);}
	.st1{clip-path:url(#SVGID_4_);fill:#FFFFFF;}
	.st2{clip-path:url(#SVGID_4_);}
	.st3{clip-path:url(#SVGID_4_);fill:#88C440;}
	.st4{opacity:0.2;clip-path:url(#SVGID_4_);}
	.st5{clip-path:url(#SVGID_6_);fill:#FFFFFF;}
	.st6{clip-path:url(#SVGID_4_);fill:none;stroke:#88C440;stroke-miterlimit:10;}
	.st7{clip-path:url(#SVGID_4_);fill:#709F41;}
	.st8{opacity:5.000300e-002;clip-path:url(#SVGID_4_);}
	.st9{clip-path:url(#SVGID_8_);}
	.st10{clip-path:url(#SVGID_10_);}
	.st11{clip-path:url(#SVGID_12_);}
	.st12{opacity:0.5;clip-path:url(#SVGID_4_);}
	.st13{opacity:5.000300e-002;clip-path:url(#SVGID_14_);}
	.st14{clip-path:url(#SVGID_16_);}
	.st15{opacity:0.8;clip-path:url(#SVGID_4_);}
	.st16{opacity:5.000300e-002;clip-path:url(#SVGID_18_);}
	.st17{clip-path:url(#SVGID_20_);}
	.st18{clip-path:url(#SVGID_22_);}
	.st19{clip-path:url(#SVGID_4_);fill:#CCAE89;}
	.st20{opacity:7.000700e-002;clip-path:url(#SVGID_4_);}
	.st21{clip-path:url(#SVGID_24_);}
	.st22{clip-path:url(#SVGID_26_);}
	.st23{clip-path:url(#SVGID_28_);}
	.st24{opacity:0.15;clip-path:url(#SVGID_4_);}
	.st25{clip-path:url(#SVGID_30_);}
	.st26{clip-path:url(#SVGID_4_);fill:#B89B72;}
	.st27{clip-path:url(#SVGID_32_);}
	.st28{clip-path:url(#SVGID_34_);}
	.st29{clip-path:url(#SVGID_36_);}
	.st30{clip-path:url(#SVGID_4_);fill:#937F69;}
	.st31{clip-path:url(#SVGID_38_);fill:#C9C9C9;}
	.st32{clip-path:url(#SVGID_38_);fill:#A6A7A8;}
	.st33{clip-path:url(#SVGID_38_);fill:#DCDCDC;}
	.st34{clip-path:url(#SVGID_38_);fill:#F0F0F0;}
	.st35{fill:#937F69;}
</style>
<g>
	<defs>
		<rect id="SVGID_1_" x="-180.5" y="-32.2" width="317.9" height="186.6"/>
	</defs>
	<clipPath id="SVGID_2_">
		<use xlink:href="#SVGID_1_"  style="overflow:visible;"/>
	</clipPath>
	<g class="st0">
		<defs>
			<rect id="SVGID_3_" x="-180.5" y="-32.2" width="317.9" height="186.6"/>
		</defs>
		<clipPath id="SVGID_4_">
			<use xlink:href="#SVGID_3_"  style="overflow:visible;"/>
		</clipPath>
		<path class="st1" d="M86.3,59.9c-4.1,0-8,1.1-11.3,3l0,0c-1.7,1-3.8,1.6-5.9,1.6c-6.5,0-11.7-5.3-11.7-11.7c0-0.4,0-0.8,0.1-1.2
			l6.8-3.4l3.4-11.8L68,23.4l-3.1-7.3c0,0,1-6.6,0.5-7.2C64.8,8.3,61,4.7,61,4.7L42.9,2.2l-16-0.9L14.4,1.7l-3.6,12l-2,9.5L7.4,34.4
			L7.2,44.8l2.7,0.5c-1.1,3.5-1.7,7.3-1.7,11.2c0,21.2,17.2,38.3,38.3,38.3c6.6,0,12.8-1.7,18.2-4.6l0,0c0.8-0.4,1.6-0.9,2.4-1.4
			c0.2-0.2,0.5-0.3,0.7-0.5c0.5-0.4,1.1-0.7,1.6-1.1c0.3-0.2,0.6-0.4,0.8-0.7c0.5-0.4,0.9-0.7,1.3-1.1c0.3-0.2,0.6-0.5,0.8-0.8
			c0.4-0.4,0.8-0.8,1.2-1.2c0.3-0.3,0.5-0.5,0.8-0.8c0.4-0.4,0.8-0.8,1.1-1.3c0.2-0.3,0.5-0.6,0.7-0.9c0.4-0.4,0.7-0.9,1-1.4
			c0.2-0.3,0.4-0.6,0.6-0.9c0.4-0.5,0.7-1.1,1-1.6c0.2-0.3,0.3-0.5,0.5-0.8c0.5-0.8,0.9-1.6,1.3-2.5c2.4-4.8,7.4-8,13.1-8
			c6,0,11.1,3.6,13.4,8.7C104.1,65.8,95.9,59.9,86.3,59.9"/>
		<path class="st2" d="M68,23.4l-2.2-5.2c-0.1,0.6-0.2,1.1-0.2,1.1l2.4,5.2L68,23.4z"/>
		<path class="st3" d="M12.2,38.3c0,0,19.5,6.9,38.3,6.8l3.8-14.4l1.3-6.6l0.3-14.9L36.9,6.6l-12-0.3l-7,0.3L14,17.4l-1,6.1
			l-0.9,6.4L12.2,38.3z"/>
		<g class="st4">
			<g>
				<defs>
					<rect id="SVGID_5_" x="11.8" y="6.3" width="28.1" height="28.6"/>
				</defs>
				<clipPath id="SVGID_6_">
					<use xlink:href="#SVGID_5_"  style="overflow:visible;"/>
				</clipPath>
				<path class="st5" d="M39.9,7.1c0,0-24.7-3.2-27.1,18.3c-2.3,21.5,0,0,0,0l2.5-11.8l2.6-7l9.6-0.2l6,0.2"/>
			</g>
		</g>
		<path class="st6" d="M55.9,9.2c0,0-21.3-4.2-38-2.7c0,0-6.6,15.5-5.6,32.1c0,0,18.9,6.6,38.5,6.5C50.7,45.2,57.2,25.9,55.9,9.2z"
			/>
		<path class="st7" d="M31.7,17.7c0.2-1.9,0.3-2.8,0.4-4.7c-1.8,0-2.7,0-4.5,0c-0.2,1.8-0.3,2.8-0.6,4.6c-0.2,1.8-0.3,2.7-0.5,4.5
			c1.9,0.1,2.8,0.2,4.7,0.3C31.4,20.5,31.5,19.6,31.7,17.7"/>
		<path class="st7" d="M32.7,32.1c-1.9-0.3-2.8-0.4-4.7-0.7c-1.9-0.3-2.8-0.4-4.7-0.7c-0.1,1.7-0.2,2.5-0.3,4.2
			c1.8,0.4,2.8,0.6,4.6,0.9c1.8,0.4,2.7,0.5,4.6,0.9c1.8,0.3,2.7,0.5,4.5,0.8c1.8,0.3,2.7,0.4,4.5,0.7c0.3-2,0.4-2.9,0.7-4.9
			c-1.8-0.2-2.8-0.3-4.6-0.6C35.5,32.5,34.5,32.3,32.7,32.1"/>
		<path class="st7" d="M42.5,28.4c-0.2,2-0.3,2.9-0.6,4.9c1.8,0.2,2.8,0.3,4.6,0.5c0.3-2,0.5-3,0.7-4.9
			C45.3,28.7,44.4,28.6,42.5,28.4"/>
		<path class="st7" d="M23.7,26.4c-1.9-0.2-2.8-0.3-4.7-0.4c-0.2,1.6-0.3,2.4-0.4,4c1.9,0.3,2.8,0.4,4.7,0.7
			C23.5,29,23.5,28.1,23.7,26.4"/>
		<path class="st7" d="M41,18.3c0.1-2,0.1-2.9,0.2-4.9c-1.8-0.1-2.7-0.2-4.6-0.3c-0.1,1.9-0.2,2.9-0.3,4.8c-0.1,1.9-0.2,2.9-0.4,4.8
			c1.9,0.2,2.8,0.2,4.7,0.4C40.8,21.3,40.9,20.3,41,18.3"/>
		<g class="st8">
			<g>
				<defs>
					<rect id="SVGID_7_" x="8.3" y="45.9" width="99.2" height="48.9"/>
				</defs>
				<clipPath id="SVGID_8_">
					<use xlink:href="#SVGID_7_"  style="overflow:visible;"/>
				</clipPath>
				<path class="st9" d="M95.6,65.5c0.1,0,0.1,0,0.2,0c0.5,0.1,1.1,0.1,1.6,0.3c0,0,0.1,0,0.1,0c0,0,0,0,0,0c0.5,0.1,1,0.3,1.5,0.4
					c0,0,0.1,0,0.1,0l0,0c1,0.4,1.9,0.8,2.7,1.3c0,0,0,0,0,0c0,0,0,0,0,0c1.4,0.9,2.6,1.9,3.6,3.2l0,0c0,0,0,0,0,0c0,0,0,0,0,0
					c0,0,0,0,0,0c0.2,0.2,0.4,0.5,0.6,0.7c0,0,0,0,0,0c0.2,0.2,0.3,0.5,0.5,0.8c0,0.1,0.1,0.1,0.1,0.2c0.1,0.2,0.2,0.4,0.4,0.6
					c0.2,0.3,0.3,0.6,0.4,0.9c-0.2-0.5-0.4-1-0.7-1.5c-0.2-0.4-0.4-0.9-0.7-1.3c0,0,0,0,0,0c0-0.1-0.1-0.1-0.1-0.2
					c-0.1-0.2-0.3-0.4-0.4-0.6c-0.1-0.1-0.1-0.2-0.2-0.3c-0.1-0.1-0.2-0.3-0.2-0.4c-0.1-0.2-0.3-0.4-0.4-0.6c0,0,0,0,0-0.1
					c-0.1-0.2-0.3-0.4-0.4-0.6c-0.2-0.2-0.3-0.4-0.5-0.6c-0.2-0.2-0.3-0.4-0.5-0.6c-0.2-0.2-0.3-0.4-0.5-0.6
					c-0.2-0.2-0.3-0.3-0.5-0.5c0,0-0.1-0.1-0.1-0.1c-0.2-0.2-0.4-0.3-0.5-0.5c-0.2-0.2-0.4-0.4-0.6-0.6c-0.2-0.2-0.4-0.3-0.6-0.5
					c-0.1-0.1-0.2-0.1-0.3-0.2c-0.2-0.1-0.3-0.2-0.5-0.3c-0.2-0.1-0.3-0.3-0.5-0.4c-0.4-0.3-0.9-0.6-1.3-0.8
					c-0.1-0.1-0.2-0.1-0.3-0.2c-0.2-0.1-0.4-0.2-0.6-0.3c-0.2-0.1-0.3-0.2-0.5-0.3c-0.2-0.1-0.4-0.2-0.5-0.3
					c-0.2-0.1-0.4-0.2-0.6-0.3c-0.1,0-0.2-0.1-0.3-0.1c-0.2-0.1-0.4-0.2-0.6-0.2c-0.3-0.1-0.6-0.2-0.9-0.3c0,0,0,0,0,0
					c-0.2-0.1-0.4-0.1-0.6-0.2c-0.3-0.1-0.6-0.2-0.9-0.3c-0.2-0.1-0.4-0.1-0.7-0.2c-0.1,0-0.1,0-0.2,0c-0.3-0.1-0.5-0.1-0.8-0.2
					c-0.2,0-0.4-0.1-0.6-0.1c-0.3,0-0.6-0.1-0.8-0.1c-0.1,0-0.2,0-0.3,0c-0.2,0-0.4,0-0.5-0.1c-0.6,0-1.1-0.1-1.7-0.1
					c-1,0-2,0.1-3,0.2c-2,0.3-3.9,0.8-5.7,1.5c-0.9,0.4-1.8,0.8-2.6,1.3l0,0l0,0c-1.3,0.8-2.8,1.3-4.3,1.5c-0.5,0.1-1.1,0.1-1.6,0.1
					c-0.3,0-0.6,0-0.9,0c0,0,0-0.1,0-0.1c-0.3,0-0.6-0.1-0.9-0.1c-0.1,0-0.1,0-0.2,0c-0.3,0-0.5-0.1-0.8-0.2c-0.1,0-0.1,0-0.2,0
					c-0.3-0.1-0.5-0.1-0.8-0.2c0,0,0,0,0,0c-0.8-0.3-1.6-0.7-2.4-1.1c-0.1,0-0.1-0.1-0.2-0.1c-0.2-0.1-0.4-0.3-0.6-0.4
					c-0.1-0.1-0.2-0.1-0.3-0.2c-0.2-0.1-0.3-0.3-0.5-0.4c-0.1-0.1-0.2-0.2-0.3-0.3c-0.1-0.1-0.3-0.3-0.4-0.4
					c-0.1-0.1-0.2-0.3-0.4-0.4c-0.1-0.2-0.3-0.3-0.4-0.5c-0.2-0.2-0.3-0.4-0.5-0.6c-0.1-0.1-0.2-0.2-0.2-0.4
					c-0.1-0.2-0.2-0.4-0.3-0.5c-0.1-0.1-0.1-0.3-0.2-0.4c-0.1-0.2-0.2-0.4-0.3-0.6c-0.1-0.1-0.1-0.3-0.2-0.4
					c-0.1-0.2-0.2-0.4-0.2-0.7c0-0.1-0.1-0.2-0.1-0.3c-0.1-0.3-0.2-0.7-0.3-1c0,0,0,0,0,0l0,0l0.4,1.5h-0.7l-1.2,0.9
					c6,7.6-0.5,8.9-2.1,9.4c-2.2,0.7-4.9,1.7-5.3,4.5c-0.2,1.6,0.2,3,1.1,4.2c1.2,1.8,3.9,2.5,4.4,2.6c3.5,0.7,11.1,1,16.7-5.1
					c7.7-8.4,12.4-6.6,10.1-2.3c-0.4,0.8-0.8,1.5-1.3,2.2c-0.1,0.2-0.3,0.5-0.5,0.7c-0.3,0.5-0.6,1-1,1.4c-0.2,0.3-0.4,0.5-0.6,0.8
					c-0.3,0.4-0.6,0.8-1,1.2c-0.2,0.3-0.5,0.5-0.7,0.8c-0.3,0.4-0.7,0.8-1.1,1.1c-0.2,0.3-0.5,0.5-0.8,0.7c-0.4,0.4-0.8,0.7-1.1,1
					c-0.3,0.2-0.5,0.5-0.8,0.7c-0.4,0.3-0.8,0.7-1.3,1c-0.3,0.2-0.5,0.4-0.8,0.6c-0.5,0.3-1,0.7-1.5,1c-0.2,0.1-0.5,0.3-0.7,0.4
					c-0.7,0.5-1.5,0.9-2.3,1.3v0v0c-5.1,2.6-11,4.1-17.2,4.1c-19.9,0-36.1-15.4-36.2-34.4c0.2-5.7,7.4-5.8,7.4-5.8l0,0
					c2.1,0,4.2,0.1,6.2,0.2l-12.3-2.6c0.1-0.3,0.2-0.5,0.3-0.8l-2.6-0.5L9.9,46l-0.1-0.1c-0.4,1.5-0.8,3.1-1,4.7
					c0,0.1,0,0.3-0.1,0.4c-0.1,0.8-0.2,1.5-0.3,2.3c0,0.1,0,0.2,0,0.4c-0.1,0.8-0.1,1.7-0.1,2.5c0,0.2,0,0.5,0,0.7
					c0,0.4,0,0.7,0,1.1c0,0.3,0,0.5,0,0.8c0,0.4,0.1,0.8,0.1,1.2c0,0.2,0,0.5,0.1,0.7c0,0.4,0.1,0.8,0.2,1.2c0,0.2,0.1,0.4,0.1,0.6
					c0.1,0.4,0.1,0.8,0.2,1.2c0,0.2,0.1,0.5,0.1,0.7c0,0.1,0,0.2,0.1,0.3c0,0.2,0.1,0.4,0.2,0.7c0.1,0.3,0.1,0.6,0.2,0.9
					c0,0.1,0,0.2,0.1,0.3c0,0,0,0.1,0,0.1c3.7,13.3,14.5,23.8,27.9,27.1c0.1,0,0.2,0.1,0.4,0.1c0.4,0.1,0.9,0.2,1.3,0.3
					c0.1,0,0.2,0,0.2,0c0.2,0,0.3,0.1,0.5,0.1c0.3,0.1,0.7,0.1,1,0.2c0.1,0,0.2,0,0.3,0c0.3,0,0.5,0.1,0.8,0.1
					c0.2,0,0.4,0.1,0.7,0.1c0.6,0.1,1.2,0.1,1.7,0.1c0,0,0.1,0,0.1,0c0,0,0,0,0.1,0c0,0,0.1,0,0.1,0c0.8,0,1.5,0,2.2,0
					c0.2,0,0.3,0,0.5,0c0.2,0,0.4,0,0.6,0c0.5,0,1,0,1.5-0.1c0.1,0,0.2,0,0.3,0c0.3,0,0.5,0,0.8-0.1c0.5-0.1,1-0.1,1.4-0.2
					c0.2,0,0.4-0.1,0.6-0.1c0.1,0,0.3,0,0.4-0.1c0.5-0.1,0.9-0.2,1.4-0.3c0.3-0.1,0.7-0.1,1-0.2c0.5-0.1,0.9-0.2,1.4-0.4
					c0.1,0,0.3-0.1,0.4-0.1c0.2-0.1,0.4-0.1,0.6-0.2c0.5-0.1,0.9-0.3,1.4-0.5c0.3-0.1,0.5-0.2,0.8-0.3c0,0,0.1,0,0.1,0
					c0.5-0.2,1-0.4,1.5-0.6c0.2-0.1,0.5-0.2,0.7-0.3c0.7-0.3,1.5-0.7,2.2-1.1h0c0.8-0.4,1.6-0.9,2.4-1.4c0.2-0.1,0.3-0.2,0.5-0.3
					c0.1-0.1,0.2-0.1,0.2-0.2c0.3-0.2,0.5-0.4,0.8-0.6c0.3-0.2,0.5-0.4,0.8-0.6c0.3-0.2,0.6-0.4,0.8-0.7c0.3-0.2,0.5-0.4,0.7-0.6
					c0.2-0.2,0.4-0.3,0.6-0.5c0.1-0.1,0.2-0.2,0.3-0.2c0.2-0.2,0.4-0.3,0.6-0.5c0.4-0.4,0.8-0.8,1.2-1.2c0,0,0,0,0,0
					c0.3-0.3,0.5-0.5,0.8-0.8c0.4-0.4,0.8-0.8,1.1-1.2c0.2-0.3,0.5-0.6,0.7-0.9c0.4-0.4,0.7-0.9,1-1.4c0.2-0.3,0.4-0.6,0.6-0.9
					c0.4-0.5,0.7-1.1,1-1.6c0.2-0.3,0.3-0.5,0.5-0.8c0.5-0.8,0.9-1.6,1.3-2.5c0.5-0.9,1-1.7,1.6-2.5c2.7-3.4,6.8-5.5,11.5-5.5
					C94.6,65.4,95.1,65.5,95.6,65.5L95.6,65.5z"/>
			</g>
		</g>
		<g class="st8">
			<g>
				<defs>
					<rect id="SVGID_9_" x="7.2" y="43.9" width="1.4" height="1.1"/>
				</defs>
				<clipPath id="SVGID_10_">
					<use xlink:href="#SVGID_9_"  style="overflow:visible;"/>
				</clipPath>
				<path class="st10" d="M7.2,43.9l0,0.3l0,0c0,0.1,0,0.1-0.1,0.2l0,0.3L8.7,45L7.2,43.9z"/>
			</g>
		</g>
		<path class="st1" d="M55.5,57c10.4,14.1-4.2,9.3-5.1,14.7c-0.7,4.6,5.1,5.1,5.1,5.1c12,0.3,15-13.7,8.1-16
			c-4.1-1.3-5.3-3.8-5.7-5.6c0,0-0.4-2.3,0-3.4l-1.6,0.5l0.1,1.8"/>
		<g class="st8">
			<g>
				<defs>
					<rect id="SVGID_11_" x="38" y="51.3" width="20.1" height="5.1"/>
				</defs>
				<clipPath id="SVGID_12_">
					<use xlink:href="#SVGID_11_"  style="overflow:visible;"/>
				</clipPath>
				<path class="st11" d="M55.8,56.1c0.6-0.3,1.4-0.7,2.2-1c-0.1-0.6-0.3-2.2,0-3.2l-0.7,0.2c0-0.1,0-0.3,0-0.5l0.4-0.2l-0.2-0.1
					L53,53L38,51.5c5.7,1.4,12,3.7,14.9,4.7C53.8,56.6,54.9,56.5,55.8,56.1"/>
			</g>
		</g>
		<path class="st1" d="M37.8,51.4c2.8,0.2,5.5,0.4,8.2,0.6c2.7,0.2,5.5,0.3,8.1,0.2l-0.4,0.1c0.2-0.2,0.4-0.2,0.6-0.3l0.6-0.3
			l1.2-0.6l2.4-1.2l4.8-2.4h0l-0.4,0.4c0.2-0.4,0.4-0.9,0.6-1.4c0.2-0.5,0.4-1,0.5-1.5c0.3-1,0.7-2,0.9-3c0.3-1,0.5-2,0.8-3
			c0.1-0.5,0.2-1,0.3-1.5c0.1-0.5,0.2-1,0.3-1.5c0.2-1,0.3-2.1,0.4-3.1c0.1-1,0.2-2.1,0.3-3.1c0.1-1,0.1-2.1,0.1-3.1
			c0-1,0-2.1,0-3.1l0.1,0.3L64,16.6l-0.1-0.2l0-0.2l0.5-7.2l0.2,0.7l-3.7-4.2l0.5,0.3C57.6,5,53.7,4.4,49.8,3.9
			c-2-0.2-3.9-0.5-5.9-0.7C42,3.1,40,2.9,38,2.8c-2-0.1-3.9-0.3-5.9-0.4c-1-0.1-2-0.1-2.9-0.1l-2.9-0.1l-2.9,0c-1,0-2,0-2.9,0.1
			c-1,0-2,0.1-2.9,0.1l-2.9,0.2L15.3,2c-0.6,1.7-1.2,3.4-1.7,5.2c-0.5,1.7-1,3.5-1.5,5.3l-0.7,2.6c-0.2,0.9-0.4,1.8-0.6,2.7
			c-0.2,0.9-0.4,1.8-0.6,2.7c-0.2,0.9-0.4,1.8-0.5,2.7l-0.5,2.7L9,28.5c-0.1,0.9-0.2,1.8-0.3,2.7c-0.1,0.9-0.2,1.8-0.3,2.7l-0.2,2.7
			c-0.1,0.9-0.1,1.8-0.1,2.7c0,0.9,0,1.8,0,2.7l0.1,2.7l-0.7-0.9c0.8,0.3,1.5,0.6,2.3,0.8l2.3,0.8c1.5,0.6,3,1.1,4.5,1.6
			c3,1,6.1,2,9.2,2.9c-3.2-0.6-6.3-1.2-9.5-1.9c-1.6-0.4-3.1-0.8-4.7-1.2l-2.3-0.6c-0.8-0.2-1.6-0.4-2.3-0.6l-0.6-0.2l0-0.7L6.2,42
			c0-0.9,0-1.9,0-2.8c0-0.9,0-1.9,0.1-2.8l0.2-2.8c0-0.9,0.2-1.8,0.3-2.8C6.8,30,6.9,29.1,7,28.2l0.4-2.7l0.5-2.7
			C8,21.8,8.2,20.9,8.4,20c0.2-0.9,0.4-1.8,0.6-2.7c0.2-0.9,0.4-1.8,0.6-2.7l0.7-2.7c0.5-1.8,1-3.6,1.5-5.3c0.5-1.8,1.1-3.5,1.7-5.3
			l0.2-0.6l0.6,0l3-0.2c1-0.1,2-0.1,3-0.1c1,0,2-0.1,3-0.1l3,0l3,0.1c1,0,2,0.1,3,0.1c2,0.1,4,0.2,6,0.4c2,0.2,4,0.3,5.9,0.5
			c2,0.2,3.9,0.4,5.9,0.7c3.9,0.5,7.9,1.1,11.8,1.8l0.3,0.1l0.2,0.3L66,8.3l0.3,0.3l0,0.4l-0.5,7.2l-0.1-0.4l3.1,7.2l0.1,0.2l0,0.2
			c0,1.1,0,2.2,0,3.2c0,1.1-0.1,2.1-0.1,3.2c-0.1,1.1-0.2,2.1-0.3,3.2c-0.1,1.1-0.3,2.2-0.4,3.2c-0.1,0.5-0.2,1.1-0.3,1.6
			c-0.1,0.5-0.2,1.1-0.3,1.6c-0.2,1.1-0.5,2.1-0.8,3.1c-0.3,1-0.6,2.1-1,3.1c-0.2,0.5-0.4,1-0.6,1.5c-0.2,0.5-0.4,1-0.7,1.5
			l-0.1,0.3l-0.3,0.2l-4.7,2.4L57,52.9l-1.2,0.6l-0.6,0.3C55,53.9,54.8,54,54.6,54l-0.4,0.1c-2.8-0.2-5.6-0.7-8.3-1.2
			C43.2,52.5,40.5,51.9,37.8,51.4"/>
		<g class="st12">
			<g>
				<defs>
					<rect id="SVGID_13_" x="54.5" y="4" width="14.5" height="50"/>
				</defs>
				<clipPath id="SVGID_14_">
					<use xlink:href="#SVGID_13_"  style="overflow:visible;"/>
				</clipPath>
				<g class="st13">
					<g>
						<defs>
							<rect id="SVGID_15_" x="54.5" y="4" width="14.5" height="50"/>
						</defs>
						<clipPath id="SVGID_16_">
							<use xlink:href="#SVGID_15_"  style="overflow:visible;"/>
						</clipPath>
						<path class="st14" d="M55.2,53.8l0.6-0.3l1.2-0.6l2.4-1.2l4.7-2.4v0l0.3-0.2l0.1-0.3c0.3-0.5,0.5-1,0.7-1.5
							c0.2-0.5,0.4-1,0.6-1.5c0.4-1,0.7-2.1,1-3.1c0.3-1,0.6-2.1,0.8-3.1c0.1-0.5,0.2-1.1,0.3-1.6c0.1-0.5,0.2-1.1,0.3-1.6
							c0.2-1.1,0.3-2.1,0.4-3.2c0.1-1.1,0.2-2.1,0.3-3.2c0.1-1.1,0.1-2.1,0.1-3.2c0-1.1,0-2.1,0-3.2l0-0.2L68.9,23l-3-7l0.4-7l0-0.4
							L66,8.3l-3.7-4.2L62.3,4c0.7,26.3-6.2,45.8-7.8,50l0.1,0C54.8,54,55,53.9,55.2,53.8"/>
					</g>
				</g>
			</g>
		</g>
		<g class="st15">
			<g>
				<defs>
					<rect id="SVGID_17_" x="59.6" y="8.5" width="9.4" height="43"/>
				</defs>
				<clipPath id="SVGID_18_">
					<use xlink:href="#SVGID_17_"  style="overflow:visible;"/>
				</clipPath>
				<g class="st16">
					<g>
						<defs>
							<rect id="SVGID_19_" x="66.2" y="8.5" width="0.1" height="1.4"/>
						</defs>
						<clipPath id="SVGID_20_">
							<use xlink:href="#SVGID_19_"  style="overflow:visible;"/>
						</clipPath>
						<path class="st17" d="M66.3,9l0-0.4l-0.1-0.1c0,0.5,0,1,0,1.4L66.3,9z"/>
					</g>
				</g>
				<g class="st16">
					<g>
						<defs>
							<rect id="SVGID_21_" x="59.6" y="16.4" width="9.4" height="35.1"/>
						</defs>
						<clipPath id="SVGID_22_">
							<use xlink:href="#SVGID_21_"  style="overflow:visible;"/>
						</clipPath>
						<path class="st18" d="M64.1,49.2L64.1,49.2l0.3-0.2l0.1-0.3c0.3-0.5,0.5-1,0.7-1.5c0.2-0.5,0.4-1,0.6-1.5c0.4-1,0.7-2.1,1-3.1
							c0.3-1,0.6-2.1,0.8-3.1c0.1-0.5,0.2-1.1,0.3-1.6c0.1-0.5,0.2-1.1,0.3-1.6c0.2-1.1,0.3-2.1,0.4-3.2c0.1-1.1,0.2-2.1,0.3-3.2
							c0.1-1.1,0.1-2.1,0.1-3.2c0-1.1,0-2.1,0-3.2l0-0.2L68.9,23L66,16.4c-0.9,16.3-4.4,28.9-6.4,35.1L64.1,49.2z"/>
					</g>
				</g>
			</g>
		</g>
		<path class="st19" d="M4.4,53.9c16.5,4.2,33.7,5.6,50.7,3.9c-0.2,11-0.2,16.5-0.4,27.5c-16.5,1.2-33.2-0.5-49.1-4.8
			C5.1,69.8,4.9,64.5,4.4,53.9"/>
		<path class="st19" d="M47,87.1C33,87.4,19,85.7,5.1,81.9l-1.1-0.3L2.8,51.9l2,0.5c12.8,3.3,25.8,4.8,38.7,4.5
			c3.8-0.1,7.7-0.3,11.4-0.7l1.7-0.2l-0.4,30.6l-1.4,0.1C52.2,87,49.6,87.1,47,87.1 M7.1,79.3c15.2,4,30.8,5.5,46.1,4.5l0.4-24.5
			c-15.7,1.4-31.8,0.2-47.5-3.6L7.1,79.3z"/>
		<g class="st20">
			<g>
				<defs>
					<rect id="SVGID_23_" x="3.5" y="64" width="6.8" height="11.4"/>
				</defs>
				<clipPath id="SVGID_24_">
					<use xlink:href="#SVGID_23_"  style="overflow:visible;"/>
				</clipPath>
				<path class="st21" d="M3.8,75.5c8.1-3.8,6.3-11.4,6.3-11.4l-6.7,4L3.8,75.5z"/>
			</g>
		</g>
		<path class="st1" d="M9.7,61.6c-0.3-0.9-0.8-1.9-1.7-2.2c-0.8-0.3-1.8,0.1-2.6,0c-0.8-0.3-2.3-0.8-2.3-0.8
			c-0.3-0.1-0.5-0.1-0.8-0.1c-1,0.1-1.7,1-1.9,1.9c-0.3,0.9-0.1,1.9,0,2.8c0.1,1,0.3,1.9,0.4,2.9c0.1,1.1,0.3,2.2,0.8,3.2
			c0.5,1,1.4,1.8,2.5,1.9c1.2,0.1,2.2-0.6,3-1.5C7.4,69.4,7.7,69,8,68.6c0.3-0.3,0.6-0.7,0.8-1.1C9.9,65.8,10.3,63.6,9.7,61.6"/>
		<g class="st8">
			<g>
				<defs>
					<rect id="SVGID_25_" x="50.4" y="72.5" width="6" height="8.2"/>
				</defs>
				<clipPath id="SVGID_26_">
					<use xlink:href="#SVGID_25_"  style="overflow:visible;"/>
				</clipPath>
				<path class="st22" d="M56.4,74.2l-6-1.7c0,0-0.6,7,5.9,8.2L56.4,74.2z"/>
			</g>
		</g>
		<path class="st1" d="M58.8,66.3c-1.7,2.7-7.8,2-8.3,5.5c-0.7,4.6,5.1,5.1,5.1,5.1c4.4,0.1,7.7-1.8,9.6-4.3L58.8,66.3z"/>
		<g class="st4">
			<g>
				<defs>
					<rect id="SVGID_27_" x="25.4" y="100.5" width="43.6" height="3.7"/>
				</defs>
				<clipPath id="SVGID_28_">
					<use xlink:href="#SVGID_27_"  style="overflow:visible;"/>
				</clipPath>
				<path class="st23" d="M69,102.3c0,1-9.8,1.8-21.8,1.8c-12,0-21.8-0.8-21.8-1.8c0-1,9.8-1.8,21.8-1.8
					C59.2,100.5,69,101.3,69,102.3"/>
			</g>
		</g>
		<g class="st24">
			<g>
				<defs>
					<rect id="SVGID_29_" x="61.1" y="78.9" width="49" height="31.9"/>
				</defs>
				<clipPath id="SVGID_30_">
					<use xlink:href="#SVGID_29_"  style="overflow:visible;"/>
				</clipPath>
				<path class="st25" d="M67.9,84c0,0-2.6,2.1-2.4,5.9c0.2,3.8,0.8,5.6,0.3,6.2c-0.5,0.7-0.9,1.2-0.6,2.8c0.3,1.6-0.6,0.6-1,2.2
					c-0.4,1.6,0.2,3.1-1.4,3.6c-1.6,0.5-2,1-1.5,1.8c0.5,0.8,0.5,1.7,3.5,1.3c2.9-0.4,6.2,1.3,9.8,1c3.6-0.3,9.5,1,15.3,1.7
					c7,0.7,10.7-1.2,13-1.6c2.3-0.5,3.7-0.6,5.2-1c1.5-0.4,2.5-1.4,1.9-2.3c-0.6-0.9-3.2-0.4-3.7-1.6c-0.5-1.2,0.5-1.3-0.5-2.6
					c-0.9-1.3-1.5-2.7-1-3.6c0.5-0.9,0-3.2-0.3-4.3c-0.3-1.1,0.8-3.9-0.1-6c-1-2.1-1.1-1.2-0.1-3.2c1-2-0.4-4.4-0.4-4.4H71.7
					l-4.2-1.1c0,0-1.2,1-0.8,2.4C67,82.7,68.9,82.9,67.9,84"/>
			</g>
		</g>
		<path class="st26" d="M67.9,83.9c0,0-2.6,2.1-2.4,5.9c0.2,3.8,0.8,5.6,0.3,6.2c-0.5,0.7-0.9,1.2-0.6,2.8c0.3,1.6-0.6,0.6-1,2.2
			c-0.4,1.6,0.2,3.1-1.4,3.6c-1.6,0.5-2,1.2-1.5,2c0.5,0.8,0.5,1.5,3.5,1.1c2.9-0.4,6.3,0.9,9.8,0.5c3.6-0.3,9.3,0,15.1,0.5
			c5.7,0.5,10.6-0.4,12.9-0.9c2.3-0.5,4.2,0.3,5.7-0.1c1.5-0.4,2.2-1.2,1.6-2.2c-0.6-0.9-3.2-0.5-3.7-1.7c-0.5-1.2,0.5-1.3-0.5-2.6
			c-0.9-1.3-1.5-2.7-1-3.6c0.5-0.9,0-3.2-0.3-4.3c-0.3-1.1,0.8-3.9-0.1-6c-1-2.1-1.1-1.2-0.1-3.2c1-2-0.4-4.4-0.4-4.4H71.7l-4.2-1.1
			c0,0-1.2,1-0.8,2.4C67,82.6,68.9,82.8,67.9,83.9"/>
		<g class="st8">
			<g>
				<defs>
					<rect id="SVGID_31_" x="79.1" y="108.1" width="0.1" height="0"/>
				</defs>
				<clipPath id="SVGID_32_">
					<use xlink:href="#SVGID_31_"  style="overflow:visible;"/>
				</clipPath>
				<path class="st27" d="M79.1,108.2c0,0,0.1,0,0.1,0C79.2,108.2,79.2,108.2,79.1,108.2C79.1,108.1,79.1,108.2,79.1,108.2"/>
			</g>
		</g>
		<g class="st20">
			<g>
				<defs>
					<rect id="SVGID_33_" x="78.6" y="79.8" width="31.6" height="29.1"/>
				</defs>
				<clipPath id="SVGID_34_">
					<use xlink:href="#SVGID_33_"  style="overflow:visible;"/>
				</clipPath>
				<path class="st28" d="M110,105.6c-0.6-0.9-3.2-0.5-3.7-1.7c-0.5-1.2,0.5-1.3-0.5-2.6c-0.9-1.3-1.5-2.7-1-3.6
					c0.1-0.1,0.1-0.3,0.1-0.4c0-0.2,0-0.3,0.1-0.5c0-0.4,0-0.8-0.1-1.2c-0.1-0.8-0.3-1.7-0.5-2.2c-0.3-1.1,0.8-3.9-0.1-6
					c-1-2.1-1.1-1.2-0.1-3.2c1-2-0.4-4.4-0.4-4.4h-7.7l-17.5,3.6c0,0,3,7.3,21.2,2.9c0,0,2.7,5.4,0.5,6.7c-2.2,1.3-4,1.5-3.8,2.1
					c0.2,0.6,5.4-1.1,5.3,1.5c-0.1,2.6,0.7,4.9,1.2,5.8c0.5,0.8-4.5,6.1-22.4,5.8c2.8,0.1,5.9,0.3,9.1,0.6
					c5.7,0.5,10.6-0.4,12.9-0.9c2.3-0.5,4.2,0.3,5.7-0.1C109.9,107.4,110.6,106.6,110,105.6"/>
			</g>
		</g>
		<g class="st20">
			<g>
				<defs>
					<rect id="SVGID_35_" x="61.1" y="78.7" width="15.1" height="29.6"/>
				</defs>
				<clipPath id="SVGID_36_">
					<use xlink:href="#SVGID_35_"  style="overflow:visible;"/>
				</clipPath>
				<path class="st29" d="M69.6,99.6c2,0.9,9.7-0.1,5.2-0.6c-4.5-0.6-6.4-4.6-6.4-4.6c-0.6-1.7-1.2-4.1-0.1-6.2
					c1.6-2.9,2.5-5.1,5.1-4.4c2.5,0.7,0.8-2.2,0.8-2.2l-0.7-1.8h-1.8l-4.2-1.1c0,0-1.2,1-0.8,2.4c0.4,1.4,2.2,1.6,1.2,2.8
					c0,0-2.6,2.1-2.4,5.9c0.2,3.8,0.8,5.6,0.3,6.2c-0.5,0.7-0.9,1.2-0.6,2.8c0.3,1.6-0.6,0.6-1,2.2c-0.4,1.6,0.2,3.1-1.4,3.6
					c-1.6,0.5-2,1.2-1.5,2c0.5,0.8,0.5,1.5,3.5,1.1c2.8-0.4,6,0.8,9.4,0.6c0,0-8.2-2.2-7-4.4c1.2-2.2,1.7-2.6,0.7-4.4
					c0,0-0.1-0.1-0.1-0.1C68.2,99.2,68.8,99.2,69.6,99.6"/>
			</g>
		</g>
		<path class="st30" d="M104.4,81.2c0-0.2-0.2-0.6-0.3-0.8c-0.1,0.2-0.3,0.8-0.5,1c-0.6,1.3-2.3,2.1-4.5,2.2c-0.1,0-0.2,0-0.3,0
			c-3,0.3-6.8,3-11.1,3.7c-0.1,0-0.3,0-0.4,0.1c-4.2,0.5-7.3-2.7-11-2.9c-3.8-0.1-2-1.2-5.5-1.8c-1.7-0.3-2.7-1-3.2-1.7
			c-0.4-0.4-0.8-0.8-1-1.1c-0.1,0.3-0.1,0.7,0,1.1c0.3,1,1.3,1.4,1.5,1.9c0.8,0.6,1.8,1.2,2.7,1.3c3.5,0.5,1.7,1.6,5.5,1.8
			c3.8,0.1,7,3.5,11.4,2.8c4.4-0.7,8.4-3.6,11.4-3.8C102,85.1,104.5,83.3,104.4,81.2"/>
	</g>
	<g class="st0">
		<defs>
			<path id="SVGID_37_" d="M105.4,64.3c-7.6,1-36.9,2.2-41.8,0.9c-4.9-1.3,1.7,12.3,2.1,14.2c0,0,1.6,2.7,5.1,3.3
				c3.5,0.5,1.7,1.6,5.5,1.8c3.8,0.1,7,3.5,11.4,2.8c4.4-0.7,8.4-3.6,11.4-3.8c3-0.1,6.6-2.2,6.1-4.5c-0.6-2.2,7.2-14.8,1-14.8
				C105.9,64.3,105.7,64.3,105.4,64.3"/>
		</defs>
		<clipPath id="SVGID_38_">
			<use xlink:href="#SVGID_37_"  style="overflow:visible;"/>
		</clipPath>
		
			<rect x="83.4" y="74.7" transform="matrix(-0.9649 0.2625 -0.2625 -0.9649 194.2183 128.1066)" class="st31" width="10.2" height="4.7"/>
		
			<rect x="93.4" y="76.1" transform="matrix(-0.3374 0.9414 -0.9414 -0.3374 205.5268 12.1339)" class="st31" width="10.2" height="4.7"/>
		
			<rect x="66.3" y="79.6" transform="matrix(0.6704 0.742 -0.742 0.6704 84.3219 -26.0217)" class="st32" width="10.2" height="4.7"/>
		
			<rect x="74.6" y="78.6" transform="matrix(0.2181 -0.9759 0.9759 0.2181 -16.6771 141.1465)" class="st32" width="10.2" height="4.7"/>
		
			<rect x="78.8" y="76.5" transform="matrix(0.2138 -0.9769 0.9769 0.2138 -11.0309 143.976)" class="st33" width="10.2" height="4.7"/>
		
			<rect x="96.1" y="79" transform="matrix(-0.4199 0.9076 -0.9076 -0.4199 217.533 23.7179)" class="st33" width="10.2" height="4.7"/>
		
			<rect x="86.3" y="75.5" transform="matrix(-0.3828 0.9238 -0.9238 -0.3828 198.3878 23.2266)" class="st32" width="10.2" height="4.7"/>
		
			<rect x="90.1" y="76.8" transform="matrix(-0.1601 0.9871 -0.9871 -0.1601 188.5706 -2.1598)" class="st33" width="10.2" height="4.7"/>
		
			<rect x="86.1" y="78.6" transform="matrix(-0.2181 -0.9759 0.9759 -0.2181 32.1117 187.5419)" class="st34" width="10.2" height="4.7"/>
		
			<rect x="80.5" y="78.9" transform="matrix(-1.622243e-002 0.9999 -0.9999 -1.622243e-002 168.17 -3.0808)" class="st32" width="10.2" height="4.7"/>
		
			<rect x="84" y="79.7" transform="matrix(0.2181 -0.9759 0.9759 0.2181 -10.4059 151.0563)" class="st31" width="10.2" height="4.7"/>
		
			<rect x="91.5" y="80.5" transform="matrix(0.2002 -0.9798 0.9798 0.2002 -3.9023 160.8826)" class="st32" width="10.2" height="4.7"/>
		
			<rect x="94.3" y="82.5" transform="matrix(-0.3374 0.9414 -0.9414 -0.3374 212.8945 19.8544)" class="st34" width="10.2" height="4.7"/>
		
			<rect x="87.4" y="81.1" transform="matrix(0.233 0.9725 -0.9725 0.233 152.0575 -26.0285)" class="st32" width="10.2" height="4.7"/>
		
			<rect x="70.6" y="80.2" transform="matrix(-0.2002 -0.9798 0.9798 -0.2002 9.9888 173.2996)" class="st32" width="10.2" height="4.7"/>
		
			<rect x="67.3" y="82.5" transform="matrix(0.3374 0.9414 -0.9414 0.3374 127.8712 -11.9697)" class="st33" width="10.2" height="4.7"/>
		
			<rect x="94.1" y="84.8" transform="matrix(-0.6813 0.732 -0.732 -0.6813 230.6246 73.788)" class="st32" width="10.2" height="4.7"/>
		
			<rect x="90.1" y="83.3" transform="matrix(-0.1601 0.9871 -0.9871 -0.1601 195.0119 5.4107)" class="st31" width="10.2" height="4.7"/>
		
			<rect x="86.1" y="85.1" transform="matrix(-0.2181 -0.9759 0.9759 -0.2181 25.7421 195.4924)" class="st34" width="10.2" height="4.7"/>
		
			<rect x="77.2" y="79.8" transform="matrix(-0.218 -0.976 0.976 -0.218 20.1285 180.3223)" class="st34" width="10.2" height="4.7"/>
		
			<rect x="81.9" y="83" transform="matrix(0.216 -0.9764 0.9764 0.216 -15.0722 151.8169)" class="st33" width="10.2" height="4.7"/>
		
			<rect x="66.6" y="83.8" transform="matrix(0.6812 0.7321 -0.7321 0.6812 85.8971 -25.0267)" class="st31" width="10.2" height="4.7"/>
		
			<rect x="73.7" y="81.2" transform="matrix(-0.2331 0.9725 -0.9725 -0.2331 178.4428 26.2998)" class="st33" width="10.2" height="4.7"/>
		
			<rect x="70.6" y="83.3" transform="matrix(0.1603 0.9871 -0.9871 0.1603 148.0757 -2.8781)" class="st34" width="10.2" height="4.7"/>
		
			<rect x="74.6" y="85" transform="matrix(0.2181 -0.9759 0.9759 0.2181 -22.9029 146.1343)" class="st34" width="10.2" height="4.7"/>
		
			<rect x="78.8" y="82.9" transform="matrix(-0.2161 -0.9764 0.9764 -0.2161 18.852 185.5778)" class="st31" width="10.2" height="4.7"/>
	</g>
	<g class="st0">
		<text transform="matrix(1 0 0 1 -128.0493 62.9492)" style="fill:#FFFFFF; font-family:'Lato-Heavy'; font-size:7.04px;">  </text>
	</g>
	<g class="st0">
		<defs>
			<rect id="SVGID_39_" x="-180.5" y="-32.2" width="317.9" height="186.6"/>
		</defs>
		<clipPath id="SVGID_40_">
			<use xlink:href="#SVGID_39_"  style="overflow:visible;"/>
		</clipPath>
	</g>
</g>
<path class="st35" d="M16.6,67.9c-0.7-0.1-1.4-0.3-2.2-0.4c0.4-2.4,0.7-3.6,1.1-6c-1-0.1-1.5-0.2-2.5-0.3c-0.4,2.3-0.6,3.5-1,5.8
	c-0.4-0.1-0.6-0.1-0.6-0.2c-0.2,0.9-0.3,1.3-0.6,2.2c0,0,0.3,0.1,0.8,0.2c-0.5,2.9-0.8,4.3-1.3,7.2c1,0,1.4,0,2.4,0
	c0.5-2.7,0.8-4,1.3-6.7c0.8,0.1,1.6,0.3,2.2,0.4c-0.5,3.1-0.8,4.7-1.3,7.8c1,0,1.5,0,2.4-0.1C18.5,72,19,69,20,63.2
	c-1-0.1-1.5-0.1-2.5-0.2C17.1,64.9,16.9,65.9,16.6,67.9"/>
<path class="st35" d="M20.9,64.5C20.9,64.5,20.9,64.5,20.9,64.5c-0.3,2.1-0.5,3.1-0.8,5.2c-0.1,0-0.2,0-0.2,0
	c-0.2,0.9-0.3,1.3-0.5,2.2c0,0,0.1,0,0.4,0.1c-0.4,2.4-0.6,3.7-1,6.1c0.7,0,1-0.1,1.7-0.1c7.1,0.8,6.1,0.4,6.1,0.4l0.6-2.1
	c0,0-3.3-0.2-5.6-0.4c0.2-1.4,0.4-2.1,0.6-3.5c1.9,0.2,4,0.4,4.2,0.4c0.3,0.1,0.6-2.1,0.6-2.1s-2.4-0.2-4.4-0.5
	c0.2-1.3,0.3-1.9,0.5-3.2c2.2,0.3,5.1,0.5,5.2,0.6c0.2,0.1,0.6-2.1,0.6-2.1s-7.7-1-7.9-1C20.9,64.4,20.9,64.4,20.9,64.5"/>
<path class="st35" d="M30.7,76.9c0.5-4.9,0.8-7.3,1.3-12.2c-0.9,0.1-1.4,0.2-2.3,0.3c-0.7,5.7-1.1,8.5-1.9,14.3c0.1,0,0.1,0,0.1,0
	c0,0,0,0,0,0c0,0,5.8-0.6,6.1-0.6c0.3,0,0.3-2.1,0.3-2.1S32.4,76.8,30.7,76.9"/>
<path class="st35" d="M37.5,77.4c0.3-4.4,0.5-6.5,0.8-10.9c-0.9,0-1.3-0.1-2.2-0.1c-0.6,5.2-0.9,7.8-1.5,13c0.1,0,0.1,0,0.2,0
	c0,0,0,0,0,0c0,0,5.7-0.1,6-0.1c0.3,0-0.1-1.9-0.1-1.9S39,77.5,37.5,77.4"/>
<path class="st35" d="M44.8,66.6c-2.5-0.1-4.3,2.7-4.8,5.9c-0.5,3.2,1.9,6,4.5,5.9c2.6,0,4.8-2.7,5.1-5.8
	C50,69.6,47.3,66.8,44.8,66.6 M44.7,75.2c-1.2,0-2.2-1.2-2-2.6c0.2-1.4,1-2.7,2.1-2.7c1.1,0,2.4,1.4,2.2,2.8
	C46.9,74.1,45.9,75.2,44.7,75.2"/>
</svg>
