<?xml version="1.0" encoding="utf-8"?>
<!-- Generator: Adobe Illustrator 16.0.3, SVG Export Plug-In . SVG Version: 6.00 Build 0)  -->
<!DOCTYPE svg PUBLIC "-//W3C//DTD SVG 1.1//EN" "http://www.w3.org/Graphics/SVG/1.1/DTD/svg11.dtd">
<svg version="1.1" id="Layer_1" xmlns="http://www.w3.org/2000/svg" xmlns:xlink="http://www.w3.org/1999/xlink" x="0px" y="0px"
	 width="121.75px" height="50px" viewBox="0 0 121.75 50" enable-background="new 0 0 121.75 50" xml:space="preserve">
<line opacity="0.5" fill-rule="evenodd" clip-rule="evenodd" fill="none" stroke="#8C98A5" stroke-width="0.9998" stroke-miterlimit="22.9256" x1="1.533" y1="0" x2="1.533" y2="50"/>
<path opacity="0.5" fill-rule="evenodd" clip-rule="evenodd" fill="#536579" d="M26.928,19.225
	c-0.229-0.184-0.566-0.148-0.751,0.082c-0.678,0.842-1.051,1.902-1.051,2.984c0,1.086,0.356,2.11,1.032,2.96
	c0.105,0.133,0.261,0.202,0.418,0.202c0.116,0,0.233-0.038,0.332-0.116c0.23-0.183,0.27-0.519,0.086-0.75
	c-0.523-0.66-0.8-1.454-0.8-2.296c0-0.852,0.281-1.652,0.815-2.315C27.194,19.747,27.158,19.411,26.928,19.225L26.928,19.225z
	 M32.481,23.433c0.103-0.285,0.158-0.592,0.158-0.911c0-1.489-1.211-2.7-2.7-2.7c-1.488,0-2.7,1.211-2.7,2.7
	c0,0.499,0.178,0.936,0.407,1.343v-0.143c0-0.315,0.057-0.614,0.167-0.887c0.112-0.279,0.282-0.535,0.505-0.757
	c0.233-0.234,0.519-0.418,0.83-0.542c0.307-0.122,0.633-0.187,0.956-0.187c0.608,0,1.161,0.211,1.585,0.573
	C32.127,22.294,32.415,22.819,32.481,23.433L32.481,23.433z M32.951,25.336c0.099,0.08,0.217,0.118,0.335,0.118
	c0.155,0,0.311-0.068,0.416-0.199c0.678-0.843,1.051-1.903,1.051-2.985c0-1.086-0.356-2.11-1.031-2.96
	c-0.184-0.231-0.52-0.27-0.751-0.086s-0.27,0.52-0.086,0.75c0.523,0.66,0.801,1.454,0.801,2.296c0,0.851-0.283,1.652-0.815,2.315
	C32.685,24.815,32.721,25.151,32.951,25.336z"/>
<path fill-rule="evenodd" clip-rule="evenodd" fill="#536579" d="M36.82,10.014H23.06c-0.842,0-1.526,0.685-1.526,1.526v22.927
	c0,0.841,0.685,1.526,1.526,1.526h2.722c-0.238-0.333-0.452-0.659-0.644-0.974c-0.778-1.277-1.201-2.414-1.315-3.099
	c-0.045-0.266-0.051-0.527-0.02-0.78h-0.148c-0.21,0-0.382-0.171-0.382-0.381V13.333c0-0.209,0.172-0.381,0.382-0.381h12.57
	c0.21,0,0.382,0.172,0.382,0.381v14.61c0.075,0.023,0.138,0.04,0.176,0.047c0.626,0.122,1.141,0.481,1.512,0.915l0.052,0.062V11.54
	C38.346,10.699,37.661,10.014,36.82,10.014L36.82,10.014z M31.111,11.957h-2.343c-0.211,0-0.382-0.171-0.382-0.382
	s0.171-0.381,0.382-0.381h2.343c0.211,0,0.382,0.171,0.382,0.381S31.322,11.957,31.111,11.957z"/>
<path fill-rule="evenodd" clip-rule="evenodd" fill="#536579" d="M36.557,29.169c-0.178-0.035-0.514-0.146-0.838-0.252
	c-0.405-0.134-0.825-0.272-1.13-0.332c-0.157-0.031-0.482-0.135-0.797-0.235c-0.416-0.132-0.848-0.27-1.145-0.329
	c-0.288-0.057-0.583-0.055-0.834,0.002c-0.138-1.188-0.468-4.027-0.525-4.463h0.002c-0.064-0.595-0.552-1.011-1.185-1.011
	c-0.36,0-0.702,0.136-0.938,0.372c-0.213,0.213-0.325,0.491-0.324,0.8l-0.004,8.235c-0.279-0.056-0.807-0.235-1.196-0.798
	l-0.052-0.075c-0.069-0.099-0.132-0.19-0.191-0.277c-0.283-0.408-0.702-0.642-1.149-0.642c-0.373,0-0.725,0.162-0.964,0.445
	c-0.252,0.298-0.353,0.693-0.282,1.114c0.166,0.995,1.187,3.251,3.319,5.449l0.004,2.044c0,0.44,0.357,0.797,0.797,0.797h6.709
	c0.439,0,0.798-0.357,0.798-0.798l-0.007-2.095l0.707-1.188c0.308-0.514,0.471-1.103,0.471-1.704v-3.609
	C37.793,30.137,37.291,29.311,36.557,29.169z"/>
<path fill-rule="evenodd" clip-rule="evenodd" fill="#536579" d="M54,13.432c-1.097,0-1.965,0.366-2.602,1.097
	c-0.635,0.732-0.952,1.733-0.952,3.005c0,1.31,0.306,2.319,0.919,3.031c0.611,0.714,1.486,1.071,2.623,1.071
	c0.695,0,1.491-0.126,2.384-0.376v1.02c-0.692,0.262-1.546,0.392-2.563,0.392c-1.473,0-2.609-0.445-3.407-1.339
	c-0.8-0.894-1.201-2.163-1.201-3.808c0-1.031,0.193-1.934,0.578-2.709c0.385-0.774,0.94-1.372,1.669-1.79
	c0.726-0.42,1.582-0.63,2.566-0.63c1.05,0,1.965,0.191,2.749,0.572l-0.493,0.999C55.514,13.609,54.758,13.432,54,13.432z"/>
<rect x="58.382" y="11.892" fill-rule="evenodd" clip-rule="evenodd" fill="#536579" width="1.134" height="10.64"/>
<path fill-rule="evenodd" clip-rule="evenodd" fill="#536579" d="M63.058,22.532h-1.134v-7.49h1.134V22.532L63.058,22.532z
	 M61.828,13.007c0-0.259,0.063-0.448,0.191-0.569c0.128-0.122,0.286-0.182,0.478-0.182c0.183,0,0.341,0.061,0.472,0.185
	c0.133,0.124,0.198,0.313,0.198,0.567c0,0.256-0.065,0.448-0.198,0.572c-0.131,0.126-0.289,0.189-0.472,0.189
	c-0.191,0-0.35-0.063-0.478-0.189C61.891,13.455,61.828,13.264,61.828,13.007z"/>
<path fill-rule="evenodd" clip-rule="evenodd" fill="#536579" d="M68.459,22.672c-1.085,0-1.925-0.333-2.521-1.001
	c-0.595-0.669-0.891-1.615-0.891-2.835c0-1.255,0.301-2.224,0.905-2.907s1.463-1.027,2.58-1.027c0.36,0,0.719,0.04,1.081,0.117
	c0.359,0.077,0.642,0.167,0.847,0.275l-0.35,0.963c-0.25-0.1-0.522-0.182-0.819-0.25c-0.296-0.065-0.558-0.098-0.786-0.098
	c-1.521,0-2.282,0.97-2.282,2.912c0,0.919,0.185,1.626,0.556,2.119c0.373,0.493,0.921,0.737,1.651,0.737
	c0.624,0,1.265-0.135,1.921-0.403v1.008C69.85,22.542,69.22,22.672,68.459,22.672z"/>
<path fill-rule="evenodd" clip-rule="evenodd" fill="#536579" d="M73.249,18.696c0.196-0.277,0.495-0.642,0.896-1.092l2.42-2.562
	h1.349l-3.036,3.192l3.248,4.298h-1.374l-2.646-3.542l-0.856,0.737v2.805h-1.12v-10.64h1.12v5.642c0,0.25-0.019,0.637-0.054,1.162
	H73.249z"/>
<path fill-rule="evenodd" clip-rule="evenodd" fill="#536579" d="M88.243,22.532v-4.847c0-0.611-0.138-1.066-0.417-1.367
	c-0.278-0.301-0.715-0.45-1.308-0.45c-0.788,0-1.362,0.214-1.727,0.641c-0.361,0.43-0.543,1.132-0.543,2.107v3.916h-1.135v-10.64
	h1.135v3.222c0,0.387-0.019,0.709-0.054,0.964h0.067c0.224-0.359,0.541-0.644,0.954-0.852c0.413-0.207,0.885-0.31,1.412-0.31
	c0.917,0,1.605,0.217,2.063,0.653c0.457,0.434,0.687,1.127,0.687,2.074v4.889H88.243z"/>
<path fill-rule="evenodd" clip-rule="evenodd" fill="#536579" d="M94.872,22.672c-1.108,0-1.98-0.338-2.62-1.013
	c-0.642-0.674-0.961-1.612-0.961-2.812c0-1.208,0.296-2.167,0.891-2.879c0.596-0.711,1.394-1.066,2.396-1.066
	c0.938,0,1.683,0.308,2.229,0.926c0.546,0.619,0.821,1.433,0.821,2.443v0.719h-5.161c0.023,0.879,0.245,1.547,0.665,2.004
	c0.423,0.455,1.015,0.684,1.783,0.684c0.805,0,1.603-0.167,2.392-0.506v1.013c-0.401,0.175-0.782,0.298-1.139,0.375
	C95.811,22.635,95.379,22.672,94.872,22.672L94.872,22.672z M94.564,15.854c-0.602,0-1.08,0.196-1.438,0.588
	c-0.359,0.39-0.569,0.931-0.632,1.624h3.915c0-0.714-0.158-1.262-0.479-1.643C95.612,16.043,95.157,15.854,94.564,15.854z"/>
<path fill-rule="evenodd" clip-rule="evenodd" fill="#536579" d="M102.979,14.902c0.331,0,0.63,0.028,0.894,0.082l-0.156,1.057
	c-0.311-0.067-0.583-0.103-0.821-0.103c-0.604,0-1.122,0.245-1.554,0.737c-0.43,0.492-0.645,1.106-0.645,1.839v4.018h-1.136v-7.49
	h0.938l0.129,1.384h0.056c0.277-0.488,0.611-0.863,1.003-1.127C102.078,15.035,102.507,14.902,102.979,14.902z"/>
<path fill-rule="evenodd" clip-rule="evenodd" fill="#536579" d="M108.161,22.672c-1.108,0-1.981-0.338-2.621-1.013
	c-0.642-0.674-0.961-1.612-0.961-2.812c0-1.208,0.296-2.167,0.892-2.879c0.595-0.711,1.393-1.066,2.396-1.066
	c0.938,0,1.682,0.308,2.228,0.926c0.546,0.619,0.821,1.433,0.821,2.443v0.719h-5.161c0.023,0.879,0.245,1.547,0.665,2.004
	c0.423,0.455,1.015,0.684,1.783,0.684c0.805,0,1.603-0.167,2.392-0.506v1.013c-0.401,0.175-0.782,0.298-1.139,0.375
	C109.099,22.635,108.667,22.672,108.161,22.672L108.161,22.672z M107.853,15.854c-0.602,0-1.08,0.196-1.438,0.588
	c-0.358,0.39-0.569,0.931-0.632,1.624h3.915c0-0.714-0.158-1.262-0.479-1.643C108.9,16.043,108.445,15.854,107.853,15.854z"/>
<path fill-rule="evenodd" clip-rule="evenodd" fill="#536579" d="M51.97,36.987c0.2,0,0.395-0.014,0.581-0.044
	s0.333-0.061,0.443-0.093v0.871c-0.124,0.058-0.304,0.107-0.544,0.146c-0.237,0.04-0.455,0.059-0.646,0.059
	c-1.449,0-2.172-0.763-2.172-2.292v-4.457h-1.073V30.63l1.073-0.474l0.479-1.598h0.655v1.736h2.175v0.881h-2.175v4.408
	c0,0.453,0.107,0.798,0.322,1.041C51.302,36.865,51.596,36.987,51.97,36.987z"/>
<path fill-rule="evenodd" clip-rule="evenodd" fill="#536579" d="M60.958,34.033c0,1.223-0.309,2.177-0.922,2.863
	c-0.616,0.686-1.466,1.029-2.551,1.029c-0.67,0-1.265-0.157-1.785-0.472c-0.518-0.315-0.919-0.768-1.201-1.355
	c-0.285-0.588-0.425-1.276-0.425-2.065c0-1.223,0.306-2.175,0.917-2.856c0.608-0.681,1.458-1.021,2.541-1.021
	c1.05,0,1.881,0.348,2.499,1.045S60.958,32.843,60.958,34.033L60.958,34.033z M55.25,34.033c0,0.957,0.191,1.687,0.574,2.188
	c0.383,0.502,0.945,0.751,1.689,0.751c0.742,0,1.307-0.25,1.691-0.749c0.385-0.499,0.576-1.229,0.576-2.191
	c0-0.952-0.191-1.675-0.576-2.17c-0.385-0.495-0.954-0.742-1.705-0.742c-0.745,0-1.305,0.243-1.683,0.73S55.25,33.067,55.25,34.033z
	"/>
<path fill-rule="evenodd" clip-rule="evenodd" fill="#536579" d="M71.418,35.743c0,0.698-0.262,1.237-0.779,1.615
	c-0.521,0.378-1.248,0.567-2.188,0.567c-0.992,0-1.767-0.157-2.324-0.472v-1.055c0.361,0.182,0.747,0.327,1.159,0.432
	c0.413,0.105,0.81,0.157,1.192,0.157c0.593,0,1.048-0.096,1.368-0.285c0.319-0.189,0.478-0.476,0.478-0.863
	c0-0.292-0.126-0.542-0.38-0.749c-0.252-0.208-0.744-0.453-1.479-0.735c-0.697-0.261-1.192-0.488-1.486-0.681
	c-0.294-0.194-0.514-0.413-0.655-0.66c-0.145-0.245-0.215-0.539-0.215-0.882c0-0.611,0.247-1.092,0.744-1.446
	c0.497-0.353,1.179-0.53,2.044-0.53c0.806,0,1.594,0.163,2.364,0.492l-0.404,0.924c-0.751-0.311-1.433-0.465-2.041-0.465
	c-0.539,0-0.945,0.084-1.219,0.252c-0.272,0.17-0.41,0.401-0.41,0.698c0,0.201,0.051,0.371,0.153,0.513
	c0.103,0.14,0.269,0.275,0.497,0.404c0.227,0.125,0.665,0.313,1.312,0.553c0.89,0.324,1.488,0.651,1.802,0.978
	C71.262,34.833,71.418,35.246,71.418,35.743z"/>
<path fill-rule="evenodd" clip-rule="evenodd" fill="#536579" d="M76.428,37.925c-1.108,0-1.98-0.338-2.62-1.013
	c-0.642-0.674-0.962-1.613-0.962-2.812c0-1.208,0.297-2.167,0.892-2.879c0.595-0.712,1.394-1.066,2.396-1.066
	c0.938,0,1.683,0.308,2.229,0.926s0.821,1.433,0.821,2.443v0.719h-5.161c0.022,0.88,0.245,1.547,0.665,2.004
	c0.422,0.455,1.015,0.684,1.782,0.684c0.805,0,1.604-0.168,2.392-0.506v1.013c-0.401,0.175-0.781,0.299-1.139,0.375
	C77.365,37.887,76.935,37.925,76.428,37.925L76.428,37.925z M76.12,31.106c-0.603,0-1.081,0.196-1.438,0.588
	c-0.359,0.39-0.569,0.931-0.633,1.624h3.916c0-0.714-0.159-1.262-0.479-1.643C77.168,31.295,76.713,31.106,76.12,31.106z"/>
<path fill-rule="evenodd" clip-rule="evenodd" fill="#536579" d="M84.281,37.925c-1.108,0-1.98-0.338-2.62-1.013
	C81.02,36.238,80.7,35.299,80.7,34.1c0-1.208,0.296-2.167,0.892-2.879c0.595-0.712,1.393-1.066,2.396-1.066
	c0.938,0,1.683,0.308,2.229,0.926s0.821,1.433,0.821,2.443v0.719h-5.161c0.023,0.88,0.245,1.547,0.665,2.004
	c0.423,0.455,1.015,0.684,1.783,0.684c0.805,0,1.603-0.168,2.392-0.506v1.013c-0.401,0.175-0.782,0.299-1.139,0.375
	C85.22,37.887,84.788,37.925,84.281,37.925L84.281,37.925z M83.974,31.106c-0.602,0-1.08,0.196-1.438,0.588
	c-0.359,0.39-0.569,0.931-0.632,1.624h3.915c0-0.714-0.158-1.262-0.479-1.643C85.021,31.295,84.566,31.106,83.974,31.106z"/>
<path fill-rule="evenodd" clip-rule="evenodd" fill="#536579" d="M97.738,37.785v-4.846c0-0.611-0.138-1.066-0.418-1.367
	c-0.277-0.301-0.714-0.451-1.307-0.451c-0.789,0-1.362,0.215-1.727,0.642c-0.361,0.429-0.544,1.132-0.544,2.107v3.915h-1.134v-10.64
	h1.134v3.222c0,0.388-0.019,0.709-0.054,0.964h0.067c0.225-0.359,0.542-0.644,0.955-0.852s0.884-0.311,1.411-0.311
	c0.917,0,1.605,0.217,2.063,0.653c0.457,0.434,0.686,1.127,0.686,2.075v4.888H97.738z"/>
<path fill-rule="evenodd" clip-rule="evenodd" fill="#536579" d="M107.669,34.033c0,1.223-0.309,2.177-0.922,2.863
	c-0.616,0.686-1.465,1.029-2.551,1.029c-0.669,0-1.264-0.157-1.784-0.472c-0.519-0.315-0.92-0.768-1.202-1.355
	c-0.284-0.588-0.425-1.276-0.425-2.065c0-1.223,0.306-2.175,0.917-2.856c0.609-0.681,1.459-1.021,2.541-1.021
	c1.05,0,1.881,0.348,2.499,1.045S107.669,32.843,107.669,34.033L107.669,34.033z M101.962,34.033c0,0.957,0.191,1.687,0.573,2.188
	c0.383,0.502,0.945,0.751,1.689,0.751c0.742,0,1.307-0.25,1.691-0.749c0.386-0.499,0.577-1.229,0.577-2.191
	c0-0.952-0.191-1.675-0.577-2.17c-0.385-0.495-0.954-0.742-1.705-0.742c-0.744,0-1.305,0.243-1.683,0.73
	S101.962,33.067,101.962,34.033z"/>
<path fill-rule="evenodd" clip-rule="evenodd" fill="#536579" d="M115.497,37.785l-1.374-4.394c-0.087-0.269-0.247-0.88-0.485-1.832
	h-0.054c-0.182,0.798-0.343,1.412-0.479,1.846l-1.416,4.38h-1.312l-2.046-7.49h1.189c0.482,1.88,0.852,3.315,1.105,4.298
	c0.252,0.984,0.397,1.647,0.435,1.99h0.054c0.051-0.261,0.131-0.597,0.242-1.008c0.112-0.413,0.208-0.74,0.292-0.982l1.374-4.298
	h1.23l1.339,4.298c0.257,0.784,0.43,1.442,0.521,1.976h0.056c0.017-0.166,0.065-0.417,0.147-0.758
	c0.079-0.343,0.553-2.182,1.426-5.516h1.176l-2.072,7.49H115.497z"/>
<path fill-rule="evenodd" clip-rule="evenodd" fill="#536579" d="M121.293,35.026h-0.719l-0.348-7.238h1.414L121.293,35.026
	L121.293,35.026z M120.103,37.059c0-0.618,0.273-0.926,0.822-0.926c0.264,0,0.466,0.079,0.611,0.238
	c0.142,0.159,0.214,0.39,0.214,0.688c0,0.292-0.072,0.518-0.219,0.679c-0.145,0.161-0.348,0.243-0.606,0.243
	c-0.238,0-0.435-0.072-0.589-0.214C120.18,37.624,120.103,37.388,120.103,37.059z"/>
</svg>
