<?xml version="1.0" encoding="utf-8"?>
<!-- Generator: Adobe Illustrator 18.0.0, SVG Export Plug-In . SVG Version: 6.00 Build 0)  -->
<!DOCTYPE svg PUBLIC "-//W3C//DTD SVG 1.1//EN" "http://www.w3.org/Graphics/SVG/1.1/DTD/svg11.dtd">
<svg version="1.1" id="Réteg_1" xmlns="http://www.w3.org/2000/svg" xmlns:xlink="http://www.w3.org/1999/xlink" x="0px" y="0px"
	 viewBox="0 0 1000 270" enable-background="new 0 0 1000 270" xml:space="preserve">
<g>
	<path fill="#9B5C8F" d="M48.9,37.9h265.5c16.8,0,30.4,13.6,30.4,30.4v101.3c0,16.8-13.6,30.4-30.4,30.4h-95.2l13.1,32l-57.5-32H49
		c-16.8,0-30.4-13.6-30.4-30.4V68.3C18.5,51.7,32.1,37.9,48.9,37.9z"/>
	<path fill="#FFFFFF" d="M34.9,65.5c1.9-2.5,4.7-3.9,8.4-4.1c6.8-0.5,10.7,2.7,11.6,9.6c4.1,27.9,8.7,51.5,13.5,70.8l29.2-55.6
		c2.7-5.1,6-7.7,10-8c5.9-0.4,9.5,3.3,10.9,11.2c3.3,17.7,7.6,32.8,12.7,45.6c3.5-33.9,9.3-58.3,17.6-73.3c2-3.7,4.9-5.6,8.8-5.9
		c3.1-0.3,5.9,0.7,8.4,2.7c2.5,2,3.9,4.5,4.1,7.6c0.1,2.4-0.3,4.4-1.3,6.4c-5.2,9.6-9.5,25.7-12.9,48.1c-3.3,21.7-4.5,38.7-3.7,50.8
		c0.3,3.3-0.3,6.3-1.6,8.8c-1.6,2.9-4,4.5-7.1,4.8c-3.5,0.3-7.1-1.3-10.5-4.9c-12.4-12.7-22.3-31.6-29.5-56.8
		c-8.7,17.1-15.1,29.9-19.2,38.4c-7.9,15.1-14.5,22.8-20.1,23.2c-3.6,0.3-6.7-2.8-9.3-9.2c-6.8-17.5-14.1-51.2-22-101.2
		C32.3,71,33,67.9,34.9,65.5z"/>
	<path fill="#FFFFFF" d="M321.5,86.5c-4.8-8.4-11.9-13.5-21.3-15.5c-2.5-0.5-4.9-0.8-7.2-0.8c-12.8,0-23.2,6.7-31.3,20
		c-6.9,11.3-10.4,23.9-10.4,37.6c0,10.3,2.1,19.1,6.4,26.4c4.8,8.4,11.9,13.5,21.3,15.5c2.5,0.5,4.9,0.8,7.2,0.8
		c12.9,0,23.3-6.7,31.3-20c6.9-11.5,10.4-24,10.4-37.7C327.9,102.3,325.8,93.7,321.5,86.5L321.5,86.5z M304.7,123.4
		c-1.9,8.8-5.2,15.3-10.1,19.7c-3.9,3.5-7.5,4.9-10.8,4.3c-3.2-0.7-5.9-3.5-7.9-8.7c-1.6-4.1-2.4-8.3-2.4-12.1
		c0-3.3,0.3-6.7,0.9-9.7c1.2-5.5,3.5-10.8,7.1-15.9c4.4-6.5,9.1-9.2,13.9-8.3c3.2,0.7,5.9,3.5,7.9,8.7c1.6,4.1,2.4,8.3,2.4,12.1
		C305.7,117,305.3,120.3,304.7,123.4L304.7,123.4z"/>
	<path fill="#FFFFFF" d="M237.9,86.5c-4.8-8.4-12-13.5-21.3-15.5c-2.5-0.5-4.9-0.8-7.2-0.8c-12.8,0-23.2,6.7-31.3,20
		c-6.9,11.3-10.4,23.9-10.4,37.6c0,10.3,2.1,19.1,6.4,26.4c4.8,8.4,11.9,13.5,21.3,15.5c2.5,0.5,4.9,0.8,7.2,0.8
		c12.9,0,23.3-6.7,31.3-20c6.9-11.5,10.4-24,10.4-37.7C244.3,102.3,242.2,93.7,237.9,86.5L237.9,86.5z M221.1,123.4
		c-1.9,8.8-5.2,15.3-10.1,19.7c-3.9,3.5-7.5,4.9-10.8,4.3c-3.2-0.7-5.9-3.5-7.9-8.7c-1.6-4.1-2.4-8.3-2.4-12.1
		c0-3.3,0.3-6.7,0.9-9.7c1.2-5.5,3.5-10.8,7.1-15.9c4.4-6.5,9.1-9.2,13.9-8.3c3.2,0.7,5.9,3.5,7.9,8.7c1.6,4.1,2.4,8.3,2.4,12.1
		C222.1,117,221.8,120.3,221.1,123.4L221.1,123.4z"/>
	<g>
		<g>
			<path d="M378.5,85.3c-8.9,8.8-13.3,20-13.3,33.6c0,14.5,4.4,26.4,13.2,35.3s20.3,13.5,34.5,13.5c4.1,0,8.8-0.7,13.9-2.1v-21.6
				c-4.7,1.3-8.7,2-12.1,2c-7.1,0-12.7-2.4-16.9-7.1c-4.3-4.8-6.4-11.2-6.4-19.3c0-7.6,2.1-13.9,6.3-18.7c4.3-4.9,9.5-7.3,15.9-7.3
				c4.1,0,8.5,0.7,13.3,2V73.9c-4.4-1.2-9.3-1.7-14.5-1.7C398.6,72.1,387.4,76.5,378.5,85.3z M471,72.1c-12.3,0-21.9,4.1-28.8,12.3
				s-10.3,19.6-10.3,34.3c0,15.9,3.5,28,10.3,36.4s16.8,12.7,29.9,12.7c12.7,0,22.4-4.3,29.2-12.7s10.3-20.3,10.3-35.5
				s-3.5-26.9-10.4-35.2C494.1,76.2,484.1,72.1,471,72.1z M481.5,141.4c-2.4,3.7-6,5.6-10.5,5.6c-4.3,0-7.5-1.9-9.7-5.6
				c-2.3-3.7-3.3-11.2-3.3-22.5c0-17.5,4.4-26.1,13.3-26.1c9.3,0,14.1,8.8,14.1,26.5C485.3,130.2,483.9,137.7,481.5,141.4z
				 M577.4,74.6L572.6,95c-1.2,5.2-2.4,10.5-3.5,16l-2.7,14.1c-2.5-14.1-6-30.9-10.4-50.5h-30.9l-11.6,90.8h23.2l6.3-62.5l15.9,62.5
				h16.5l15.2-62.4l6.5,62.4h24.3l-12.3-90.8L577.4,74.6L577.4,74.6z M688.5,74.6L683.7,95c-1.2,5.2-2.4,10.5-3.5,16l-2.7,14.1
				c-2.5-14.1-6-30.9-10.4-50.5h-30.9l-11.6,90.8h23.2l6.3-62.5l15.9,62.5h16.5l15.1-62.4l6.5,62.4h24.3l-12.3-90.8H688.5z
				 M763.9,129.5h21.7v-18.8h-21.7V94.1H789V74.7h-49.6v90.8h49.7v-19.3h-25.2V129.5z M858.2,115.1c2.5-4.1,3.9-8.4,3.9-12.8
				c0-8.5-3.3-15.3-10-20.3c-6.7-4.9-15.9-7.5-27.3-7.5h-28.5v90.8h24.5v-41.3h0.4l19.9,41.3h25.9l-19.6-40.9
				C851.9,122.3,855.7,119.3,858.2,115.1z M820.6,113.7V92.1c5.9,0.1,10,1.1,12.5,2.9c2.5,1.9,3.7,4.8,3.7,9.1
				C836.9,110.3,831.4,113.5,820.6,113.7z M876.5,85.3c-8.9,8.8-13.3,20-13.3,33.6c0,14.5,4.4,26.4,13.2,35.3
				c8.8,8.9,20.3,13.5,34.5,13.5c4.1,0,8.8-0.7,13.9-2.1v-21.6c-4.7,1.3-8.7,2-12.1,2c-7.1,0-12.7-2.4-16.9-7.1
				c-4.3-4.8-6.4-11.2-6.4-19.3c0-7.6,2.1-13.9,6.3-18.7c4.3-4.9,9.5-7.3,15.9-7.3c4.1,0,8.5,0.7,13.3,2V73.9
				c-4.4-1.2-9.3-1.7-14.5-1.7C896.7,72.1,885.4,76.5,876.5,85.3z M956.1,145.9v-16.5h21.7v-18.8h-21.7V93.9h25.2V74.6h-49.6v90.8
				h49.7v-19.3h-25.3V145.9z"/>
		</g>
	</g>
</g>
</svg>
