<?xml version="1.0" encoding="utf-8"?>
<!-- Generator: Adobe Illustrator 18.0.0, SVG Export Plug-In . SVG Version: 6.00 Build 0)  -->
<!DOCTYPE svg PUBLIC "-//W3C//DTD SVG 1.1//EN" "http://www.w3.org/Graphics/SVG/1.1/DTD/svg11.dtd">
<svg version="1.1" xmlns="http://www.w3.org/2000/svg" xmlns:xlink="http://www.w3.org/1999/xlink" x="0px" y="0px"
	 viewBox="0 0 1000 270" enable-background="new 0 0 1000 270" xml:space="preserve">
<g id="Layer_1">
</g>
<g id="Layer_2">
	<g>
		<g>
			<path fill="#95BF47" d="M258.2,59.9c-0.2-1.2-1.2-1.8-2.1-1.9c-0.9-0.1-19-1.4-19-1.4s-12.6-12.5-14-13.9c-1.4-1.4-4.1-1-5.1-0.7
				c-0.2,0-2.8,0.8-7.1,2.2c-4.2-12.1-11.7-23.3-24.8-23.3c-0.4,0-0.7,0-1.1,0c-3.7-4.9-8.3-7.1-12.3-7.1
				c-30.5,0-45.1,38.1-49.6,57.5c-11.9,3.7-20.3,6.3-21.3,6.6c-6.6,2.1-6.8,2.3-7.7,8.5c-0.7,4.7-18,138.6-18,138.6l134.9,25.3
				l73.1-15.8C284,234.6,258.3,61.1,258.2,59.9z M203.4,46.5c-3.4,1-7.2,2.2-11.4,3.5c0-0.8,0-1.6,0-2.5c0-7.5-1-13.6-2.7-18.4
				C196,30,200.5,37.7,203.4,46.5z M180.9,30.6c1.9,4.7,3.1,11.4,3.1,20.5c0,0.5,0,0.9,0,1.3c-7.4,2.3-15.5,4.8-23.6,7.3
				C164.9,42.3,173.4,33.8,180.9,30.6z M171.8,22.1c1.3,0,2.6,0.4,3.9,1.3C166,28,155.5,39.6,151,62.7c-6.5,2-12.8,4-18.6,5.8
				C137.6,50.8,149.9,22.1,171.8,22.1z"/>
			<path fill="#5E8E3E" d="M256.1,58c-0.9-0.1-19-1.4-19-1.4s-12.6-12.5-14-13.9c-0.5-0.5-1.2-0.8-1.9-0.9l-10.2,208.6l73.1-15.8
				c0,0-25.7-173.5-25.8-174.7C258,58.7,257,58.1,256.1,58z"/>
			<path fill="#FFFFFF" d="M186.1,98.4l-9,26.8c0,0-7.9-4.2-17.6-4.2c-14.2,0-14.9,8.9-14.9,11.1c0,12.2,31.9,16.9,31.9,45.6
				c0,22.6-14.3,37.1-33.6,37.1c-23.2,0-35-14.4-35-14.4l6.2-20.5c0,0,12.2,10.4,22.4,10.4c6.7,0,9.4-5.3,9.4-9.1
				c0-16-26.2-16.7-26.2-42.9c0-22.1,15.9-43.5,47.9-43.5C180,94.9,186.1,98.4,186.1,98.4z"/>
		</g>
		<path id="s" d="M369.2,148.7c-7.3-4-11-7.3-11-11.9c0-5.8,5.2-9.6,13.3-9.6c9.5,0,17.9,4,17.9,4l6.7-20.4c0,0-6.1-4.8-24.2-4.8
			c-25.1,0-42.5,14.4-42.5,34.6c0,11.5,8.1,20.2,19,26.4c8.7,5,11.9,8.5,11.9,13.7c0,5.4-4.4,9.8-12.5,9.8
			c-12.1,0-23.5-6.2-23.5-6.2l-7.1,20.4c0,0,10.6,7.1,28.3,7.1c25.8,0,44.4-12.7,44.4-35.6C389.8,163.9,380.4,155.1,369.2,148.7z"/>
		<path id="h" d="M472.1,105.8c-12.7,0-22.7,6-30.4,15.2l-0.4-0.2l11-57.7h-28.7l-27.9,146.8h28.7l9.6-50.2
			c3.7-19,13.5-30.6,22.7-30.6c6.5,0,9,4.4,9,10.6c0,4-0.4,8.7-1.3,12.7l-10.8,57.5h28.7l11.2-59.4c1.2-6.2,2.1-13.7,2.1-18.7
			C495.6,115.5,487.1,105.8,472.1,105.8z"/>
		<path id="o" d="M560.6,105.8c-34.6,0-57.5,31.2-57.5,66c0,22.3,13.7,40.2,39.6,40.2c33.9,0,56.9-30.4,56.9-66
			C599.5,125.3,587.4,105.8,560.6,105.8z M546.4,189.9c-9.8,0-14-8.3-14-18.7c0-16.5,8.5-43.3,24.2-43.3c10.2,0,13.5,8.7,13.5,17.3
			C570.2,162.8,561.6,189.9,546.4,189.9z"/>
		<path id="p" d="M673,105.8c-19.4,0-30.4,17.1-30.4,17.1h-0.4l1.7-15.4h-25.4c-1.3,10.4-3.5,26.2-5.8,38.1l-20,105.2h28.7l7.9-42.5
			h0.6c0,0,5.9,3.7,16.9,3.7c33.7,0,55.8-34.6,55.8-69.6C702.6,123,694.1,105.8,673,105.8z M645.6,190.3c-7.5,0-11.9-4.2-11.9-4.2
			l4.8-26.9c3.3-17.9,12.7-29.8,22.7-29.8c8.7,0,11.5,8.1,11.5,15.8C672.6,163.9,661.6,190.3,645.6,190.3z"/>
		<path id="dot" d="M743.6,64.5c-9.2,0-16.5,7.3-16.5,16.7c0,8.5,5.4,14.4,13.5,14.4h0.4c9,0,16.7-6,16.9-16.7
			C758,70.6,752.4,64.5,743.6,64.5z"/>
		<polygon id="i" points="703.4,209.9 732.2,209.9 751.8,108 722.8,108 		"/>
		<path id="f" d="M824.9,107.8h-20l1-4.8c1.7-9.8,7.5-18.5,17.1-18.5c5.1,0,9.2,1.5,9.2,1.5l5.6-22.5c0,0-5-2.5-15.6-2.5
			c-10.2,0-20.4,2.9-28.1,9.6c-9.8,8.3-14.4,20.4-16.7,32.5l-0.8,4.8h-13.3l-4.2,21.7h13.3l-15.2,80.4h28.7l15.2-80.4h19.8
			L824.9,107.8z"/>
		<path id="y" d="M894,108c0,0-18,45.3-26,70h-0.4c-0.6-8-7.1-70-7.1-70h-30.2l17.3,93.5c0.4,2.1,0.2,3.3-0.6,4.8
			c-3.3,6.5-9,12.7-15.6,17.3c-5.4,4-11.5,6.5-16.2,8.1l7.9,24.4c5.8-1.3,17.9-6,28.1-15.6c13.1-12.3,25.2-31.2,37.7-57.1L924,108
			H894z"/>
	</g>
</g>
</svg>
