<?xml version="1.0" encoding="UTF-8" standalone="no"?>
<!-- Generator: Adobe Illustrator 16.0.3, SVG Export Plug-In . SVG Version: 6.00 Build 0)  -->

<svg
   xmlns:dc="http://purl.org/dc/elements/1.1/"
   xmlns:cc="http://creativecommons.org/ns#"
   xmlns:rdf="http://www.w3.org/1999/02/22-rdf-syntax-ns#"
   xmlns:svg="http://www.w3.org/2000/svg"
   xmlns="http://www.w3.org/2000/svg"
   xmlns:sodipodi="http://sodipodi.sourceforge.net/DTD/sodipodi-0.dtd"
   xmlns:inkscape="http://www.inkscape.org/namespaces/inkscape"
   version="1.1"
   id="Layer_1"
   x="0px"
   y="0px"
   width="1000"
   height="1000"
   viewBox="0 0 999.99999 1000"
   enable-background="new 0 0 103.179 20.059"
   xml:space="preserve"
   inkscape:version="0.48.4 r9939"
   sodipodi:docname="logo_opencart.svg"><metadata
   id="metadata14"><rdf:RDF><cc:Work
       rdf:about=""><dc:format>image/svg+xml</dc:format><dc:type
         rdf:resource="http://purl.org/dc/dcmitype/StillImage" /></cc:Work></rdf:RDF></metadata><defs
   id="defs12" /><sodipodi:namedview
   pagecolor="#ffffff"
   bordercolor="#666666"
   borderopacity="1"
   objecttolerance="10"
   gridtolerance="10"
   guidetolerance="10"
   inkscape:pageopacity="0"
   inkscape:pageshadow="2"
   inkscape:window-width="1366"
   inkscape:window-height="716"
   id="namedview10"
   showgrid="false"
   inkscape:zoom="0.36664644"
   inkscape:cx="695.00647"
   inkscape:cy="641.71752"
   inkscape:window-x="-8"
   inkscape:window-y="-8"
   inkscape:window-maximized="1"
   inkscape:current-layer="Layer_1" />
<linearGradient
   id="SVGID_1_"
   gradientUnits="userSpaceOnUse"
   x1="0"
   y1="10.0293"
   x2="10.2251"
   y2="10.0293"
   gradientTransform="matrix(8.7226315,0,0,8.7226315,49.999995,412.51201)">
	<stop
   offset="0"
   style="stop-color:#39B9EC"
   id="stop4" />
	<stop
   offset="1"
   style="stop-color:#52C3EE"
   id="stop6" />
</linearGradient>
<path
   clip-rule="evenodd"
   d="m 112.69827,503.72457 c 0,-6.0884 -1.45668,-11.22603 -4.37876,-15.38672 -3.26226,-4.72767 -7.83292,-7.07406 -13.694532,-7.07406 -5.870331,0 -10.44099,2.34639 -13.703254,7.07406 -2.94825,4.15197 -4.404929,9.29832 -4.404929,15.38672 0,6.05351 1.456679,11.26092 4.404929,15.54373 3.262264,4.72767 7.832923,7.07405 13.703254,7.07405 5.861612,0 10.432272,-2.34638 13.694532,-7.07405 2.92208,-4.29154 4.37876,-9.49022 4.37876,-15.54373 l 0,0 z m 771.83077,34.21888 c 0,7.61486 -6.17562,13.79048 -13.7992,13.79048 -7.6323,0 -13.81665,-6.17562 -13.81665,-13.79048 0,-7.64102 6.18435,-13.82537 13.81665,-13.82537 7.62358,-0.009 13.7992,6.17563 13.7992,13.82537 l 0,0 z m -62.91634,0 c 0,7.61486 -6.18434,13.79048 -13.7992,13.79048 -7.64103,0 -13.82537,-6.17562 -13.82537,-13.79048 0,-7.64102 6.18434,-13.82537 13.82537,-13.82537 7.61486,-0.009 13.7992,6.17563 13.7992,13.82537 l 0,0 z M 756.59421,412.51201 c 24.80716,26.09812 47.99191,30.00586 139.35276,30.00586 91.34339,0 51.1844,20.33245 -5.23358,70.6882 17.89011,-31.1049 79.34978,-58.63353 -21.40534,-57.0809 -96.56825,1.45668 -102.27285,-27.93859 -112.71384,-43.61316 l 0,0 z m -325.24076,13.61603 h -3.64606 v 6.65537 h 3.64606 c 2.05854,0 3.48905,-0.25296 4.28281,-0.75887 0.79376,-0.51464 1.16883,-1.39562 1.16883,-2.69529 0,-1.10778 -0.44485,-1.90154 -1.32584,-2.40745 -0.89843,-0.54953 -2.25044,-0.79376 -4.1258,-0.79376 l 0,0 z m 0.47102,-1.75325 0,0 c 2.56445,0 4.46599,0.40997 5.66971,1.23862 1.20372,0.79375 1.80558,2.05854 1.80558,3.80306 0,1.27351 -0.37507,2.35511 -1.16883,3.20993 -0.79376,0.86354 -1.86664,1.40434 -3.17504,1.51774 l 4.07347,8.59179 h -2.79124 l -3.93391,-8.208 h -4.59682 v 8.208 h -2.5034 v -18.36114 h 6.62048 l 0,0 z m 13.72942,9.45533 c 0,1.92771 -0.3489,3.74201 -1.04671,5.41676 -0.69781,1.68347 -1.74453,3.20993 -3.07909,4.53577 -1.39562,1.36945 -2.94825,2.40744 -4.69278,3.14014 -1.77942,0.72398 -3.585,1.10778 -5.45164,1.10778 -1.86665,0 -3.68095,-0.3838 -5.39059,-1.10778 -1.74453,-0.7327 -3.27099,-1.74452 -4.63172,-3.10525 -1.36073,-1.36073 -2.40744,-2.88719 -3.10525,-4.59683 -0.72398,-1.71836 -1.08161,-3.52394 -1.08161,-5.39059 0,-1.86664 0.3489,-3.64606 1.08161,-5.3993 0.7327,-1.74453 1.77941,-3.33205 3.14014,-4.71895 1.33457,-1.29967 2.8523,-2.32022 4.56194,-3.01803 1.68347,-0.72398 3.48905,-1.08161 5.42548,-1.08161 1.93642,0 3.7769,0.3838 5.48653,1.08161 1.74453,0.70653 3.29716,1.74453 4.66661,3.10526 1.32584,1.33456 2.34639,2.86102 3.0442,4.59682 0.7327,1.71836 1.07288,3.53267 1.07288,5.4342 l 0,0 0,0 z m -14.27022,-15.86646 0,0 c 2.16321,0 4.18686,0.41868 6.12328,1.20372 1.93643,0.79376 3.64606,1.97132 5.13763,3.45416 1.49157,1.48285 2.59935,3.17504 3.39311,5.10274 0.79376,1.90154 1.16883,3.96008 1.16883,6.0884 0,2.15449 -0.37507,4.17814 -1.16883,6.05351 -0.75887,1.87536 -1.90154,3.55011 -3.39311,5.04168 -1.55262,1.52646 -3.29715,2.69529 -5.23358,3.51522 -1.93642,0.82865 -3.9339,1.21244 -6.02733,1.21244 -2.09344,0 -4.09092,-0.37507 -5.99245,-1.21244 -1.91026,-0.79376 -3.61989,-1.9626 -5.13763,-3.48906 -1.49157,-1.48284 -2.6604,-3.2012 -3.45416,-5.09401 -0.78504,-1.91026 -1.16884,-3.93391 -1.16884,-6.02734 0,-2.09343 0.3838,-4.12581 1.20373,-6.06223 0.79376,-1.93642 1.97131,-3.68095 3.48905,-5.19869 1.44796,-1.47412 3.10526,-2.61679 5.00679,-3.41055 1.90153,-0.75887 3.89902,-1.17755 6.05351,-1.17755 l 0,0 z m 305.71951,52.49279 c 0,5.8965 -2.32022,9.61234 -6.90833,11.19986 -2.25916,0.79376 -6.98683,1.20373 -14.183,1.20373 v 53.56568 c 0,3.87284 -1.2735,7.13511 -3.74201,9.86529 -2.51211,2.70402 -5.67843,4.06475 -9.51639,4.06475 -3.74201,0 -6.91704,-1.36073 -9.45533,-4.06475 -2.52956,-2.73018 -3.80307,-5.99245 -3.80307,-9.86529 v -53.57441 c -5.46036,0 -9.42044,-0.69781 -11.92383,-2.04982 -3.428,-1.91025 -5.11147,-5.36441 -5.11147,-10.34504 0,-4.9719 1.74453,-8.365 5.26847,-10.17931 2.37256,-1.33456 6.31519,-2.02365 11.77556,-2.02365 v -5.33825 -6.02734 c 0,-13.34562 4.40493,-20.00971 13.2584,-20.00971 8.81858,0 13.2584,6.66409 13.2584,20.00971 v 6.02734 5.32953 c 7.19617,0 11.92383,0.40996 14.18299,1.20372 4.57939,1.58752 6.89961,5.26847 6.89961,11.00796 l 0,0 z m -69.17047,-1.21244 c 0,5.67843 -2.75635,9.57745 -8.27778,11.69705 -5.10274,1.71836 -10.17931,3.46288 -15.24716,5.26847 -5.55631,3.17503 -8.31267,9.08026 -8.31267,17.63716 v 32.56158 c 0,3.87285 -1.2735,7.13511 -3.742,9.8653 -2.51212,2.70401 -5.67844,4.06474 -9.5164,4.06474 -3.86412,0 -7.04788,-1.36073 -9.51639,-4.06474 -2.50339,-2.73019 -3.74201,-5.99245 -3.74201,-9.8653 v -65.41974 c 0,-3.83795 1.23862,-7.10022 3.70712,-9.73445 2.5034,-2.66913 5.67844,-3.99497 9.51639,-3.99497 6.35008,0 10.74629,2.81741 13.23224,8.43479 5.66971,-6.78621 11.76683,-10.17931 18.33497,-10.17931 3.74201,0 6.94321,1.36073 9.61234,4.05602 2.62551,2.73018 3.95135,5.96628 3.95135,9.6734 l 0,0 z m -94.16081,34.48056 c 0,-6.0884 -1.45668,-11.22603 -4.37004,-15.38672 -3.40182,-4.72767 -7.96376,-7.07406 -13.69453,-7.07406 -5.87033,0 -10.43226,2.34639 -13.70325,7.07406 -2.94825,4.16069 -4.40493,9.29832 -4.40493,15.38672 0,6.05351 1.42179,11.26092 4.2392,15.54373 3.36693,4.72767 7.99865,7.07405 13.86898,7.07405 5.86161,0 10.42355,-2.34638 13.69453,-7.07405 2.91336,-4.29154 4.37004,-9.49022 4.37004,-15.54373 l 0,0 z m 26.5168,32.69242 0,0 c 0,3.87285 -1.23861,7.13512 -3.71584,9.8653 -2.50339,2.70401 -5.66971,4.06475 -9.51639,4.06475 -5.77438,0 -9.89146,-2.82614 -12.36869,-8.43479 -5.5476,6.78621 -13.12756,10.17931 -22.73118,10.17931 -12.29891,0 -22.38227,-5.17252 -30.19775,-15.44778 -7.10022,-9.38555 -10.68522,-20.35862 -10.68522,-32.91921 0,-12.55187 3.57628,-23.52494 10.68522,-32.94538 7.9376,-10.18803 17.99479,-15.25588 30.19775,-15.25588 9.61234,0 17.19231,3.3931 22.73118,10.17931 2.47723,-5.61738 6.59431,-8.43479 12.36869,-8.43479 3.75073,0 6.88216,1.36074 9.42916,4.05603 2.52957,2.73018 3.80307,5.93139 3.80307,9.6734 v 65.41973 l 0,0 z m -96.37635,-2.81741 c 0,5.99245 -3.8903,10.74628 -11.69705,14.23534 -6.21052,2.82613 -12.77866,4.24792 -19.6957,4.24792 -13.35435,0 -24.19658,-4.82362 -32.57031,-14.42723 -8.0161,-9.16749 -12.04595,-20.48946 -12.04595,-33.93976 0,-13.47647 4.09091,-24.8595 12.30763,-34.184 8.208,-9.35066 18.963,-14.01726 32.31735,-14.01726 7.71081,0 14.34,1.13394 19.85271,3.3931 7.70208,3.0442 11.54004,7.79803 11.54004,14.27022 0,3.26227 -1.01183,6.14946 -3.0442,8.65286 -2.02365,2.47722 -4.62299,3.742 -7.79803,3.742 -2.16321,0 -5.26847,-0.72397 -9.32449,-2.15449 -4.05603,-1.4654 -7.29212,-2.16321 -9.66468,-2.16321 -6.31519,0 -11.23475,2.25044 -14.74997,6.75132 -3.27099,4.06474 -4.91956,9.26343 -4.91956,15.70073 0,6.05351 1.45668,11.19986 4.41365,15.35184 3.26226,4.8585 7.85909,7.26595 13.72942,7.26595 2.59934,0 6.14945,-0.75887 10.68522,-2.32022 4.54449,-1.51774 7.80676,-2.3115 9.83041,-2.3115 2.94825,0 5.48653,1.27351 7.64102,3.74201 2.1196,2.51212 3.19249,5.20741 3.19249,8.16438 l 0,0 z m -83.17902,2.81741 c 0,3.87285 -1.23861,7.13512 -3.70712,9.8653 -2.50339,2.70401 -5.64354,4.06475 -9.4815,4.06475 -9.26343,0 -13.88642,-7.35318 -13.88642,-22.04209 0,-2.82614 0.19189,-7.26596 0.56697,-13.38052 0.40996,-6.0884 0.60186,-10.56311 0.60186,-13.38924 0,-15.5699 -5.04168,-23.36793 -15.09015,-23.36793 -10.0572,0 -15.06399,7.79803 -15.06399,23.36793 0,2.82613 0.15701,7.29212 0.44486,13.38924 0.31401,6.12329 0.47102,10.55438 0.47102,13.38052 0,14.68891 -4.56194,22.04209 -13.69453,22.04209 -3.83796,0 -6.97811,-1.36074 -9.44661,-4.06475 -2.51212,-2.73018 -3.74201,-5.99245 -3.74201,-9.8653 v -65.41973 c 0,-3.83796 1.23861,-7.10023 3.74201,-9.73446 2.47722,-2.66913 5.64354,-3.99497 9.4815,-3.99497 6.34135,0 10.74628,2.81741 13.22351,8.43479 4.28281,-6.78621 11.85405,-10.17931 22.70501,-10.17931 10.05719,0 18.04712,2.6604 23.91745,7.95504 5.99245,5.67843 8.97559,13.47646 8.97559,23.41154 v 49.5271 l -0.0174,0 z M 305.0323,494.20818 c -0.12212,-4.05602 -1.99748,-7.73697 -5.60865,-11.06902 -3.6199,-3.32332 -7.44913,-4.9719 -11.51388,-4.9719 -4.18686,0 -8.08588,1.64858 -11.70577,4.9719 -3.61989,3.33205 -5.42548,7.013 -5.42548,11.06902 h 34.25378 l 0,0 z m 26.5168,6.66409 0,0 c 0,4.4311 -1.04672,7.47529 -3.14015,9.19365 -2.09343,1.67475 -5.35569,2.53829 -9.76935,2.53829 h -47.86108 c 0,5.07657 2.38128,8.97559 7.13512,11.69705 3.83796,2.13704 8.53073,3.20993 14.07832,3.20993 4.31771,0 9.4815,-1.43052 15.54373,-4.24793 6.05351,-2.8523 9.95253,-4.25664 11.63599,-4.25664 3.07909,0 5.66971,1.1165 7.83293,3.40183 2.1196,2.25044 3.2012,4.98062 3.2012,8.12077 0,7.25723 -5.42547,12.90949 -16.2677,16.96551 -8.27778,3.0442 -16.6864,4.59683 -25.27819,4.59683 -13.82537,0 -24.99034,-4.59683 -33.52107,-13.76431 -8.53074,-9.16749 -12.81355,-20.68136 -12.81355,-34.60268 0,-13.2584 4.43982,-24.57165 13.31946,-34.02699 8.84475,-9.45533 19.85271,-14.17427 32.98027,-14.17427 12.21168,0 22.41716,4.46599 30.59899,13.41541 8.18183,8.94942 12.32508,19.59103 12.32508,31.93355 l 0,0 z m -122.98038,2.8523 c 0,-6.0884 -1.49157,-11.22603 -4.40493,-15.38672 -3.27099,-4.72767 -7.83292,-7.07406 -13.70326,-7.07406 -5.87033,0 -10.43226,2.34639 -13.69453,7.07406 -2.92208,4.16069 -4.37876,9.29832 -4.37876,15.38672 0,6.05351 1.45668,11.26092 4.37876,15.54373 3.26227,4.72767 7.83293,7.07405 13.69453,7.07405 5.86161,0 10.43227,-2.34638 13.70326,-7.07405 2.91336,-4.29154 4.40493,-9.49022 4.40493,-15.54373 l 0,0 z m 26.50807,0 0,0 c 0,12.56059 -3.61989,23.53366 -10.88584,32.91921 -7.77186,10.27526 -17.78545,15.44778 -29.97096,15.44778 -8.59179,0 -15.88391,-2.50339 -21.85019,-7.44913 0,1.14267 0.13084,3.89902 0.38379,8.31267 0.25296,4.43982 0.37508,8.05099 0.37508,10.90329 0,15.7618 -4.69278,23.62961 -14.07833,23.62961 -3.83796,0 -6.97811,-1.36073 -9.48151,-4.06475 -2.4685,-2.72146 -3.70711,-5.99244 -3.70711,-9.85657 V 471.02342 c 0,-3.742 1.2735,-6.9781 3.80306,-9.70828 2.54702,-2.6953 5.67844,-4.05603 9.42045,-4.05603 5.64354,0 9.76935,2.81741 12.36869,8.43479 5.55632,-6.78621 13.12756,-10.17931 22.7399,-10.17931 12.21168,0 22.1991,5.06784 29.99713,15.25588 7.23978,9.42044 10.88584,20.39351 10.88584,32.9541 l 0,0 z m -95.86172,0 0,0 c 0,13.4503 -3.99497,24.76355 -12.01979,33.93976 -8.365,9.60362 -19.25084,14.42723 -32.56158,14.42723 -13.354349,0 -24.196579,-4.82361 -32.570306,-14.42723 -8.033543,-9.17621 -12.063399,-20.49818 -12.063399,-33.93976 0,-13.47647 4.029856,-24.79844 12.054677,-33.93104 8.469675,-9.51639 19.346796,-14.27022 32.570306,-14.27022 13.319462,0 24.196582,4.75383 32.561582,14.27022 8.03354,9.12388 12.02851,20.45457 12.02851,33.93104 z"
   id="path8"
   inkscape:connector-curvature="0"
   style="fill:url(#SVGID_1_);fill-rule:evenodd" />
</svg>