<?xml version="1.0" encoding="UTF-8" standalone="no"?>
<!-- Generator: Adobe Illustrator 16.0.3, SVG Export Plug-In . SVG Version: 6.00 Build 0)  -->

<svg
   xmlns:dc="http://purl.org/dc/elements/1.1/"
   xmlns:cc="http://creativecommons.org/ns#"
   xmlns:rdf="http://www.w3.org/1999/02/22-rdf-syntax-ns#"
   xmlns:svg="http://www.w3.org/2000/svg"
   xmlns="http://www.w3.org/2000/svg"
   xmlns:sodipodi="http://sodipodi.sourceforge.net/DTD/sodipodi-0.dtd"
   xmlns:inkscape="http://www.inkscape.org/namespaces/inkscape"
   version="1.1"
   id="Layer_1"
   x="0px"
   y="0px"
   width="1000"
   height="1000"
   viewBox="0 0 1000 999.99997"
   enable-background="new 0 0 58.96 56.858"
   xml:space="preserve"
   inkscape:version="0.48.4 r9939"
   sodipodi:docname="logo_prestashop.svg"><metadata
   id="metadata35"><rdf:RDF><cc:Work
       rdf:about=""><dc:format>image/svg+xml</dc:format><dc:type
         rdf:resource="http://purl.org/dc/dcmitype/StillImage" /></cc:Work></rdf:RDF></metadata><defs
   id="defs33" /><sodipodi:namedview
   pagecolor="#ffffff"
   bordercolor="#666666"
   borderopacity="1"
   objecttolerance="10"
   gridtolerance="10"
   guidetolerance="10"
   inkscape:pageopacity="0"
   inkscape:pageshadow="2"
   inkscape:window-width="1366"
   inkscape:window-height="716"
   id="namedview31"
   showgrid="false"
   inkscape:zoom="0.36687273"
   inkscape:cx="215.05456"
   inkscape:cy="584.80319"
   inkscape:window-x="-8"
   inkscape:window-y="-8"
   inkscape:window-maximized="1"
   inkscape:current-layer="Layer_1" />
<g
   id="g3"
   transform="matrix(11.820708,0,0,11.820708,151.53145,163.22718)">
	<path
   clip-rule="evenodd"
   d="m 12.124,7.888 5.251,-0.517 c 0,0 0.078,-6.504 6.146,-7.282 7.348,-0.942 7.927,5.833 7.927,5.833 l 6.344,-0.645 2.917,26.715 -2.95,0.301 c -0.044,-1.239 -0.245,-2.561 -0.771,-3.631 -1.417,-2.879 -3.42,-1.237 -3.42,-1.237 -1.575,-1.868 -3.217,-0.315 -3.217,-0.315 -1.485,-1.507 -2.97,-0.157 -2.97,-0.157 l -0.698,-4.117 c -0.269,-1.845 -2.159,-1.575 -2.159,-1.575 -2.311,0.479 -1.722,3.023 -1.722,3.023 l 1.002,7.011 -1.328,-1.103 c 0,0 -1.417,-0.99 -2.813,0.18 -1.395,1.17 -0.562,2.115 -0.562,2.115 0.546,0.442 1.113,0.965 1.682,1.535 l -5.912,0.603 -2.747,-26.737 0,0 z M 17.803,7.197 19.029,7.061 C 18.825,3.486 21.651,0.933 21.651,0.933 18.246,2.158 17.803,7.197 17.803,7.197 l 0,0 z m 1.601,-0.204 9.942,-0.919 c 0,-0.749 -1.94,-5.891 -5.72,-5.448 -3.914,0.457 -4.222,6.367 -4.222,6.367 l 0,0 z m 10.521,-1.09 1.056,-0.102 c 0,0 -1.056,-5.482 -5.686,-5.516 -0.001,0 3.268,0.783 4.63,5.618 z"
   id="path5"
   inkscape:connector-curvature="0"
   style="fill:#70be44;fill-rule:evenodd" />
	<path
   clip-rule="evenodd"
   d="M 24.178,32.967 21.895,31.03 c 0,0 -1.072,-0.657 -1.902,0.484 l -0.104,0.242 c 0,0 2.705,2.624 4.957,5.281 1.945,2.296 3.481,4.678 3.481,4.678 l 7.711,-1.106 c 0,0 -0.069,-2.386 0.519,-5.083 0.228,-1.044 0.274,-2.28 0.183,-3.424 -0.144,-1.813 -0.702,-3.605 -1.358,-3.838 -1.072,-0.38 -1.383,0.069 -1.21,0.934 l 0.069,1.038 h -0.969 c 0,0 -0.069,-2.732 -1.452,-2.697 -1.383,0.035 -0.899,2.42 -0.899,2.42 h -0.865 c 0,0 0.139,-2.559 -1.279,-2.559 -1.418,0 -1.107,2.94 -1.107,2.94 h -0.83 l -1.163,-7.306 c 0,0 -0.068,-0.823 -1.029,-0.72 -0.96,0.103 -0.857,1.577 -0.857,1.577 l 1.612,10.802 -1.131,-0.035 -0.094,-1.691 z"
   id="path7"
   inkscape:connector-curvature="0"
   style="fill:#c75788;fill-rule:evenodd" />
	<g
   id="g9">
		<path
   clip-rule="evenodd"
   d="m 0,46.681 c 0.475,-0.122 1.027,-0.199 1.701,-0.199 0.95,0 1.762,0.23 2.299,0.751 0.491,0.49 0.751,1.241 0.751,2.146 0,0.95 -0.23,1.594 -0.628,2.115 -0.551,0.766 -1.517,1.149 -2.437,1.149 -0.199,0 -0.352,0 -0.521,-0.015 v 4.229 H 0 V 46.681 l 0,0 z m 1.165,4.966 0,0 c 0.138,0.016 0.276,0.031 0.475,0.031 1.149,0 1.932,-0.751 1.932,-2.222 0,-1.058 -0.43,-2.008 -1.748,-2.008 -0.276,0 -0.506,0.031 -0.659,0.077 v 4.122 z"
   id="path11"
   inkscape:connector-curvature="0"
   style="fill:#828488;fill-rule:evenodd" />
		<path
   clip-rule="evenodd"
   d="m 6.115,46.681 c 0.491,-0.138 1.104,-0.199 1.686,-0.199 1.027,0 1.793,0.215 2.33,0.736 0.506,0.521 0.72,1.21 0.72,2.023 0,1.318 -0.613,2.176 -1.655,2.667 v 0.031 c 0.767,0.229 1.165,0.965 1.379,2.314 0.245,1.41 0.445,2.283 0.598,2.605 H 9.977 C 9.824,56.552 9.624,55.571 9.425,54.314 9.195,52.889 8.751,52.368 7.739,52.368 H 7.28 v 4.49 H 6.115 V 46.681 l 0,0 z m 1.165,4.767 0,0 h 0.506 c 1.119,0 1.87,-0.827 1.87,-2.069 0,-1.195 -0.49,-1.931 -1.747,-1.946 -0.245,0 -0.475,0.015 -0.628,0.061 v 3.954 z"
   id="path13"
   inkscape:connector-curvature="0"
   style="fill:#828488;fill-rule:evenodd" />
		<polygon
   clip-rule="evenodd"
   points="13.548,50.958 16.138,50.958 16.138,51.954 13.548,51.954 13.548,55.832 16.491,55.832 16.491,56.858 12.368,56.858 12.368,46.528 16.307,46.528 16.307,47.555 13.548,47.555 "
   id="polygon15"
   style="fill:#828488;fill-rule:evenodd" />
		<path
   clip-rule="evenodd"
   d="m 17.563,55.494 c 0.337,0.23 0.966,0.414 1.471,0.414 1.088,0 1.732,-0.705 1.732,-1.747 0,-0.95 -0.552,-1.532 -1.364,-2.146 -0.828,-0.567 -1.947,-1.533 -1.947,-2.866 0,-1.563 1.088,-2.713 2.729,-2.713 0.644,0 1.195,0.199 1.44,0.383 l -0.276,1.011 c -0.261,-0.184 -0.69,-0.352 -1.226,-0.352 -1.027,0 -1.502,0.766 -1.502,1.471 0,1.027 0.537,1.425 1.517,2.13 1.242,0.874 1.793,1.824 1.793,2.973 0,1.778 -1.242,2.897 -2.897,2.897 -0.705,0 -1.44,-0.23 -1.732,-0.444 l 0.262,-1.011 z"
   id="path17"
   inkscape:connector-curvature="0"
   style="fill:#828488;fill-rule:evenodd" />
		<polygon
   clip-rule="evenodd"
   points="22.652,46.528 27.602,46.528 27.602,47.585 25.717,47.585 25.717,56.858 24.537,56.858 24.537,47.585 22.652,47.585 "
   id="polygon19"
   style="fill:#828488;fill-rule:evenodd" />
		<path
   clip-rule="evenodd"
   d="m 29.303,53.762 -0.674,3.096 H 27.48 l 2.36,-10.33 h 1.303 l 2.299,10.33 h -1.165 l -0.674,-3.096 h -2.3 l 0,0 z m 2.131,-0.95 0,0 -0.536,-2.621 C 30.745,49.455 30.606,48.597 30.484,47.83 h -0.046 c -0.123,0.782 -0.276,1.671 -0.429,2.361 l -0.536,2.621 h 1.961 z"
   id="path21"
   inkscape:connector-curvature="0"
   style="fill:#828488;fill-rule:evenodd" />
		<path
   clip-rule="evenodd"
   d="m 34.499,55.494 c 0.337,0.23 0.965,0.414 1.471,0.414 1.088,0 1.732,-0.705 1.732,-1.747 0,-0.95 -0.552,-1.532 -1.364,-2.146 -0.828,-0.567 -1.946,-1.533 -1.946,-2.866 0,-1.563 1.088,-2.713 2.728,-2.713 0.644,0 1.195,0.199 1.44,0.383 l -0.276,1.011 c -0.26,-0.184 -0.689,-0.352 -1.226,-0.352 -1.027,0 -1.502,0.766 -1.502,1.471 0,1.027 0.537,1.425 1.518,2.13 1.241,0.874 1.793,1.824 1.793,2.973 0,1.778 -1.241,2.897 -2.896,2.897 -0.705,0 -1.44,-0.23 -1.732,-0.444 l 0.26,-1.011 z"
   id="path23"
   inkscape:connector-curvature="0"
   style="fill:#70be44;fill-rule:evenodd" />
		<polygon
   clip-rule="evenodd"
   points="40.262,56.858 40.262,46.528 41.441,46.528 41.441,50.958 44.338,50.958 44.338,46.528 45.519,46.528 45.519,56.858 44.338,56.858 44.338,52.03 41.441,52.03 41.441,56.858 "
   id="polygon25"
   style="fill:#70be44;fill-rule:evenodd" />
		<path
   clip-rule="evenodd"
   d="m 52.783,51.617 c 0,3.877 -1.318,5.364 -2.989,5.364 -1.717,0 -2.866,-1.824 -2.866,-5.303 0,-3.417 1.242,-5.272 3.035,-5.272 1.763,0 2.82,1.915 2.82,5.211 l 0,0 z m -4.628,0.076 0,0 c 0,2.13 0.414,4.245 1.732,4.245 1.318,0 1.67,-2.253 1.67,-4.276 0,-1.931 -0.353,-4.215 -1.686,-4.215 -1.303,10e-4 -1.716,2.146 -1.716,4.246 z"
   id="path27"
   inkscape:connector-curvature="0"
   style="fill:#70be44;fill-rule:evenodd" />
		<path
   clip-rule="evenodd"
   d="m 54.208,46.681 c 0.475,-0.122 1.027,-0.199 1.701,-0.199 0.95,0 1.763,0.23 2.299,0.751 0.49,0.49 0.751,1.241 0.751,2.146 0,0.95 -0.23,1.594 -0.629,2.115 -0.551,0.766 -1.517,1.149 -2.437,1.149 -0.2,0 -0.353,0 -0.521,-0.015 v 4.229 H 54.207 V 46.681 l 10e-4,0 z m 1.165,4.966 0,0 c 0.138,0.016 0.276,0.031 0.476,0.031 1.149,0 1.931,-0.751 1.931,-2.222 0,-1.058 -0.429,-2.008 -1.748,-2.008 -0.276,0 -0.506,0.031 -0.659,0.077 v 4.122 z"
   id="path29"
   inkscape:connector-curvature="0"
   style="fill:#70be44;fill-rule:evenodd" />
	</g>
</g>
</svg>