<?xml version="1.0" encoding="UTF-8" standalone="no"?>
<!-- Generator: Adobe Illustrator 18.0.0, SVG Export Plug-In . SVG Version: 6.00 Build 0)  -->

<svg
   xmlns:dc="http://purl.org/dc/elements/1.1/"
   xmlns:cc="http://creativecommons.org/ns#"
   xmlns:rdf="http://www.w3.org/1999/02/22-rdf-syntax-ns#"
   xmlns:svg="http://www.w3.org/2000/svg"
   xmlns="http://www.w3.org/2000/svg"
   xmlns:sodipodi="http://sodipodi.sourceforge.net/DTD/sodipodi-0.dtd"
   xmlns:inkscape="http://www.inkscape.org/namespaces/inkscape"
   version="1.1"
   id="Capa_1"
   x="0px"
   y="0px"
   viewBox="0 0 469.027 469.027"
   style="enable-background:new 0 0 469.027 469.027;"
   xml:space="preserve"
   inkscape:version="0.48.4 r9939"
   width="100%"
   height="100%"
   sodipodi:docname="sms.svg"><metadata
   id="metadata43"><rdf:RDF><cc:Work
       rdf:about=""><dc:format>image/svg+xml</dc:format><dc:type
         rdf:resource="http://purl.org/dc/dcmitype/StillImage" /></cc:Work></rdf:RDF></metadata><defs
   id="defs41" /><sodipodi:namedview
   pagecolor="#ffffff"
   bordercolor="#666666"
   borderopacity="1"
   objecttolerance="10"
   gridtolerance="10"
   guidetolerance="10"
   inkscape:pageopacity="0"
   inkscape:pageshadow="2"
   inkscape:window-width="1366"
   inkscape:window-height="716"
   id="namedview39"
   showgrid="false"
   inkscape:zoom="1.0063387"
   inkscape:cx="106.94154"
   inkscape:cy="221.57029"
   inkscape:window-x="1272"
   inkscape:window-y="248"
   inkscape:window-maximized="1"
   inkscape:current-layer="Capa_1" />
<g
   id="g3"
   transform="translate(-20.000004,0)">
	<path
   d="m 287.429,374.485 -206.594001,0 0,-291.014 120.096001,0 0,-31.798 -135.995001,0 c -8.787,0 -15.899,7.112 -15.899,15.899 l 0,385.556 c 0,8.787 7.111,15.899 15.899,15.899 l 238.392001,0 c 8.787,0 15.898,-7.112 15.898,-15.899 l 0,-239.094 -31.798,18.229 0,142.222 z m -103.297,20.357 c 13.525,0 24.501,10.977 24.501,24.516 0,13.524 -10.977,24.501 -24.501,24.501 -13.54,0 -24.517,-10.977 -24.517,-24.501 0,-13.54 10.977,-24.516 24.517,-24.516 z"
   id="path5"
   inkscape:connector-curvature="0"
   sodipodi:nodetypes="cccccssssssccccsssss" />
	<path
   d="M 434.217,0 H 250.552 C 236.315,0 224.78,11.553 224.78,25.791 v 116.853 c 0,14.253 11.535,25.79 25.772,25.79 h 27.653 l -20.386,40.912 c -1.46,2.297 -1.118,5.278 0.822,7.174 1.103,1.086 2.547,1.629 4.007,1.629 1.087,0 2.205,-0.326 3.183,-0.978 l 84.961,-48.737 h 83.425 c 14.237,0 25.773,-11.537 25.773,-25.79 V 25.791 C 459.99,11.553 448.454,0 434.217,0 z M 290.968,103.516 c -10.651,0 -19.282,-8.648 -19.282,-19.283 0,-10.652 8.631,-19.283 19.282,-19.283 10.636,0 19.284,8.631 19.284,19.283 0,10.634 -8.649,19.283 -19.284,19.283 z m 51.408,0 c -10.651,0 -19.284,-8.648 -19.284,-19.283 0,-10.652 8.633,-19.283 19.284,-19.283 10.653,0 19.284,8.631 19.284,19.283 0,10.634 -8.631,19.283 -19.284,19.283 z m 51.425,0 c -10.635,0 -19.284,-8.648 -19.284,-19.283 0,-10.652 8.649,-19.283 19.284,-19.283 10.65,0 19.284,8.631 19.284,19.283 0,10.634 -8.634,19.283 -19.284,19.283 z"
   id="path7"
   inkscape:connector-curvature="0" />
</g>
<g
   id="g9">
</g>
<g
   id="g11">
</g>
<g
   id="g13">
</g>
<g
   id="g15">
</g>
<g
   id="g17">
</g>
<g
   id="g19">
</g>
<g
   id="g21">
</g>
<g
   id="g23">
</g>
<g
   id="g25">
</g>
<g
   id="g27">
</g>
<g
   id="g29">
</g>
<g
   id="g31">
</g>
<g
   id="g33">
</g>
<g
   id="g35">
</g>
<g
   id="g37">
</g>
</svg>