<?xml version="1.0" encoding="utf-8"?>
<!-- Generator: Adobe Illustrator 16.0.3, SVG Export Plug-In . SVG Version: 6.00 Build 0)  -->
<!DOCTYPE svg PUBLIC "-//W3C//DTD SVG 1.1//EN" "http://www.w3.org/Graphics/SVG/1.1/DTD/svg11.dtd">
<svg version="1.1" id="Layer_1" xmlns="http://www.w3.org/2000/svg" xmlns:xlink="http://www.w3.org/1999/xlink" x="0px" y="0px"
	 width="150px" height="137.123px" viewBox="0 0 150 137.123" enable-background="new 0 0 150 137.123" xml:space="preserve">
<path fill-rule="evenodd" clip-rule="evenodd" fill="#336699" d="M76.136,69.291c0.498,0,0.903,0.404,0.903,0.9
	s-0.405,0.899-0.903,0.899c-0.492,0-0.899-0.403-0.899-0.899S75.644,69.291,76.136,69.291L76.136,69.291z M28.601,91.719
	c-18.386,7.946-25.289,2.214-25.357,2.155L0,91.051l0.889,4.207c0.038,0.18,3.958,17.936,18.163,17.937
	c0.105,0,0.205-0.001,0.306-0.003c12.715-0.232,18.187,4.239,23.47,8.561l1.915,1.556c7.255,5.9,16.661,13.813,31.798,13.815
	c5.685,0,12.378-0.913,20.435-3.112c10.754-2.938,17.669-9.599,23.479-16.994c0.633-0.921,1.248-1.856,1.805-2.844
	c9.198-16.291,5.596-37.28,4.154-43.777c-15.024,3.409-23.92,3.21-23.92,3.21c2.381-0.533,4.811-1.189,7.221-1.919
	c-1.073,0.132-2.147,0.273-3.223,0.38c6.813-1.709,13.471-3.953,19.851-6.667c2.364-1.021,4.704-2.116,6.966-3.309l0.06-2.001
	c0.062-1.335,0.033-2.668-0.003-3.999c-0.041-1.333-0.029-2.668-0.118-3.995l-0.26-3.985c-0.065-1.33-0.256-2.646-0.38-3.971
	c-0.141-1.321-0.262-2.646-0.466-3.958l-0.551-3.947l-0.674-3.925c-0.207-1.311-0.488-2.608-0.745-3.91
	c-0.253-1.302-0.512-2.604-0.814-3.896c-0.301-1.292-0.563-2.591-0.894-3.876l-0.966-3.858c-0.677-2.563-1.388-5.119-2.156-7.659
	c-0.768-2.546-1.58-5.052-2.491-7.59l-0.298-0.839L121.67,0.62l-4.301-0.305c-1.434-0.125-2.867-0.147-4.303-0.2
	c-1.433-0.04-2.87-0.122-4.304-0.105L104.464,0l-4.297,0.097c-1.434,0.023-2.863,0.084-4.294,0.16
	c-2.858,0.114-5.713,0.315-8.566,0.515c-2.852,0.235-5.704,0.459-8.545,0.769c-2.846,0.277-5.686,0.616-8.52,0.967
	c-4.988,0.635-9.951,1.372-14.919,2.23c-0.014,0.363-0.025,0.817-0.045,1.404c-0.047,1.385-0.047,3.396-0.051,5.811
	c-0.018,1.208,0.042,2.516,0.063,3.9c0.04,1.385,0.032,2.849,0.121,4.359c0.07,1.511,0.147,3.072,0.221,4.661
	c0.058,1.591,0.188,3.199,0.317,4.81c0.125,1.612,0.252,3.225,0.38,4.811c0.101,1.589,0.332,3.139,0.486,4.648
	c0.168,1.51,0.334,2.967,0.491,4.349c0.135,1.389,0.341,2.688,0.533,3.887c0.738,4.808,1.233,8.016,1.233,8.016
	s-0.759-3.158-1.899-7.894c-0.29-1.184-0.602-2.468-0.855-3.842c-0.271-1.37-0.558-2.815-0.855-4.311
	c-0.281-1.498-0.642-3.039-0.879-4.623c-0.258-1.582-0.519-3.189-0.78-4.795c-0.265-1.608-0.53-3.218-0.72-4.809
	c-0.214-1.593-0.417-3.16-0.615-4.675c-0.216-1.516-0.331-2.99-0.491-4.385c-0.133-1.396-0.305-2.713-0.392-3.938
	c-0.168-2.036-0.309-3.768-0.394-5.135L47.2,11.523l-0.378,0.433l0.032,0.575l0.641,10.099l-4.364,10.129l-0.11,0.248l-0.008,0.251
	c-0.073,3.146,0.018,6.212,0.198,9.313c0.125,1.546,0.212,3.083,0.406,4.644c0.149,1.57,0.363,3.094,0.604,4.597l0.172,1.134
	c0.07,0.438,0.15,0.779,0.222,1.174l0.454,2.291c0.153,0.764,0.36,1.514,0.539,2.271c0.182,0.758,0.363,1.516,0.593,2.26
	c0.411,1.503,0.886,2.988,1.393,4.468c0.277,0.731,0.531,1.47,0.826,2.198c0.292,0.736,0.582,1.442,0.943,2.208h0.003l0.191,0.41
	l0.428,0.221l3.591,1.832c-0.126-0.622-0.272-1.321-0.431-2.084c-0.304-1.534-0.728-3.303-1.011-5.234
	c-0.315-1.921-0.652-3.969-0.99-6.019c-0.18-1.02-0.279-2.061-0.419-3.071c-0.129-1.012-0.257-2.009-0.381-2.973
	c-0.266-1.924-0.458-3.719-0.589-5.263c-0.292-3.084-0.489-5.139-0.489-5.139s0.463,2.013,1.158,5.03
	c0.326,1.515,0.754,3.271,1.267,5.131c0.249,0.932,0.499,1.895,0.756,2.875c0.269,0.975,0.5,1.972,0.806,2.955
	c0.595,1.965,1.189,3.93,1.748,5.771c0.524,1.848,1.167,3.528,1.66,4.98c1.009,2.894,1.682,4.822,1.682,4.822l0.034,0.101
	c0.03,0.085,0.052,0.171,0.072,0.26c0.007,0.033,0.004,0.066,0.011,0.099l2.023,0.697c0,0.444-0.031,0.942-0.106,1.5
	c-0.021,0.154-0.061,0.325-0.091,0.486c-0.02,0.399-0.075,0.866-0.195,1.396c-0.209,0.869-0.569,1.897-1.29,2.897
	c-0.624,0.874-1.535,1.706-2.685,2.419c-0.399,0.319-0.818,0.623-1.267,0.903c-1.612,1.151-4.16,1.736-4.939,2.618
	c-1.203,1.005-1.982,2.66-2.13,4.572c-0.13,1.912,0.294,3.999,1.216,5.894c0.908,1.908,2.317,3.599,4.008,4.917
	c1.699,1.314,3.71,2.218,5.821,2.649c1.052,0.234,2.134,0.332,3.203,0.368l0.807-0.01l0.399-0.003h0.101
	c-0.013,0.002,0,0.002,0,0.002l0.158-0.021c0.469-0.064,0.979-0.184,1.451-0.314c1.92-0.541,3.46-1.594,3.979-2.921
	c0.245-0.68,0.292-1.443,0.197-2.231l-0.006-0.071v-0.03l-0.02-0.076L69,99.809c-0.064-0.21-0.115-0.514-0.19-0.643
	c-0.172-0.22-0.192-0.461-0.448-0.706c-0.756-1.012-2.152-1.625-3.477-2.137c-1.325-0.52-2.623-0.972-3.625-1.661
	c-0.253-0.146-0.48-0.349-0.675-0.561c-0.204-0.183-0.366-0.395-0.481-0.63c-0.295-0.408-0.272-0.87-0.335-1.164
	c0.091-0.635,0.177-0.917,0.177-0.917s0.092,0.329,0.274,0.819c0.25,0.456,0.726,0.873,1.538,1.113
	c-0.239-0.457-0.45-0.953-0.551-1.525c-0.135-0.721-0.076-1.499,0.166-2.132c0.098-0.328,0.29-0.589,0.441-0.839
	c0.158-0.253,0.36-0.436,0.542-0.602c0.194-0.159,0.334-0.32,0.523-0.401c0.174-0.094,0.323-0.171,0.453-0.226
	c0.253-0.114,0.408-0.155,0.408-0.155s-0.024,0.158-0.071,0.433c-0.041,0.266-0.153,0.602-0.173,1
	c-0.014,0.197-0.078,0.384-0.047,0.592c0.016,0.201-0.038,0.391,0.029,0.586c0.026,0.378,0.146,0.731,0.283,1.071
	c0.176,0.334,0.35,0.679,0.603,0.989c0.222,0.322,0.489,0.614,0.708,0.875c0.233,0.256,0.424,0.471,0.557,0.621
	c0.125,0.149,0.183,0.221,0.198,0.232c0.135,0.09,0.239,0.205,0.326,0.33c0.592,0.14,1.211,0.307,1.866,0.577
	c0.866,0.407,1.842,0.936,2.583,1.88c0.405,0.397,0.707,1.049,1.002,1.647c0.133,0.295,0.155,0.475,0.236,0.72l0.105,0.349
	l0.049,0.176l0.041,0.167l0.006,0.028l0.004,0.057l0.014,0.107c0.18,1.151,0.18,2.453-0.265,3.756
	c-0.469,1.289-1.38,2.415-2.438,3.214c-1.062,0.811-2.247,1.357-3.464,1.752c-0.613,0.19-1.223,0.353-1.891,0.467l-0.273,0.044
	l-0.052,0.007l-0.162,0.015l-0.117,0.004l-0.466,0.013l-0.947,0.023c-1.261-0.021-2.551-0.118-3.833-0.379
	c-1.291-0.227-2.555-0.661-3.791-1.161c-1.217-0.557-2.401-1.218-3.479-2.03c-2.165-1.624-3.896-3.791-5.039-6.191
	c-1.15-2.4-1.711-5.058-1.52-7.684c0.06-0.803,0.227-1.605,0.462-2.385C41.416,88.485,36.697,88.223,28.601,91.719L28.601,91.719z
	 M126.16,54.271c0,0-27.152,9.451-55.425,9.355c0,0-9.358-27.707-7.465-51.741c0,0,30.614-6.075,54.758-3.854
	C118.028,8.031,127.509,30.327,126.16,54.271L126.16,54.271L126.16,54.271z M84.689,72.398c-1.686,0-3.059-1.372-3.059-3.059
	s1.373-3.059,3.059-3.059c1.688,0,3.06,1.372,3.06,3.059S86.376,72.398,84.689,72.398L84.689,72.398L84.689,72.398z M76.136,73.249
	L76.136,73.249c1.686,0,3.063-1.372,3.063-3.058c0-1.687-1.376-3.059-3.063-3.059c-1.687,0-3.059,1.372-3.059,3.059
	C73.077,71.877,74.449,73.249,76.136,73.249L76.136,73.249z M132.118,86.423c0.059,0.003,0.115,0.014,0.176,0.014
	c0.421,0.033,0.864,0.031,1.282-0.062c1.765-0.256,3.608-1.057,5.552-1.813c1.935-0.762,4.048-1.487,5.865-1.149
	c0.515,0.013,0.778,0.252,1.181,0.319c0.211,0.062,0.565,0.337,0.843,0.499l0.449,0.284l0.098,0.062l0.03,0.034l0.079,0.069
	c0.883,0.756,1.591,1.622,2.003,2.598c0.759,1.944,0.144,4.606-1.385,7.093c-0.38,0.608-0.81,1.241-1.251,1.779l-0.149,0.176
	c0,0-0.014,0.013-0.001,0l-0.109,0.102l-0.427,0.395l-0.857,0.813c-1.189,1.023-2.449,1.995-3.813,2.782
	c-2.705,1.629-5.765,2.65-8.899,2.921c-0.84,0.07-1.684,0.083-2.527,0.053C131.741,97.524,132.188,91.653,132.118,86.423
	L132.118,86.423z M84.689,68.44c0.495,0,0.899,0.403,0.899,0.899c0,0.497-0.404,0.899-0.899,0.899c-0.495,0-0.899-0.403-0.899-0.899
	C83.79,68.844,84.194,68.44,84.689,68.44z"/>
<g transform="translate(85,40)">
	<path fill-rule="evenodd" clip-rule="evenodd" fill="#336699" d="M11.57-3.584l-0.808-1.915c0,0,1.873-4.227,1.711-4.389
		l-2.48-2.423c-0.173-0.167-4.403,1.76-4.403,1.76l-1.951-0.788c0,0-1.729-4.285-1.962-4.285h-3.503
		c-0.243,0-1.836,4.296-1.836,4.296l-1.95,0.791c0,0-4.32-1.836-4.485-1.678l-2.479,2.429c-0.171,0.17,1.802,4.311,1.802,4.311
		l-0.804,1.915c0,0-4.379,1.684-4.379,1.915v3.433c0,0.237,4.389,1.799,4.389,1.799l0.806,1.908c0,0-1.875,4.229-1.71,4.393
		l2.482,2.426c0.167,0.164,4.4-1.767,4.4-1.767l1.953,0.794c0,0,1.724,4.281,1.96,4.281h3.504c0.24,0,1.839-4.296,1.839-4.296
		l1.951-0.791c0,0,4.313,1.836,4.481,1.678l2.48-2.429c0.17-0.164-1.806-4.308-1.806-4.308l0.808-1.915c0,0,4.381-1.69,4.381-1.92
		v-3.43C15.96-2.023,11.57-3.584,11.57-3.584L11.57-3.584z M0,5.005c-2.817,0-5.114-2.247-5.114-5.007
		c0-2.757,2.297-5.004,5.114-5.004c2.82,0,5.113,2.247,5.113,5.004C5.114,2.759,2.821,5.005,0,5.005z">
		<animateTransform attributeName="transform" attributeType="XML" type="rotate" from="0" to="360" begin="0s" dur="5s" repeatCount="indefinite"/>
	</path>
</g>
<g transform="translate(105,25)">
	<path fill-rule="evenodd" clip-rule="evenodd" fill="#336699" d="M5.787,0.694l0.021-1c0,0,1.652-1.487,1.613-1.59L6.808-3.445
		C6.762-3.552,4.526-3.537,4.526-3.537L3.825-4.265c0,0,0.086-2.22-0.02-2.266l-1.538-0.69c-0.11-0.049-1.652,1.53-1.652,1.53
		l-1.011-0.04c0,0-1.536-1.654-1.64-1.614l-1.568,0.581c-0.105,0.037-0.054,2.244-0.054,2.244l-0.731,0.685
		c0,0-2.252-0.121-2.298-0.021l-0.675,1.508C-7.41-2.242-5.788-0.694-5.788-0.694l-0.021,0.994c0,0-1.651,1.49-1.612,1.594
		l0.614,1.551c0.044,0.104,2.281,0.087,2.281,0.087l0.699,0.73c0,0-0.082,2.221,0.023,2.267l1.539,0.687
		c0.106,0.049,1.649-1.521,1.649-1.521L0.4,5.728c0,0,1.532,1.654,1.639,1.618l1.564-0.581C3.71,6.727,3.66,4.517,3.66,4.517
		l0.729-0.679c0,0,2.252,0.115,2.299,0.015l0.676-1.508C7.407,2.242,5.787,0.694,5.787,0.694L5.787,0.694z M2.249,1
		C1.707,2.212,0.257,2.75-0.985,2.196c-1.235-0.552-1.804-1.99-1.261-3.206c0.54-1.209,1.993-1.744,3.229-1.193
		C2.22-1.645,2.789-0.209,2.249,1z">
		<animateTransform attributeName="transform" attributeType="XML" type="rotate" from="360" to="0" begin="0s" dur="5s" repeatCount="indefinite"/>
	</path>
</g>
</svg>

